<svg xmlns="http://www.w3.org/2000/svg" class="fill-current" viewBox="0 0 1100 200">
  <path d="M95.8 195c10.2.3 20.8.3 31 0 4 0 6-2.5 5-6.6A5615.6 5615.6 0 0 1 93 8.7c-.8-3.9-3-5.5-6.6-5.5H50.3c-3.5 0-5.7 1.6-6.5 5.2A7390.7 7390.7 0 0 1 5 188.7c-1 3.8.8 6.3 5.2 6.6 8.8.2 16.5.2 25.2 0 3.6-.3 5.8-2.2 6.3-5.8 1.1-7.7 2.5-15.9 3.9-23.5.3-2 1.6-3 3.5-3 11-.3 22.2-.6 33-.3 1.8 0 3.2 1 3.5 3 1.3 8 2.7 15.9 3.8 23.8.6 3.6 2.8 5.5 6.3 5.5Zm-43.5-67.4 11.5-58.4c.5-3.3 3.2-3.3 3.8 0L79.1 128c.3 2.2-.8 3.5-3 3.5-7.1 0-13.7 0-20.8-.2-2.2 0-3.3-1.4-3-3.6Zm164 68.2c7 0 15.4-.3 25-.5 5.5-.3 8.2-2.2 8.2-6a9883 9883 0 0 1 0-180.3c0-3.9-1.9-6-5.7-6-8-.3-17.8-.3-25.8 0-4 .2-6 2.1-6 6 .3 18.6.5 47.6.3 78.3 0 3-2.8 3.6-3.6.6-8-28-17-56.2-25.5-84.2v-.2l-6-.6c-8.5 0-17.5-.2-26.9 0-3.8.3-6 2.2-6 6 .6 41.2.6 134.9 0 180.3 0 3.9 2 6 5.8 6 8.5.3 19.2.3 27.1 0 4.1-.2 6-2.1 6-6-.3-22.4-.5-56.7-.3-90.6 0-2.5 3.3-3 3.9-.9 8.8 31 17 61.7 23.3 92.6.8 3.6 2.7 5.2 6.3 5.5Zm59.5-.5c10.4.5 23.3.8 38.4-.3 59-4.7 79-43.6 79-92.6 0-46-14.3-94-87.8-99-15-1-12.8-1-29.3-.5-4.1.3-6.3 2.5-6 6.3.8 37 1 147.4 0 180-.3 3.9 1.6 6 5.7 6Zm37-39c-.2-38.3 0-90.6.3-113.1 0-1.4 1.1-2 3.3-2 28.8 2 36.7 38.2 36.7 61.2 0 31.2-11.5 54.2-37 57.3-1.9.2-3.3-.9-3.3-3.3Zm200.3-87.6c0-3.6 0-26-.5-48.5 0-11.2-2.5-17-6.3-17-8.5.3-17.6.3-26 0-3.9 0-6 2.2-6 6 .5 5.5 1 3.3.5 28 0 31.5 5.2 57-14 57-16.2 0-14.5-25.8-14.5-56.2 0-26.6 0-19.7.5-28.2.6-4.4-1.6-6.6-5.7-6.6-9.4.3-19.2.3-28 0-4.1 0-6 2.5-6 6.6.8 12-.3.5 0 28.2.8 61.4 6.6 95 52 95 2.5 0 4.2-.5 5.8-1.3 2.5-1 4.4 0 3.8 2.7-4.4 29-28.5 29.4-52.6 19-4-2-7.1-.3-7.4 4.3-.5 9.9-.2 16.5.3 27.2.3 3.5 2 5.7 5.2 6.5 64.7 18.7 99-14.8 99-122.7Zm100.5 131c22.5 0 52-16 56.5-68.8.8-9.6-1.7-14.8-5.8-14.5-8.5.2-17.3.2-25.8 0-3.8-.3-6 1.9-6.3 5.7-1.6 17.8-7.6 39-18.9 39-10.6 0-18-18.2-18-58.4 0-45.8 8.4-64.7 20.5-64.7 12 0 15.9 27.4 16.7 44.4 0 3.8 2 5.7 5.8 6 8.7.3 17.5.3 26.3 0 3.8-.3 6-2.5 6-6.6C668.4 20 642.9-2 615-2c-31 0-58.4 23.3-58.4 104.7 0 78 27.1 97 57 97Zm76.7-4.4c10.4.2 19.8.2 30.2 0 3.8-.3 6-2.5 6-6.3-.3-11.3-.3-32-.5-55.1 0-2.2 1-3.3 3.2-3.3h2.2c2.2 0 3.3.8 3.6 3 5.2 44.1 34 60 63 62 21.7 1.3 68.8 0 85.2-.3 3.9-.3 5.8-2.2 6-6 .3-8.5.9-16.5.3-24.7-.2-3.8-2.4-5.8-6.3-5.8-28.7-.2-55.3 4.1-81-.5-21.2-3.9-28.6-23-31-36.7-.3-2 .5-3.3 1.9-4.4A60 60 0 0 0 796 67c0-44.3-23.8-64.6-77.5-63.8-9.6.3-19 0-28.3 0-3.8 0-6 2.2-5.7 6 .8 37.3.8 148.3 0 179.8-.3 3.8 1.9 6 5.7 6.3ZM726 89.8l.2-50.2c0-1 1.1-1.6 3.3-1.6C748 38 758 45.7 758 66.8c0 22.7-14.5 25.7-28.8 26.3-2.2 0-3.2-1.1-3.2-3.3Zm80-11.3c0 51 14.2 72.1 41 72.1 28.3 0 42-21 42-72C889 24.8 875.3 1 847 1c-26.8 0-41 23.8-41 77.5Zm31.7-1c0-22 3-37.3 10.5-37.3 7.6 0 10 15.3 10 37.3-.2 24.3-3 37.8-10 37.8-8 0-10.5-13.5-10.5-37.8Zm102.8-74c-10.1.5-20.8.5-31 0-4 0-6.3 1.9-6.3 5.7.9 40.3.9 137.6 0 179.5 0 3.8 2.5 5.8 6.6 5.5 29.3-2.8 50.1 8.7 75.9 2.4 3.6-1 5.2-3.2 5-7-.3-8-.6-16 0-24 0-4.3-2.5-6-7-4.8-15 3.8-24.6 2.1-34.2.8-1.9-.3-3-1.4-3-3.3l-.3-13.2c-.5-21.3-.2-96.1.6-135.6 0-4.1-2.2-6-6.3-6Zm101.4 0c-10.2.5-20.9.5-31 0-4.1 0-6.3 1.9-6.3 5.7.8 40.3.8 137.6 0 179.5 0 3.8 2.5 5.8 6.6 5.5 29.3-2.8 50.1 8.7 75.9 2.4 3.5-1 5.2-3.2 5-7-.4-8-.6-16 0-24 0-4.3-2.5-6-7-4.8-15 3.8-24.6 2.1-34.2.8-1.9-.3-3-1.4-3-3.3l-.3-13.2c-.5-21.3-.2-96.1.6-135.6 0-4.1-2.2-6-6.3-6Z"/>
</svg>