<svg width="950" height="400" viewBox="0 0 950 400" xmlns="http://www.w3.org/2000/svg">
    <g id="ruby">
        <path id="path1" fill="#9a111e" stroke="none" d="M 469.985687 269.881073 C 469.985687 266.396667 469.985687 244.418091 469.449677 222.439514 C 469.449677 211.450241 467.037415 205.821609 463.284943 205.821609 C 454.975983 206.089615 446.130981 206.089615 437.821991 205.821609 C 434.069519 205.821609 431.925293 207.965851 431.925293 211.718246 C 432.461456 217.078949 432.997498 214.934692 432.461456 239.057465 C 432.461456 269.881073 437.553986 294.807983 418.791779 294.807983 C 402.977875 294.807983 404.58609 269.613068 404.58609 239.861542 C 404.58609 213.862488 404.58609 220.563324 405.122131 212.254349 C 405.658295 207.965851 403.514069 205.821609 399.493561 205.821609 C 390.380402 206.089615 380.731384 206.089615 372.154388 205.821609 C 368.133911 205.821609 366.25766 208.233871 366.25766 212.254349 C 367.061798 224.047699 365.989655 212.790451 366.25766 239.861542 C 367.061798 299.900604 372.690399 332.868408 417.183563 332.868408 C 419.595825 332.868408 421.204041 332.332397 422.812286 331.52829 C 425.224518 330.456146 427.100769 331.52829 426.564758 334.208588 C 422.276245 362.619904 398.689392 362.887939 375.102661 352.702728 C 371.082184 350.826508 368.133911 352.434723 367.865814 356.991211 C 367.329803 366.640381 367.597809 373.07312 368.133911 383.526337 C 368.401917 387.010742 370.010132 389.154999 373.22644 389.959106 C 436.481781 408.185211 469.985687 375.485413 469.985687 269.881073 Z M 244.839493 393.443481 C 254.220596 393.175476 263.333679 393.175476 272.714691 393.175476 C 274.054901 393.175476 275.127045 393.443481 276.467163 393.443481 C 277.003265 393.443481 277.807312 393.443481 278.61142 393.443481 C 322.032532 392.639374 352.588074 380.041931 352.588074 340.373291 C 352.588074 319.466827 344.279114 304.457092 334.093903 298.292389 C 332.217651 297.220245 331.949646 295.880127 333.557861 294.271912 C 341.062744 286.230957 346.691376 272.561371 346.691376 259.427856 C 346.691376 222.707565 323.908691 208.233871 275.127045 206.893738 L 244.839493 206.089615 C 241.087021 206.089615 238.674774 207.965851 238.94278 211.718246 C 239.746887 248.170517 240.014908 355.651093 238.94278 387.546783 C 238.674774 391.299255 240.819016 393.443481 244.839493 393.443481 Z M 281.023682 310.889832 C 299.249847 310.621826 312.383331 318.394714 312.383331 334.744659 C 312.383331 360.743713 294.425262 360.475647 281.291779 360.207581 C 279.147522 360.207581 278.075409 359.135468 277.807312 356.991211 C 277.539307 346.537994 277.539307 325.363556 277.807312 314.106201 C 277.807312 311.961975 278.879425 310.889832 281.023682 310.889832 Z M 278.075409 280.870361 C 277.807312 266.932709 277.807312 249.778748 278.343414 241.469772 C 278.343414 240.397644 279.415527 239.861542 281.559784 239.861542 C 297.105591 239.325516 307.826843 241.737778 307.826843 259.695862 C 307.826843 282.746552 296.569489 285.962952 281.023682 284.086731 C 279.147522 284.086731 278.075409 282.746552 278.075409 280.870361 Z M 13.260498 393.711517 C 23.445618 393.979553 32.558716 393.979553 42.743896 393.711517 C 46.496277 393.443481 48.640564 391.299255 48.640564 387.546783 C 48.372559 376.557526 48.372559 356.187164 48.104492 333.672516 C 48.104492 331.52829 49.176636 330.456146 51.320862 330.456146 C 52.125 330.456146 52.929138 330.456146 53.465149 330.456146 C 55.609375 330.456146 56.681519 331.260223 56.949524 333.40451 C 62.042114 376.557526 90.185425 392.103363 118.59668 393.979553 C 140.307251 395.319733 199.542236 393.979553 218.304443 393.711517 C 222.056763 393.443481 223.933105 391.567261 224.20105 387.814819 C 224.469116 379.50589 225.005127 372.000977 224.469116 363.960083 C 224.20105 360.207581 221.788818 358.063354 218.036377 358.33139 C 188.284912 360.207581 147.812134 362.083832 122.617188 357.527344 C 101.97876 353.774841 94.741943 335.012665 92.329712 321.611115 C 92.061646 319.734894 92.865723 318.394714 94.205933 317.322571 C 107.607422 307.137421 116.720581 291.055542 116.720581 268.272888 C 116.720581 224.851822 93.401733 205.017502 40.867676 205.821609 C 31.486572 206.089615 22.373474 205.821609 13.260498 205.821609 C 9.507996 205.821609 7.36377 207.965851 7.631775 211.718246 C 8.435913 248.170517 8.435913 356.723206 7.631775 387.546783 C 7.36377 391.299255 9.507996 393.443481 13.260498 393.711517 Z M 48.104492 290.519501 C 48.104492 270.149109 48.372559 251.922989 48.372559 241.469772 C 48.372559 240.397644 49.444641 239.861542 51.588928 239.861542 C 69.546997 239.861542 79.464172 247.36644 79.464172 268.004822 C 79.464172 290.251465 65.258484 293.199768 51.320862 293.73587 C 49.176636 293.73587 48.104492 292.663757 48.104492 290.519501 Z M 128.781982 211.718246 C 129.317993 228.872299 128.513916 253.799179 128.781982 274.169556 C 129.317993 324.827484 137.090942 350.826508 178.367676 350.826508 C 207.047119 350.826508 225.809326 332.868408 225.273193 286.499023 C 224.737183 262.644226 223.933105 230.212433 223.933105 211.718246 C 223.933105 207.965851 221.788818 205.821609 218.036377 206.089615 C 210.799438 206.089615 201.418335 206.089615 193.913574 205.821609 C 190.161133 205.821609 188.016846 207.965851 188.284912 211.718246 C 188.552856 228.604248 187.748779 253.263123 187.212769 273.365448 C 187.212769 296.416138 187.212769 314.910339 178.099731 314.910339 C 166.306274 314.910339 166.306274 296.416138 166.306274 274.169556 C 166.306274 253.799179 165.770264 228.872299 166.03833 211.718246 C 166.306274 207.965851 164.162109 205.821609 160.141602 206.089615 C 152.368774 206.089615 142.183472 206.089615 134.678711 205.821609 C 130.658203 205.821609 128.781982 207.965851 128.781982 211.718246 Z"/>
    </g>
    <g id="brighton">
        <path id="path2" fill="#000000" stroke="none" d="M 724.285156 197.951172 C 721.99176 197.934189 719.643799 197.108414 717.613281 195.164063 C 692.328979 170.952927 666.924011 147.715622 643.974609 121.128906 C 641.262634 117.986725 641.153015 114.503571 642.498047 111.642578 C 642.729797 110.980316 643.041138 110.31604 643.443359 109.652344 C 653.464478 93.115936 663.442444 75.658386 676.087891 60.960938 C 676.725647 60.219788 677.414551 59.611572 678.136719 59.121094 C 679.340637 58.050781 680.976685 57.308228 683.083984 57.09375 C 714.844666 53.85965 748.644043 49.523041 779.804688 58.695313 C 782.773987 59.56958 784.555847 61.369293 785.373047 63.507813 C 785.940308 64.416962 786.379028 65.478058 786.644531 66.703125 C 790.0625 82.473816 798.101379 96.725555 803.837891 111.703125 C 805.979797 114.465149 806.394531 118.220245 803.275391 121.732422 C 781.260986 146.517487 755.745239 167.955093 734.382813 193.322266 C 733.026306 194.933105 731.432617 195.931564 729.769531 196.4375 C 728.132935 197.397186 726.228882 197.965576 724.285156 197.951172 Z M 899.849609 196.248047 C 896.365173 195.979996 894.489685 194.371094 893.685547 190.886719 C 887.520874 160.599213 879.479309 130.580475 870.902344 100.292969 C 870.366333 98.148712 867.150391 98.683411 867.150391 101.095703 C 866.882385 134.331573 867.149902 167.835938 867.417969 189.814453 C 867.417969 193.566879 865.541992 195.442932 861.521484 195.710938 C 853.748596 195.978989 843.295288 195.978989 834.986328 195.710938 C 831.233826 195.710938 829.357422 193.566879 829.357422 189.814453 C 829.893494 145.321304 829.893494 53.655853 829.357422 13.451172 C 829.357422 9.698792 831.501404 7.820801 835.253906 7.552734 C 844.366943 7.284729 853.212524 7.552734 861.521484 7.552734 L 867.417969 8.089844 L 867.417969 8.357422 C 875.726929 35.696594 884.572754 63.303406 892.345703 90.642578 C 893.149719 93.590912 895.830078 93.055756 895.830078 90.107422 C 896.098083 60.087952 895.830505 31.677277 895.5625 13.451172 C 895.5625 9.698792 897.438538 7.820801 901.458984 7.552734 C 909.231934 7.284729 918.879456 7.284729 926.652344 7.552734 C 930.404846 7.552734 932.28125 9.698792 932.28125 13.451172 C 931.745117 53.655853 931.745117 145.321304 932.28125 189.814453 C 932.28125 193.566879 929.60083 195.442932 924.240234 195.710938 C 914.859131 195.978989 906.550415 196.248047 899.849609 196.248047 Z M 586.253906 195.175781 C 582.233459 195.175781 580.087891 193.299347 580.087891 189.546875 C 580.623962 158.455322 580.893005 94.394745 580.625 48.025391 C 580.625 45.881134 579.284851 44.810089 577.140625 45.078125 C 571.779968 45.882202 562.934448 46.417816 554.357422 45.345703 C 550.605042 45.077667 548.998047 42.666504 548.998047 38.914063 C 549.534119 30.873138 549.53363 22.562897 549.265625 14.253906 C 548.997559 10.233429 551.141602 8.358429 555.162109 8.894531 C 597.24292 13.451019 766.638123 -1.022949 810.863281 6.75 C 814.347717 7.286041 815.6875 9.697266 815.6875 13.181641 C 815.151489 21.222595 815.151917 28.728607 815.419922 36.769531 C 815.687927 40.789978 813.543945 42.666443 809.523438 42.398438 C 780.308105 39.450073 678.188843 38.64505 625.386719 42.933594 C 623.510559 43.201599 622.4375 44.273712 622.4375 46.417969 C 622.4375 49.902374 622.169922 52.850189 622.169922 57.138672 C 621.63385 78.045105 621.90094 150.682831 622.705078 189.279297 C 622.705078 193.299789 620.561523 195.175781 616.541016 195.175781 C 606.62384 194.639679 596.171082 194.639679 586.253906 195.175781 Z M 724.265625 174.009766 C 726.504089 154.261993 735.023071 135.487854 740.433594 116.306641 C 727.013794 115.749237 713.593628 115.179596 700.171875 114.791016 C 704.263184 129.487885 710.413208 143.693787 716.695313 157.548828 C 719.171875 163.012283 721.620667 168.565521 724.265625 174.009766 Z M 732.097656 167.871094 C 748.203918 150.775406 765.613281 134.951233 781.638672 117.771484 C 770.302185 117.4935 758.966125 117.063416 747.630859 116.601563 C 742.995605 133.574707 735.273376 150.474182 732.097656 167.871094 Z M 711.65625 163.658203 C 710.626892 161.335831 709.609009 159.014481 708.59375 156.708984 C 702.565063 143.016663 696.721191 129.079224 692.837891 114.599609 C 682.903015 114.365631 672.967468 114.248322 663.029297 114.330078 C 678.483887 131.698761 694.944214 147.719666 711.65625 163.658203 Z M 783.195313 110.771484 C 779.179565 101.285065 774.841064 91.927338 771.550781 82.189453 C 764.403137 91.178375 757.755127 100.553009 750.783203 109.681641 C 761.58667 110.117004 772.390503 110.514099 783.195313 110.771484 Z M 740.986328 109.279297 C 738.995239 97.398499 732.192322 87.431549 726.232422 77.154297 C 727.209412 76.074036 728.215454 75.01767 729.261719 73.990234 C 727.438965 73.598358 725.615662 73.206299 723.792969 72.814453 C 724.578857 74.271729 725.39801 75.715363 726.232422 77.154297 C 717.495972 86.814697 711.235352 98.362793 702.230469 107.808594 C 715.14978 108.194946 728.068848 108.742096 740.986328 109.279297 Z M 699.652344 107.734375 C 699.432739 105.662262 699.054688 103.573517 698.558594 101.476563 C 706.914856 92.397827 713.002441 81.510254 721.222656 72.275391 C 710.264832 72.986359 699.357239 74.260986 688.808594 75.361328 C 692.273376 83.693481 696.470459 92.649384 698.558594 101.476563 C 697.09552 103.066162 695.563721 104.600677 693.9375 106.060547 C 695.452576 106.607513 696.968445 107.154175 698.484375 107.701172 C 698.873901 107.711823 699.262878 107.723419 699.652344 107.734375 Z M 692.529297 107.552734 C 691.304932 98.883759 687.345703 89.916504 683.75 81.486328 C 677.651001 89.721191 672.1297 98.498535 666.789063 107.289063 C 675.370239 107.252869 683.950439 107.357269 692.529297 107.552734 Z M 746.867188 103.179688 C 753.975403 93.763275 760.818787 84.146393 768.292969 75.015625 C 756.325806 72.162354 743.830505 71.465332 731.275391 71.804688 C 737.008179 82.070892 743.786438 91.851532 746.867188 103.179688 Z M 467.515656 7.553528 C 457.866486 7.285522 449.28952 7.285522 439.64035 7.553528 C 435.619934 7.821594 433.475677 9.697845 433.475677 13.450226 C 434.279755 49.366455 434.279755 155.2388 433.475677 189.814835 C 433.475677 193.567261 435.619934 195.443497 439.372345 195.711502 C 449.28952 195.979553 457.866486 195.979553 467.515656 195.711502 C 471.268066 195.443497 473.412323 193.567261 473.412323 189.814835 C 473.144287 174.269043 472.876251 145.053619 472.876251 113.69397 C 472.876251 111.549713 473.948395 110.4776 476.092621 110.4776 C 482.52536 110.209534 488.95816 110.209534 495.3909 110.4776 C 497.535126 110.4776 498.607269 111.549713 498.607269 113.69397 C 498.607269 145.053619 498.339203 174.537048 498.071198 189.814835 C 498.071198 193.567261 500.215454 195.443497 503.967865 195.711502 C 513.617004 195.979553 522.462036 195.979553 532.111145 195.711502 C 535.863586 195.443497 538.007874 193.299255 537.739868 189.546783 C 537.203796 155.2388 537.203796 49.366455 538.007874 13.450226 C 538.007874 9.697845 535.863586 7.821594 532.111145 7.553528 C 522.194031 7.285522 513.617004 7.285522 503.967865 7.553528 C 500.215454 7.821594 498.071198 9.697845 498.071198 13.450226 C 498.339203 27.92395 498.607269 53.118866 498.607269 80.726105 C 498.607269 82.870361 497.535126 83.942474 495.3909 83.942474 C 488.95816 83.942474 482.52536 83.942474 476.092621 83.674438 C 473.948395 83.674438 472.876251 82.602295 472.876251 80.458069 C 472.876251 53.386932 473.144287 27.92395 473.412323 13.450226 C 473.412323 9.697845 471.268066 7.821594 467.515656 7.553528 Z M 417.393799 66.252411 C 413.105286 22.027222 388.446411 2.729004 364.591614 2.729004 C 334.304077 2.729004 307.500946 26.583801 307.500946 105.116974 C 307.500946 175.07312 334.036072 200 363.251434 200 C 393.807037 200 419.269989 182.309967 418.733917 97.880127 C 418.733917 93.591614 416.589661 91.447388 412.83725 91.715393 C 398.09552 91.983398 383.889862 91.983398 369.416168 91.715393 C 365.663727 91.447388 363.519501 93.591614 363.251434 97.344025 C 362.983429 104.044861 362.983429 109.405457 363.251434 115.838196 C 363.519501 119.858673 365.663727 121.734894 369.416168 121.734894 L 380.137451 121.734894 C 382.013641 121.734894 383.353821 122.807007 383.353821 124.951294 C 383.353821 143.71344 379.333344 162.207596 365.931793 162.207596 C 353.066284 162.207596 345.293365 144.517517 345.293365 105.116974 C 345.293365 60.355713 351.994141 41.861542 365.395721 41.861542 C 374.240723 41.861542 379.065308 53.118866 380.405457 66.788483 C 380.673492 70.540924 382.549713 72.417145 386.302124 72.685181 C 394.87915 72.953186 403.456146 72.953186 412.033173 72.685181 C 415.785614 72.417145 417.92984 70.272888 417.393799 66.252411 Z M 140.517456 195.711502 C 150.702652 195.979553 159.815704 195.979553 170.000916 195.711502 C 173.753342 195.443497 175.897583 193.299255 175.897583 189.546783 C 175.629562 178.557541 175.629562 158.187149 175.361526 135.672516 C 175.361526 133.52829 176.433655 132.456146 178.577896 132.456146 C 179.381989 132.456146 180.186081 132.456146 180.722137 132.456146 C 182.866409 132.456146 183.938538 133.260223 184.206558 135.40451 C 189.299149 178.557541 217.442444 194.103363 245.853745 195.979553 C 264.3479 197.051682 282.037994 196.247604 290.61496 195.711502 C 294.367432 195.711502 296.243652 193.567261 296.511658 189.814835 C 296.779694 181.773911 297.315765 174.805069 296.779694 167.032196 C 296.511658 163.279724 294.367432 161.135468 290.882996 161.135468 C 281.233887 161.403519 272.656891 163.547775 249.874237 159.527328 C 229.235825 155.774857 221.998962 137.012665 219.586685 123.611115 C 219.318665 121.734894 220.122757 120.394714 221.462906 119.322601 C 234.864471 109.137421 243.977539 93.055542 243.977539 70.272888 C 243.977539 26.851807 220.658813 7.017487 168.12468 7.821594 C 158.743591 8.08963 149.630524 7.821594 140.517456 7.821594 C 136.765015 7.821594 134.620773 9.965851 134.888809 13.718262 C 135.692902 50.170532 135.692902 158.723221 134.888809 189.546783 C 134.620773 193.299255 136.765015 195.443497 140.517456 195.711502 Z M 175.361526 92.519501 C 175.361526 72.149078 175.629562 53.922974 175.629562 43.469757 C 175.629562 42.397644 176.701675 41.861542 178.845932 41.861542 C 196.804031 41.861542 206.721191 49.366455 206.721191 70.004852 C 206.721191 92.251465 192.515533 95.199768 178.577896 95.73587 C 176.433655 95.73587 175.361526 94.663757 175.361526 92.519501 Z M 261.667603 149.342117 C 270.78067 149.610123 279.625702 149.610123 288.73877 149.342117 C 292.49118 149.074112 294.635468 147.197876 294.635468 143.177399 C 293.83136 109.941498 293.83136 44.005829 294.367432 13.450226 C 294.635468 9.697845 292.49118 7.821594 288.73877 7.553528 C 279.625702 7.285522 270.78067 7.285522 261.667603 7.553528 C 257.915161 7.821594 255.770905 9.965851 256.03894 13.718262 C 256.575012 44.005829 256.575012 109.941498 255.770905 143.177399 C 255.770905 146.929855 257.915161 149.074112 261.667603 149.342117 Z M 13.470628 195.443497 C 22.851723 195.175491 31.964787 195.175491 41.345882 195.175491 C 42.686043 195.175491 43.758163 195.443497 45.09832 195.443497 C 45.634384 195.443497 46.438477 195.443497 47.242569 195.443497 C 90.663643 194.639389 121.2192 182.041916 121.2192 142.37326 C 121.2192 121.466827 112.91024 106.457092 102.725044 100.292389 C 100.848831 99.220245 100.580803 97.880127 102.188988 96.271881 C 109.693855 88.230957 115.322517 74.561371 115.322517 61.427856 C 115.322517 24.70755 92.539856 10.233856 43.758163 8.893738 L 13.470628 8.0896 C 9.71819 8.0896 7.305908 9.965851 7.57394 13.718231 C 8.378034 50.170502 8.646065 157.651093 7.57394 189.546783 C 7.305908 193.299255 9.450158 195.443497 13.470628 195.443497 Z M 49.654854 112.889832 C 67.880981 112.621826 81.014511 120.394714 81.014511 136.744659 C 81.014511 162.743698 63.056416 162.475647 49.922882 162.207596 C 47.778633 162.207596 46.706509 161.135468 46.438477 158.991226 C 46.170448 148.53801 46.170448 127.363556 46.438477 116.106201 C 46.438477 113.961975 47.510601 112.889832 49.654854 112.889832 Z M 46.706509 82.870361 C 46.438477 68.932709 46.438477 51.778748 46.974541 43.469757 C 46.974541 42.397644 48.046661 41.861542 50.190914 41.861542 C 65.736732 41.3255 76.457985 43.737762 76.457985 61.695862 C 76.457985 84.746552 65.200668 87.962952 49.654854 86.086731 C 47.778633 86.086731 46.706509 84.746552 46.706509 82.870361 Z"/>
    </g>
</svg>
