<svg xmlns="http://www.w3.org/2000/svg" viewBox="0 0 2000 200">
  <defs>
    <linearGradient id="linear" x1="0.5" y1="0" x2="0.5" y2="1" gradientTransform="rotate(-75)">
        <stop offset="0%" stop-color="#fecaca"/>
        <stop offset="7.33%" stop-color="#fd8d91"/>
        <stop offset="22%" stop-color="#be123c"/>
        <stop offset="27.67%" stop-color="#c81938"/>
        <stop offset="39%" stop-color="#dc2626"/>
        <stop offset="45%" stop-color="#d02323"/>
        <stop offset="57%" stop-color="#b91c1c"/>
        <stop offset="63.33%" stop-color="#b0192b"/>
        <stop offset="76%" stop-color="#9f1239"/>
        <stop offset="82%" stop-color="#94182f"/>
        <stop offset="94%" stop-color="#7f1d1d"/>
    </linearGradient>
    <radialGradient id="radial" gradientTransform="translate(-1 -0.5) scale(2, 2)">
        <stop offset="19%" stop-color="#b91c1c"/>
        <stop offset="39.25%" stop-color="rgba(183, 36, 56, 0.75)"/>
        <stop offset="59.5%" stop-color="rgba(181, 43, 72, 0.5)"/>
        <stop offset="100%" stop-color="rgba(177, 56, 94, 0)"/>
    </radialGradient>
  </defs>
  <g>
    <path d="M8 195.3c10.7.3 21.3.3 31.8 0 3.9-.3 6.1-2.2 6.1-6-.3-18.1-.3-48.6-.3-78.3 0-2.2 1.1-3.3 3.4-3.3 8.3-.3 16.6-.5 25-.3 3.8.3 6-1.9 6.3-5.8.3-7 .3-11.6 0-18.3-.3-4.1-2.5-6-6.4-6-8.6.5-16.6.8-25 .5-2.2-.3-3.3-1.7-3.3-3.6V42.3c0-2 1.1-3.3 3.4-3.6 14.7-.6 29-.6 43.8 0 3.8.3 6-2 6.3-5.8.3-8.6.3-17.2 0-25.8-.2-3.9-2.5-6.1-6.3-5.8-28.3.5-56.3.5-84.6 0-4.1-.3-6.4 2-6 5.8.7 46.3 1 145.5 0 181.8-.4 4 1.9 6.1 5.7 6.4ZM150.7.7c-10.8-.3-21.3-.3-31.9 0-3.9.3-6 2.2-6 6.1.8 41.6.8 136.4 0 182.4 0 3.9 2.1 5.8 6 6.1 10.6.3 21 .3 31.9 0 3.9-.3 6.1-2.2 6.1-6.4a6646 6646 0 0 1 0-182c0-4-2.2-5.9-6.1-6.2ZM183.4 195.3c10.5.3 20 .3 30.5 0 3.9-.3 6.1-2.5 6.1-6.4-.3-11.3-.3-32.4-.6-55.7 0-2.2 1.2-3.3 3.4-3.3h2.2c2.2 0 3.3.8 3.6 3 5.5 45 34 63 59 63.5 3.6.3 5.9-1.6 6.7-5.2 2.5-9.7 4.4-19.7 6-29.7.6-3.9-1.3-5.8-5.4-6.4-18.3-3-25.8-21.3-29.2-34.6-.2-2 .3-3.4 1.7-4.5a60.3 60.3 0 0 0 23-50.4c0-45-24.1-65.4-78.4-64.6-9.7.3-19.2 0-28.6 0-3.9 0-6 2.2-5.8 6 .8 37.8.8 150 0 182-.3 3.8 2 6 5.8 6.3Zm36-106.7c0-21 .3-40 .3-50.7 0-1.1 1.1-1.7 3.4-1.7 18.5 0 28.8 7.8 28.8 29.1 0 23-14.7 26-29.1 26.6-2.2 0-3.4-1-3.4-3.3ZM312 50c0 23.9 12.2 40.3 28.3 53 19.7 15.5 42.7 25.5 42.7 42.4 0 12.2-6.6 19.2-17.2 19.2-13 0-17.7-14.7-17.7-29.4 0-4-2-6.1-5.8-6.4-9-.3-17.8-.3-26.7 0-3.8.3-6 2.2-6 6-1.2 37 17.1 64.1 57.9 64.1 30.8 0 53.8-19.1 53.8-49.3 0-46.6-31-57.1-48.8-72.4-18.6-15.5-22.2-19.1-22.2-33.2 0-7 3.9-13.9 11.4-13.9 13 0 15 10.5 15 21.9 0 3.9 1.9 6.1 5.7 6.4 9 .3 17.5.3 26.4 0 4.1-.3 6-2.5 6-6.4-1-35.8-16.3-56.3-49-56.3-35.7 0-53.8 18.9-53.8 54.4ZM463.4 194.8c10.3-.6 21-.6 31.3 0 4.2 0 6.4-2 6.4-6.1-.8-40-1.1-115-.6-136.7 0-4.4.3-8.9.3-13.6 0-2 1.1-3 3.3-3.3 7.8-.6 12.5-.8 21.4.8 4.4 1.1 7-1 6.6-5.2-.2-8-.2-16.1.3-24.2 0-3.6-1.4-6-5-6.9-33.2-7.2-69 6.4-96.2 2.8-4.1-.6-6.3 1-6 5.5.2 8.3.2 17-.3 25.3 0 3.8 1.9 6 5.8 6.3 11 .9 18.3-.5 23.3-1.6 2.2-.6 3.6.5 3.6 3 .3 48 0 115.6-.6 148 0 4 2.2 5.9 6.4 5.9Z" class="fill-current"/>
    <path fill="#941100" d="M551.3 195.3c10.5.3 20 .3 30.5 0 3.8-.3 6-2.5 6-6.4l-.5-55.7c0-2.2 1.1-3.3 3.3-3.3h2.3c2.2 0 3.3.8 3.6 3 5.2 44.7 34.3 60.8 63.7 62.7 22.5 1.4 83.7 0 103.1-.3 4-.3 5.9-2.2 6.1-6 .3-8.7.9-16.4.3-24.7-.3-4-2.8-6.1-6.6-5.9-30.8 2-72.7 4-98.7-.8-21.4-3.9-28.9-23.3-31.4-37.1-.2-2 .6-3.4 2-4.5a60.6 60.6 0 0 0 23.3-50.7c0-45-24.1-65.4-78.5-64.6-9.7.3-19.1 0-28.5 0-4 0-6.1 2.2-5.8 6 .8 37.8.8 150 0 182-.3 3.8 1.9 6 5.8 6.3Zm36-106.7c0-21 .3-40 .3-50.7 0-1.1 1.1-1.7 3.3-1.7 18.6 0 28.8 7.8 28.8 29.1 0 23-14.6 26-29 26.6-2.3 0-3.4-1-3.4-3.3Zm83.5-81.5c.5 17.7-.3 43.5 0 64.6.5 52.4 8.5 79.3 51.2 79.3 29.7 0 49.1-18.6 48.5-66.6-.5-24.6-1.3-58.2-1.3-77.3 0-3.9-2.3-6.1-6.1-5.8-7.5 0-17.2 0-25-.3-3.9 0-6 2.2-5.8 6 .3 17.6-.6 43-1.1 63.9 0 23.8 0 43-9.4 43-12.2 0-12.2-19.2-12.2-42.2 0-21-.6-46.9-.3-64.6.3-3.9-2-6.1-6.1-5.8-8 0-18.6 0-26.4-.3-4.1 0-6 2.2-6 6ZM790.8 195c9.7-.2 19.1-.2 28.8-.2l3.9.2h2.2c45-.8 76.5-13.8 76.5-54.8 0-21.7-8.6-37.2-19.1-43.6-2-1-2.2-2.5-.6-4.1a55.8 55.8 0 0 0 13.6-36c0-38-23.5-53-74-54.4l-31.3-.8c-3.9 0-6.4 2-6.1 5.8a5679 5679 0 0 1 0 181.8c-.3 4 2 6.1 6 6.1Zm37.4-85.3c18.9-.3 32.4 7.7 32.4 24.6 0 27-18.5 26.6-32.1 26.4-2.2 0-3.3-1.1-3.6-3.4-.3-10.8-.3-32.7 0-44.3 0-2.2 1-3.3 3.3-3.3Zm-3-31c-.3-14.5-.3-32.2.2-40.8 0-1.1 1.1-1.7 3.4-1.7 16-.6 27.1 2 27.1 20.5 0 23.9-11.6 27.2-27.7 25.2-2 0-3-1.3-3-3.3ZM1023.6 67.2c0-3.6 0-26.3-.5-49 0-11.4-2.5-17.2-6.4-17.2-8.6.3-17.7.3-26.3 0-3.9 0-6.1 2.2-6.1 6 .5 5.6 1 3.4.5 28.4 0 31.8 5.3 57.6-14.1 57.6-16.4 0-14.7-26-14.7-56.8 0-26.9 0-20 .6-28.6.5-4.4-1.7-6.6-5.9-6.6-9.4.3-19.4.3-28.2 0-4.2 0-6.1 2.5-6.1 6.6.8 12.2-.3.6 0 28.6.8 62.1 6.6 96.2 52.6 96.2a12 12 0 0 0 5.9-1.4c2.4-1.1 4.4 0 3.8 2.8-4.4 29.4-28.8 29.6-53.2 19.1-4.1-2-7.2-.3-7.5 4.4-.5 10-.3 16.7.3 27.5.3 3.6 2 5.8 5.3 6.6 65.4 18.9 100-15 100-124.2Z" style="fill:#941100"/>
    <path d="M1049.1 195.3c10.9.3 21.4.3 32 0 3.8-.3 6-2.2 6-6-.3-18.1-.3-48.6-.3-78.3 0-2.2 1.2-3.3 3.4-3.3 8.3-.3 16.6-.5 25-.3 3.8.3 6-1.9 6.3-5.8.3-7 .3-11.6 0-18.3-.3-4.1-2.5-6-6.4-6-8.6.5-16.6.8-25 .5-2.1-.3-3.3-1.7-3.3-3.6V42.3c0-2 1.2-3.3 3.4-3.6 14.7-.6 29-.6 43.8 0 3.9.3 6-2 6.3-5.8.3-8.6.3-17.2 0-25.8-.2-3.9-2.4-6.1-6.3-5.8-28.3.5-56.3.5-84.6 0-4.1-.3-6.4 2-6 5.8.8 46.3 1 145.5 0 181.8-.4 4 1.9 6.1 5.7 6.4ZM1157.3 195.3c10.5.3 20 .3 30.5 0 3.8-.3 6-2.5 6-6.4l-.5-55.7c0-2.2 1.1-3.3 3.3-3.3h2.2c2.3 0 3.4.8 3.6 3 5.3 44.7 34.4 60.8 63.8 62.7 19.1 1.1 37.4.3 46.3-.3 3.9 0 5.8-2.2 6.1-6 .3-8.4.8-15.6.3-23.6-.3-4-2.5-6.1-6.1-6.1-10 .2-18.9 2.5-42.4-1.7-21.4-3.9-28.9-23.3-31.4-37.1-.2-2 .6-3.4 2-4.5a60.6 60.6 0 0 0 23.3-50.7c0-45-24.2-65.4-78.5-64.6-9.7.3-19.1 0-28.5 0-4 0-6.1 2.2-5.9 6 .9 37.8.9 150 0 182-.2 3.8 2 6 5.9 6.3Zm36-106.7c0-21 .3-40 .3-50.7 0-1.1 1-1.7 3.3-1.7 18.6 0 28.8 7.8 28.8 29.1 0 23-14.7 26-29 26.6-2.3 0-3.4-1-3.4-3.3Zm89.3 58.8c9.4.2 18.5.2 28 0 3.8-.3 6-2.3 6-6.4-.8-34.4-.8-102.6-.2-134.2.3-3.9-2-5.8-5.8-6-9.5-.4-18.6-.4-28 0-4 .2-6.1 2.4-5.9 6.3.6 31.3.6 99.5-.2 133.9 0 3.9 2.2 6 6 6.4ZM1339.1 194.8c27.7-.6 52.4-.6 80.1 0 4 .2 6.1-2 6.4-5.9.3-8.5.3-17.1 0-25.7-.3-4-2.5-6.1-6.4-5.9-13.6.6-25.2.9-39 .3-2.3-.3-3.4-1.6-3.4-3.6v-40.2c0-2 1.1-3.3 3.3-3.3 8.4-.3 16.4-.6 24.7-.3 3.9.3 6.1-2 6.4-5.8.3-7 .3-11.6 0-18.3-.3-4.2-2.5-6.1-6.4-6.1-8.3.6-16.6.8-25 .6-2.2-.3-3.3-1.7-3.3-3.6V42.3c0-2 1.1-3.3 3.4-3.6 14.7-.6 29-.6 43.8 0 3.8.3 6-2 6.3-5.8.3-8.6.3-17.2 0-25.8-.2-3.9-2.5-6.1-6.3-5.8-28.3.5-56.3.5-84.6 0-4.1-.3-6.4 2-6 5.8a5672 5672 0 0 1 0 181.8c-.4 4 1.9 6.1 6 5.9ZM1517.6 195.9c7 0 15.6-.3 25.3-.6 5.5-.3 8.3-2.2 8.3-6-.6-46-.6-140.9 0-182.5 0-3.9-2-6-5.8-6-8-.4-18-.4-26.1 0-4.2.2-6.1 2.1-6.1 6 .3 18.9.6 48.3.3 79.3 0 3-2.8 3.6-3.6.6-8-28.3-17.2-56.9-25.8-85.1v-.3l-6.1-.6c-8.6 0-17.7-.3-27.2 0-3.9.3-6 2.2-6 6.1.5 41.6.5 136.4 0 182.4 0 3.9 1.9 6.1 5.8 6.1 8.5.3 19.4.3 27.4 0 4.2-.3 6-2.2 6-6-.2-22.8-.5-57.5-.2-91.8 0-2.5 3.3-3 3.9-.9 8.9 31.4 17.2 62.4 23.6 93.7.8 3.6 2.7 5.3 6.3 5.6ZM1577.8 195.3c10.5.6 23.6.9 38.8-.3 59.6-4.7 79.8-44 79.8-93.7 0-46.5-14.4-95-88.7-100-15.2-1.1-13-1.1-29.6-.6-4.2.3-6.4 2.5-6.1 6.4.8 37.4 1 149.1 0 182.1-.3 3.9 1.6 6.1 5.8 6.1Zm37.4-39.3c-.3-38.9 0-91.8.3-114.5 0-1.4 1.1-2 3.3-2 29.1 2 37.2 38.6 37.2 61.8 0 31.6-11.7 55-37.5 58-1.9.3-3.3-.8-3.3-3.3Z" class="fill-current"/>
  </g>
  <g stroke="none" stroke-width="1" fill="url(#linear)">
    <path d="m1805 4 123 .2c6.3 0 12.3 2.5 16.7 6.9l41 41a23.5 23.5 0 0 1-.1 33.3l-103 102.2c-9.2 9.1-24 9.1-33.2 0L1746.3 86c-9.3-9.1-9.4-24-.3-33.3l.2-.2 42.1-41.7A23.5 23.5 0 0 1 1805 4Zm96.4 44-12.8 1v7l-14 1.3.4 9.6h13.6v30h-15.5v11h41.1l1-11h-13.8ZM1845.5 58h-12V74h-14.8V85h14.9V101h12V85h14.8V74h-14.9Z" fill-rule="nonzero" />
  </g>
  <g stroke="none" stroke-width="1" fill="url(#radial)">
    <path d="m1805 4 123 .2c6.3 0 12.3 2.5 16.7 6.9l41 41a23.5 23.5 0 0 1-.1 33.3l-103 102.2c-9.2 9.1-24 9.1-33.2 0L1746.3 86c-9.3-9.1-9.4-24-.3-33.3l.2-.2 42.1-41.7A23.5 23.5 0 0 1 1805 4Zm96.4 44-12.8 1v7l-14 1.3.4 9.6h13.6v30h-15.5v11h41.1l1-11h-13.8ZM1845.5 58h-12V74h-14.8V85h14.9V101h12V85h14.8V74h-14.9Z" fill-rule="nonzero" />
  </g>

</svg>