<svg viewBox="0 0 395 200"
  xmlns="http://www.w3.org/2000/svg">
  <g>
    <path d="M80 193.5c6.6 0 14.8-.3 24-.6 5.2-.2 7.9-2 7.9-5.7-.6-43.6-.6-133.5 0-172.9 0-3.6-1.9-5.7-5.6-5.7-7.6-.3-17-.3-24.6 0-4 .2-5.8 2-5.8 5.7.2 17.9.5 45.7.2 75.2 0 2.8-2.6 3.4-3.4.5C65.1 63.2 56.4 36 48.3 9.3v-.2l-5.8-.5c-8.1 0-16.8-.3-25.7 0-3.7.2-5.8 2-5.8 5.7.5 39.4.5 129.3 0 172.9 0 3.6 1.8 5.7 5.5 5.7 8.2.3 18.4.3 26 0 4-.2 5.8-2 5.8-5.7-.3-21.6-.5-54.4-.3-87 0-2.3 3.2-2.9 3.7-.8 8.4 29.7 16.3 59.1 22.3 88.8.8 3.4 2.7 5 6 5.3ZM180.7 197.7c33 0 54.3-27 54.3-93.3 0-69.6-21.2-100.6-54.3-100.6-31.3 0-53 31-53 100.6 0 66.2 21.7 93.3 53 93.3Zm-16-94.6c0-36.8 5-62 17.5-62 13 0 17.1 25.2 16.9 62-.6 40.2-5 62.3-16.9 62.3-13.3 0-17.6-22.1-17.6-62.3ZM334.8 192.7h19.5c3.4 0 5.5-1.6 6.3-5.3C366 154.6 381 46.6 384.7 14.6c.6-3.7-1.3-5.8-5.5-6-6-.3-8.4-.3-14.7 0-3.7.2-5.8 1.8-6.3 5.5l-9.7 73c-.3 2.9-3.2 2.9-3.4 0-4.2-26-8.2-51.5-10.8-73-.5-3.4-2.9-5.3-6.3-5.3h-4.5c-7.6 0-9.7-.2-15 0-3.6 0-5.7 1.9-6 5.5-1.8 21.6-5 48.1-9.2 76.7-.2 2.7-2.8 3-3.4 0l-11.8-77c-.5-3.6-2.6-5.2-6-5.4-9.2-.3-17.9-.3-27 0-4 .2-5.9 2.3-5.3 6.3A6037 6037 0 0 1 266 187.4c.6 3.4 3 5.3 6.3 5.3h19.2c3.4 0 5.5-1.6 6-5.3l13.7-91.1c.5-2.6 3.2-2.6 3.7 0l13.9 91.1c.5 3.7 2.6 5.3 6 5.3Z" class="fill-current"/>
  </g>
</svg>