<svg xmlns="http://www.w3.org/2000/svg" viewBox="0 0 1350 200">
  <path class="fill-current" d="M55.3 198.7c33.8 0 55.5-27.6 55.5-95.2C110.8 32.5 89.1 1 55.3 1c-31.8 0-54 31.6-54 102.6 0 67.6 22.2 95.2 54 95.2ZM39 102.2C39 64.7 44 39 57 39S74.4 64.7 74 102.2c-.5 41-5 63.5-17.1 63.5-13.7 0-18-22.5-18-63.5ZM195.7 194.4c6.7 0 15-.3 24.4-.6 5.4-.2 8-2.1 8-5.9-.5-44.4-.5-136 0-176.2 0-3.8-1.8-6-5.6-6-7.7-.2-17.4-.2-25.2 0-4 .3-5.9 2.2-5.9 6 .3 18.2.6 46.6.3 76.6 0 3-2.7 3.5-3.5.5-7.7-27.3-16.6-55-24.9-82.2v-.3l-5.9-.5c-8.3 0-17.1-.3-26.2 0-3.8.2-6 2.1-6 5.9.6 40.1.6 131.8 0 176.2 0 3.8 2 6 5.7 6 8.3.2 18.7.2 26.5 0 4-.3 6-2.2 6-6-.4-22-.6-55.4-.4-88.6 0-2.5 3.3-3 3.8-.8 8.6 30.2 16.6 60.2 22.8 90.5.8 3.5 2.6 5.1 6.1 5.4ZM254.1 193.3c26.8-.5 50.7-.5 77.5 0 3.7.3 5.9-1.9 6.1-5.6.3-8.3.3-16.6 0-25-.2-3.7-2.4-5.8-6.1-5.6-13.2.6-24.4.8-37.8.3-2.2-.3-3.2-1.6-3.2-3.5v-38.8c0-2 1-3.3 3.2-3.3 8-.2 15.8-.5 23.8-.2 3.8.2 6-1.9 6.2-5.6.3-6.7.3-11.3 0-17.7-.3-4-2.4-6-6.2-6-8 .6-16 .9-24 .6-2.2-.3-3.3-1.6-3.3-3.5V46c0-1.8 1-3.2 3.2-3.4 14.2-.6 28.1-.6 42.3 0 3.8.2 6-2 6.2-5.7.3-8.3.3-16.6 0-24.9-.3-3.7-2.4-5.9-6.2-5.6-27.3.5-54.3.5-81.7 0-4-.3-6.1 1.9-5.9 5.6.8 44.8 1.1 140.4 0 175.8-.2 3.7 2 5.9 6 5.6Z"/>
  <path fill="#9b111e" d="M378.7 193.8c10.2.3 19.3.3 29.5 0 3.8-.2 6-2.4 6-6.1-.4-11-.4-31.4-.6-53.9 0-2.1 1-3.2 3.2-3.2h2.1c2.2 0 3.2.8 3.5 3 5.1 43 33.2 58.6 61.6 60.5 21.7 1.3 81 0 99.7-.3 3.7-.2 5.6-2.1 5.9-5.9.3-8.3.8-15.8.3-23.8-.3-3.8-2.7-5.9-6.5-5.6-29.7 1.8-70.2 3.7-95.3-.8-20.7-3.8-28-22.5-30.3-36-.3-1.8.5-3.2 1.9-4.2a58.6 58.6 0 0 0 22.5-49c0-43.5-23.3-63.3-75.9-62.5-9.3.3-18.4 0-27.6 0-3.7 0-5.8 2.2-5.6 6 .8 36.4.8 144.9 0 175.7-.2 3.7 1.9 5.9 5.6 6.1Zm34.9-103.1.2-49c0-1.1 1.1-1.7 3.3-1.7 18 0 27.8 7.6 27.8 28.2 0 22.2-14.2 25.2-28.1 25.7-2.2 0-3.2-1-3.2-3.2Zm80.6-78.8c.6 17.2-.3 42 0 62.4.6 50.7 8.3 76.7 49.6 76.7 28.6 0 47.4-18 46.9-64.3-.6-23.9-1.4-56.3-1.4-74.8 0-3.7-2.1-5.9-5.9-5.6-7.2 0-16.6 0-24-.3-3.8 0-6 2.2-5.7 6 .3 16.8-.5 41.4-1 61.5 0 23 0 41.6-9.2 41.6-11.8 0-11.8-18.5-11.8-40.8 0-20.3-.5-45.2-.2-62.4.2-3.7-2-5.9-6-5.6-7.7 0-17.9 0-25.4-.3-4 0-5.9 2.2-5.9 6ZM610.2 193.6c9.4-.3 18.5-.3 27.9-.3 1.3 0 2.4.3 3.7.3h2.2c43.4-.8 74-13.4 74-53 0-21-8.4-36-18.6-42.1-1.8-1.1-2.1-2.5-.5-4A54 54 0 0 0 712 59.5c0-36.7-22.7-51.2-71.5-52.5l-30.3-.8c-3.7 0-6.1 1.9-5.9 5.6.8 36.5 1.1 143.9 0 175.8-.2 3.7 1.9 5.9 6 5.9Zm36.2-82.6c18.2-.2 31.3 7.5 31.3 23.9 0 26-18 25.7-31 25.4-2.2 0-3.3-1-3.5-3.2a1143 1143 0 0 1 0-42.8c0-2.2 1-3.3 3.2-3.3Zm-3-30c-.2-13.9-.2-31 .3-39.3 0-1.1 1-1.7 3.2-1.7 15.6-.5 26.3 2 26.3 19.9 0 23-11.3 26.2-26.8 24.4-1.9 0-3-1.4-3-3.3ZM835.3 70c0-3.4 0-25.4-.6-47.4 0-11-2.4-16.6-6.1-16.6-8.3.3-17.2.3-25.5 0-3.7 0-5.9 2.2-5.9 6 .6 5.3 1 3.1.6 27.2 0 30.9 5 55.8-13.7 55.8-15.8 0-14.2-25.2-14.2-55 0-26 0-19.2.5-27.5.6-4.3-1.6-6.5-5.6-6.5-9.1.3-18.8.3-27.3 0-4 0-6 2.4-6 6.5.9 11.7-.2.5 0 27.5.9 60 6.5 93 51 93 2.4 0 4-.5 5.6-1.3 2.4-1.1 4.3 0 3.8 2.7-4.3 28.4-27.9 28.6-51.5 18.4-4-1.8-7-.2-7.2 4.3-.5 9.7-.3 16.1.3 26.5.2 3.5 1.8 5.7 5 6.5 63.3 18.2 96.8-14.5 96.8-120Z" />
  <path class="fill-current" d="M899.8 193.3c9.9-.5 20.3-.5 30.2 0 4 0 6.2-1.9 6.2-5.9-.8-38.6-1-111.2-.5-132l.2-11c0-2 1.1-3 3.2-3.3 48-4.3 78.3-3.5 95.2-.8 4 .6 6.1-1.3 5.8-5.6-.2-7.8-.2-15.3.3-23.3 0-3.5-1.3-6-4.8-6.7-38-7.2-132.6 6.7-167 2.4-4-.3-6 1.3-5.8 5.6.3 8 .3 16.4-.3 24.4 0 3.8 1.6 6.2 5.4 6.4 8.6 1.1 17.4.6 22.8-.2 2.1-.3 3.4.8 3.4 3 .3 46.3 0 110.3-.5 141.4 0 3.7 2.1 5.6 6.2 5.6Zm55.4.5c7.8.3 16.6.3 24.4 0 3.5-.2 5.4-2.1 5.4-5.9-.3-11.2-.3-30.5-.3-51.4 0-2.1 1-3.2 3.2-3.2 4.3-.3 8.6-.3 12.9 0 2.1 0 3.2 1 3.2 3.2 0 20.9-.3 40.2-.6 51.4 0 3.8 2.2 6 6 6 7.4.2 16 .2 23.8 0 3.7-.3 5.9-2.2 5.9-6-.6-27-.6-102.3 0-130.2 0-3.7-2.2-5.9-6-5.9-7.4-.2-16.3-.2-23.8 0-3.7 0-5.9 2.2-5.6 6 0 10.1.3 26.7.3 44.7 0 2.1-1 3.2-3.2 3.2-4.3.3-8.6.3-12.9 0-2.1 0-3.2-1-3.2-3.2 0-18 0-34.6.3-44.8 0-3.7-2.2-5.9-6-5.9-7.4-.2-16.3-.2-23.8 0-3.7 0-5.9 2.2-5.9 6 .6 27.8.6 103.3 0 130.1 0 3.8 2.2 5.7 6 6ZM1090.8 5.8c-10.5-.3-20.6-.3-30.8 0-3.8.2-6 2.1-6 5.9.9 40.1.9 131.8 0 176.2 0 3.8 2.2 5.7 6 6 10.2.2 20.3.2 30.8 0 3.7-.3 5.9-2.2 5.9-6.2a6423 6423 0 0 1 0-176c0-3.8-2.2-5.7-6-6ZM1187 194.4c6.7 0 15-.3 24.3-.6 5.4-.2 8-2.1 8-5.9-.5-44.4-.5-136 0-176.2 0-3.8-1.8-6-5.6-6-7.7-.2-17.4-.2-25.1 0-4 .3-6 2.2-6 6 .3 18.2.6 46.6.3 76.6 0 3-2.6 3.5-3.4.5-7.8-27.3-16.7-55-25-82.2v-.3l-5.9-.5c-8.3 0-17.1-.3-26.2 0-3.8.2-5.9 2.1-5.9 5.9.5 40.1.5 131.8 0 176.2 0 3.8 1.9 6 5.6 6 8.3.2 18.8.2 26.5 0 4-.3 6-2.2 6-6-.3-22-.6-55.4-.3-88.6 0-2.5 3.2-3 3.7-.8 8.6 30.2 16.6 60.2 22.8 90.5.8 3.5 2.7 5.1 6.2 5.4ZM1345.3 64.4c-4.3-44.2-29-63.5-52.8-63.5-30.3 0-57 23.9-57 102.4 0 69.9 26.5 94.8 55.7 94.8 30.5 0 56-17.7 55.4-102 0-4.3-2.1-6.5-5.9-6.2-14.7.2-28.9.2-43.4 0-3.7-.3-5.9 1.9-6.1 5.6-.3 6.7-.3 12 0 18.5.2 4 2.4 5.9 6.1 5.9h10.8c1.8 0 3.2 1 3.2 3.2 0 18.8-4 37.2-17.4 37.2-13 0-20.7-17.6-20.7-57 0-44.8 6.7-63.3 20.1-63.3 8.9 0 13.7 11.3 15 25 .3 3.7 2.2 5.6 6 5.9 8.5.2 17 .2 25.6 0 3.8-.3 6-2.5 5.4-6.5Z"/>
</svg>