<svg width="1000" height="500" xmlns="http://www.w3.org/2000/svg">
  <path fill="#231f20" d="M924.9 479.9h-2c-12.8-2-25.5-4.5-36.7-11-4-2.4-7-6-10.1-9.6-4-4.6-24.8-34-28.3-38.6l-.8-1c-.5-.7-3.3-2.2-2.8-1.3.8 1.6 1.7 3.1 1.6 5 0 2.3-.8 4.3-2.4 5.9-1.5 1.5-3.7 2-5.9 2.3-5 1-41.5 1-46.6 0-2.3-.4-4.2-1-6-2.3-.5-.5-.8-1.2-1.2-1.7L771 410.2c-.4-.5-.5-1.3-1-1.3-4.5 0-5.1 7.6-8.6 10.5a48 48 0 0 1-17 9.9c-13.6 4.1-28 5-42 2.5A45.8 45.8 0 0 1 684 424c-5-3.5-9-8-12.6-13.2l-1.3-1.8-16.2-22c-.4-.6-.5-1.9-1.1-1.6-9 3.7 3.6 20.5 4.6 29 .1.6.3 1.2.2 1.9-.3 2.8-1.3 6.2-3.5 9.8-2.4 4-5.7 8.2-10.4 11.3a91.8 91.8 0 0 1-43 13.7 65.3 65.3 0 0 1-29.5-4.9 88.1 88.1 0 0 1-27.8-19.9c-6-5.8-28.5-39.1-32.7-44.8l-2.1-3c-.3-.3-.4-.8-.8-1-1-.5-9-.4-10 0-4 1.5-6 6-9.6 8.3-6.3 3.9-13.8 7.2-22.3 9.4-9.5 2.6-20.2 3.8-32 3.8-14.3 0-27.7-1-39.4-5a172.7 172.7 0 0 1-55.1-32c-6.9-5.7-11.8-13.3-17.3-20.3-4-5-7.4-10.2-11.2-15.3l-2.5-3.4-8.5-11.8-3.3-4.4c-.6-.8-.9-1.9-1.7-2.3-9.8-4.8-90.5 7.9-98 0v-.2c-2.6-2.7-29.7.7-33.3 0-3.3-.6-6.3-1.7-9-3.6-.5-.4-.8-1-1.2-1.4l-1.7-2.3-.4-.5C146.5 291 121 255 117 249.2l-.5-.7-.6-.6c-.9-1-1.6-2-2.3-3l-.5-.8-.9-1.3c-.6-.8-1.2-1.5-1.7-2.4-1.6-2.9-3.6-5.6-3.6-9 0-3.3 5-5.8 3.5-8.6-2.4-4.2-9.8-.4-14.3-2.4A94.6 94.6 0 0 1 67.3 199l-1.6-2.1L63 193l-1-1.5c-3.7-5.4-30.5-41.6-34.6-47.3l-1.4-2c-1.7-2.6-3.9-5.1-5.1-8.2a57.1 57.1 0 0 1-5.5-27.5c2-16.8 9.4-32 21-44.3 7-7.3 17.4-11.7 28.6-15.4 12.5-4 27-5 43.1-6 11.3-.9 90.6-.4 102 0 12.4.3 24.3 0 35.4 2 10.4 1.7 20 3.8 28.1 8.2a63.8 63.8 0 0 1 16 13.3l3 4c4.8 6.7 31.9 55.4 40.1 55.1 1.6 0 1.5-2.9 2.7-4.1a66.8 66.8 0 0 1 23.3-16.2c14.4-5.7 30.3-5.7 45.8-6.7l11.8.2c10.7 1.2 21.6 2 31.3 6.5a72.7 72.7 0 0 1 20.8 16.2l.4.6 40.7 55.9 2.2 3c2 3 4.2 5.8 5.4 9.2 2.4 6.5 9.5-42.2 9-43-.4-.3-.7-.7-1-1.2-1-1.5-13.3-17.9-14-19.4-1.4-2.5-3.4-5-2.9-7.9 1.3-6.1 5.7-9.8 12.6-13.8 6.3-3.5 18.3 2.2 21.2-4.4.1-.3-.3-.5-.4-.7l-.2-.3-.8-1-.2-.4c-1-1.1-1.8-2.3-2.7-3.5l-12.3-16.9-.1-.2-.8-1.1-1.4-2-1.4-1.8c-2.5-5.1-9-11.1-5.6-15.9h.2c3.6-2.8 1-8.8 3-12.4 1.9-3.3 5-6 8.2-8 3.5-2.3 7.5-4 11.8-4.8 9.1-1.7 18.5-1.7 27.6 0a31.6 31.6 0 0 1 17.8 10.1c.9 1 1.6 2 2.3 3l.8 1.2L619 86.5l.3.3.8 1.2c1.1 1.5 18.5-3.5 17.2-7.8l-1.3-1.6-1.2-1.6-.7-.9c-.6-.8-13.2-18-14-19.3-.3-.4-.7-.8-.9-1.3-1-2.4-2.8-4.8-2.2-7.5 1.4-6 5.6-10 12.6-13.8 13.7-7.1 30.5-6.3 46-6 3.4 0 6.2.3 8.5 1.3 2.2 1 4 2.6 5.5 4.4.2.2 39.6 53.3 44 60.4 1.1 2 2.2 3.8 2.9 5.9.6 2 .6 4 .8 5.9 0 1.1 7 3.8 11.2 1.4A66.3 66.3 0 0 1 770 99c20.5-3.5 41.4-2.7 61.6 2a67 67 0 0 1 21.9 9.8c3.2 2.1 5.6 4.8 7.7 7.1 1.2 1.3 2 2.6 3 3.9 5.4 7.5 41.8 53.4 44.8 63.2a18 18 0 0 1-.4 11.8 19.5 19.5 0 0 1-7.9 8.9c-3.2 2.1-7 3-10.8 3.5h-.3c-.6 1.2 9.6 13.3 10.2 14.2.6.9 1 2.1 1.9 2.5 4.8 2 10.5-2.3 16.7-2.3 7.1 0 13.5.7 18.7 2.4a39 39 0 0 1 11.8 6.3c1.4 1 2.5 2.3 3.6 3.6 5.9 7.1 42.1 54.7 46.2 64.3 1.2 2.8 1.8 5.8 1.6 8.4-.2 3.3-1 6.8-3.1 9.3a18 18 0 0 1-11.3 5.5c-2.6.4-5.7-3-7.2-1.2a3505.2 3505.2 0 0 0 11 15.3l.2.3a7 7 0 0 1 1 2.5c.2 1 .2 8.8 0 9.9-.2.9-.4 1.9-1 2.5-.6.6-1.3.8-2.4 1-1.6.3-13.3-.3-15 0-.9.2-1.7.2-2.3.8-.6.6-.8 1.4-1 2.3-1 5-1.4 40.5 0 45.4.1.4.5.7.7 1 .2.4 10.3 14 10.6 14.7 1 1.7 2.1 3.4 2.1 5.5 0 2.3-1 4.3-2.6 5.9-1.5 1.5-3.7 2-5.9 2.3-1.8.4-15.8-1.6-16.7 0v.2l8 11c.9 1.3 2 2.5 2.4 4 1.3 5.1 1 10.5-1 15.4-.8 2.2-2.7 4.2-5 6.3a32.5 32.5 0 0 1-9.3 5.5c-8.9 3.4-18.2 5-27.6 5.9Zm-36.2-139c2.8-1 .7-23.7 0-26.6-.1-.5-.4-1-.7-1.4a5 5 0 0 0-.6-1l-.5-.3-.7-1.2-.2-.4-.7-1-.5-.4c-.3-.3-.4-.8-.6-1.1l-.2-.2c-3 1.4.7 26.5 1.8 29.7.2.6.8 1 1.1 1.5l1 1.4.3.4c.2.3.3.8.5.7ZM342.3 169c1.5.8 3-2 4.5-3 .7-.4 1.9-.3 2-1 .1-.2-.1-.4-.2-.5l-1.4-2-1.5-2-1.6-2.1c-.3-.5-.5-1.5-1-1.3-.4.1 0 .8 0 1.3-.1 3.6-3.7 8.7-.8 10.5Zm-215-32.5c1-.3.8-7.6 0-8.2-1.3-1-4.2-.2-4.8 1.4-.1.3.4.5.6.8l.6.7 3 4.4c.2.3.3 1 .7.9Zm100.7-7.3c1 .8 3.4-1.5 2.7-2.5-.5-.6-1.4.6-2 1.1-.3.4-1.2 1-.7 1.4Z"/>
  <path fill="#ffcd00" d="M444 275.6c3.8 2.3 6.6 5.3 8.5 9.2 2 4 2.6 8.3 2 12.8a32 32 0 0 1-5.1 14c-3.5 5.2-8 9.6-13.4 13-5.9 4-13.2 7.3-22.2 9.6a145.5 145.5 0 0 1-71.5-1.2 141.8 141.8 0 0 1-30.9-13.2c-9-5.5-17.1-11.8-24-19a202 202 0 0 1-33.5-45.3c-4-7.4-8-14.7-12.2-22-6.3-11-11.8-21.1-17-30l-6.6-11-5.9-9.8-4.3-7.5-2.2-3.6c-2-2.3-4.3-4.7-7.5-7a20 20 0 0 0-12.4-3.6h-5.5c-1.3 0-2.5.4-3.5 1.6-1 .6-1.6 2-1.6 3.5v39.2c0 5.1 2.4 8.8 7.1 11.4l2.6 1 2 1.2 1.7.8c4.7 2.5 7 6.3 7 11.2a12.4 12.4 0 0 1-12.7 12.6h-71A12.4 12.4 0 0 1 99 230.9c0-5 2.4-8.7 7-11.2l6.4-3c4.4-2 7.2-6.5 7.1-11.4v-127c0-2.3-.8-4.7-2-6.7-1.3-2-3.1-3.5-5.3-4.5a10 10 0 0 0-5.5-1.6c-8.2-.2-16.4 0-24.6.6a47 47 0 0 0-16.3 4.6A37.7 37.7 0 0 0 52 81.3a29.5 29.5 0 0 0-5.9 19.5c0 3.3.6 6.7 2 10 1.5 3.6 4.7 5.3 9.8 5.3 2.5.1 5-.5 7-2 1.7-1.3 3.4-2.7 5-4.5 1.6-1.5 3.6-3 6-4.3a21 21 0 0 1 10.2-2c4.9 0 9.6 2 13.7 6 4.2 3.7 6.3 9.8 6.3 18.2 0 4.8-1 9.1-3.1 13.2a32.4 32.4 0 0 1-9.3 10.9c-4 3.1-8.6 5.5-14.1 7.2-18.1 6-38 2.7-53.2-8.6A51.2 51.2 0 0 1 12.8 133c-4-8.6-5.8-18-5.5-27.4a58 58 0 0 1 21-44.3 92.1 92.1 0 0 1 28.8-15.3c11.8-4 26-6 43-6h102c12.9 0 24.7.6 35.5 2a75 75 0 0 1 28 8.3c7.8 4 14.3 9.8 18.7 17.3a56.5 56.5 0 0 1 6.8 29.5c0 7.3-1.1 13.6-3.1 19a42.7 42.7 0 0 1-21 23.2c-5 2.5-10 4.5-15.6 6-1.2.5-1.8 1.2-1.8 2 0 1.2.4 2 1.6 2.8 4.7 2.1 8.8 5.3 12.2 9.4l10.2 12.8c3 3.8 6.5 9.7 10.9 17.7l14.7 27.2a787 787 0 0 0 18.1 31.5 270.3 270.3 0 0 0 20.3 29.7c7 9 14.4 16.7 21.8 22.8a41.5 41.5 0 0 0 23 9.9c3 0 6.4 0 10.5-.4 4-.2 7.5-1.8 10.2-4.5a20 20 0 0 0 4.8-6.3l2-5.7 1.5-6c.6-2 1.8-4.3 3.6-7 1.9-3 4.6-5.4 7.8-7 6.9-3 14.8-2.5 21.3 1.3ZM183 135.4c6.4 0 12.3-.2 18-.6 5.9-.4 10.8-1.5 15.2-4 4-1.9 7.6-5.4 10-10.3a44.2 44.2 0 0 0 3.7-20.5c0-8.9-1.3-15.4-3.9-19.9-2.4-4.7-6-8-10.2-10.2a38.8 38.8 0 0 0-14.8-4c-5.5-.4-11-.6-16.7-.6h-4c-1.5 0-2.7.6-3.5 1.6-1 1-1.4 2.2-1.4 3.6v59.8c0 3.3 1.6 5.1 5 5.1h2.7Z"/>
  <path fill="#231f20" fill-rule="evenodd" d="M248.6 258.4c-4-7.3-8.2-14.6-12.4-21.8l-1.5-3a5454.9 5454.9 0 0 0-24-41.5l-4-6.5-4-6.9a388 388 0 0 0-1.9-3.5 37.6 37.6 0 0 0-6.3-6 13.8 13.8 0 0 0-8.7-2h-4.3V205c0 1.6.4 2.6 1 3.3a6 6 0 0 0 2.6 2.4l1 .4 1.3.6 2.6 1.4c.2 0 .4.2.6.4l1 .4a18.5 18.5 0 0 1 10.4 16.7 18.7 18.7 0 0 1-19.3 18.9h-70.9a18.7 18.7 0 0 1-19-19c-.2-7.1 3.9-13.7 10.4-16.8l6.3-3c1.5-.8 2.3-1.6 2.7-2.4.6-.7 1-2 1-3.3V78.3a5.9 5.9 0 0 0-3.5-5.5l-.8-.4c-.8-.5-1.7-.8-2.6-.8-7.9 0-15.7.2-23.6.8-5 .6-9.8 2-14.4 4a34 34 0 0 0-11.8 8.8 24.4 24.4 0 0 0-2.5 23.3l.8.7a6 6 0 0 0 3 .6c2.3 0 3-.6 3.5-.6l3.9-3.9c2.2-2 4.7-4 7.5-5.5C76.6 97.8 81 97 86 97a27 27 0 0 1 17.9 7.3c6 5.5 8.4 13.8 8.4 23.2 0 5.8-1.2 11-4 16.2-2.6 5-6.2 9.3-10.7 12.8a55 55 0 0 1-16.2 8.4 65 65 0 0 1-58.8-9.8 57.5 57.5 0 0 1-15.4-19.3A66 66 0 0 1 1 106c.1-19 8.6-37 23.2-49.2 9.1-7.4 19.5-13 30.6-16.5 12.6-4.4 27.5-6.5 45.2-6.5h102c13 0 25 .7 36 2a92.7 92.7 0 0 1 30.3 9c9 4.7 16.2 11.2 21.3 19.7a63 63 0 0 1 7.6 32.8c0 8-1.1 15-3.5 21.1a49 49 0 0 1-23.8 26.6c-3 1.5-6 2.7-8.9 3.9 2.7 2 5.2 4.3 7.3 6.9l10.2 12.8c4.4 5.9 8.2 12.1 11.5 18.7l14.7 27 17.7 31.2a342.7 342.7 0 0 0 20.1 29.2c7 8.6 13.8 15.7 20.9 21.6a35.4 35.4 0 0 0 19.3 8.7l9.8-.4a9.3 9.3 0 0 0 6.1-2.8c2-2.1 3-3.5 3.4-4.3l1.7-5 1.6-5.8c.8-3 2.4-6 4.3-9 2.6-4 6.2-7.1 10.5-9.1a29.5 29.5 0 0 1 38.2 13.4 30.5 30.5 0 0 1 2.5 16.1c-.7 6-2.8 11.7-6 16.7-4 6-9.2 11.1-15.2 15a81.8 81.8 0 0 1-24 10.4 151.6 151.6 0 0 1-74.9-1.2 119.9 119.9 0 0 1-57.8-33.8 208 208 0 0 1-34.3-46.9Zm38.8 42.4c15 15.8 34 27 55.1 32.2 23.3 6.3 47.8 6.7 71.3 1.2 9-2.3 16.5-5.7 22.2-9.6 6-4 10.4-8.3 13.4-13a32 32 0 0 0 5.1-14c.6-4.4-.1-8.8-2-12.8a22.6 22.6 0 0 0-29.9-10.4c-3.2 1.5-6 3.9-7.8 6.9a27.6 27.6 0 0 0-3.4 7.3l-1.6 5.9c-.5 1.8-1.2 3.7-2 5.5-.7 2-2.3 3.9-4.7 6.3a15.7 15.7 0 0 1-10.2 4.5l-10.4.6c-7.9-.6-15.4-4-23-10a143.3 143.3 0 0 1-21.9-22.9c-7-8.8-13.8-18.9-20.3-29.5l-18-31.5-2-4-12.8-23.6a124 124 0 0 0-21.1-30c-2.8-3.3-6.1-6-9.8-8.1l-2.4-1.4c-1.2-.8-1.8-1.6-1.6-2.6 0-1 .6-1.8 2-2a86.4 86.4 0 0 0 15.3-6.2c9.7-4.9 17.1-13.2 20.9-23.3a55 55 0 0 0 3.1-18.9c0-12.2-2.3-22-6.8-29.5a45.9 45.9 0 0 0-18.7-17.3c-8-4.1-17.4-7.1-28.2-8.3-10.6-1.4-22.4-2-35.4-2H100c-16.9 0-31.3 2-42.9 6a90 90 0 0 0-28.7 15.3A57.5 57.5 0 0 0 7 106c0 11 2 20.3 5.5 27.4A48.6 48.6 0 0 0 44 159a63 63 0 0 0 35.5-.4 48 48 0 0 0 14.1-7.2 29.6 29.6 0 0 0 12.4-24c0-8.5-2-14.6-6.3-18.6-4.1-3.9-8.8-5.7-13.7-5.7-4.6 0-8 .6-10.3 2a28.7 28.7 0 0 0-5.9 4.3c-1.6 1.8-3.3 3.2-4.9 4.6a11.8 11.8 0 0 1-7.3 2c-5 0-7.9-1.8-9.4-5.4-4.2-9.8-2.8-21 3.7-29.5 4-4.7 8.5-8.3 13.8-10.6 5.1-2.4 10.6-4 16.3-4.6 8.2-.9 16.4-1.1 24.6-.6 2.2 0 4 .6 5.5 1.6a12 12 0 0 1 7.1 11.2V205a12 12 0 0 1-6.9 11.4l-6.5 3c-4.3 2-7 6.4-6.9 11.2 0 3.5 1.2 6.7 3.8 9 2.4 2.4 5.7 3.7 9 3.6h71c3.8 0 6.8-1.2 9.1-3.6 2.5-2.3 3.8-5.6 3.8-9 0-5-2.4-8.7-7.1-11.2-.6 0-1.2-.4-2-.8-.8-.6-1.7-1.2-2.7-1.6-.6 0-1-.4-1.6-.6-4.4-2-7.2-6.5-7-11.4v-39.4c0-1.5.5-2.7 1.5-3.3 1-1.2 2.2-1.6 3.5-1.6h5.5c5.2 0 9.3 1.2 12.4 3.6 3.2 2.3 5.8 4.7 7.5 7l2.2 3.6.4.6c2.5 4.5 5.1 9 7.9 13.4l2 3.3 3 5.7 3.4 5.5 15.4 27c4.8 8.3 9.5 16.6 14.1 25a244.5 244.5 0 0 0 33.5 45.3Zm-107-165.4c-1.4 0-2.8-.4-3.6-1.2-1-.7-1.4-2-1.4-3.9V70.5c0-1.4.4-2.6 1.4-3.6.8-1 2-1.6 3.5-1.6h4c5.7 0 11.2.2 16.7.6a39 39 0 0 1 14.8 4C220 72 223.6 75.4 226 80c2.6 4.5 4 11 4 19.9 0 8.8-1.2 15.7-3.8 20.5-2.4 4.9-6 8.2-10 10.4a39.4 39.4 0 0 1-15.2 4c-5.9.4-11.8.6-17.7.5h-3Zm3.5-6.3c5.9 0 11.4-.2 16.7-.6a32 32 0 0 0 12.6-3.1c3-1.6 5.5-4 7.5-7.9 2-3.3 3-9 3-17.5 0-8.3-1.2-13.6-3.2-17a20 20 0 0 0-7.5-7.6 38.2 38.2 0 0 0-12.4-3.2c-5.3-.4-10.8-.6-16.3-.6h-2.6v57.5h2.2Z"/>
  <path fill="#ffcd00" d="M482 219.7c4.8 2.5 7.2 6.3 7.2 11.2a12.4 12.4 0 0 1-12.6 12.6H428c-4.3 0-7.8-1.4-10.8-4.4-.8-1.1-1.6-2-2-3-.6-.8-1.1-1.8-1.5-2.9-.6-.7-1.2-1.3-2-1.5-.6-.4-1.4 0-2.2.6-4.5 3.9-10.4 7.2-17.3 9.8-7 2.4-15.7 4-26.2 4a59 59 0 0 1-36.6-10.5c-8.8-6.9-13.4-17.3-13.4-31 0-9.5 2-17.4 6-23.7 3.9-6.5 9.4-11.8 16.3-15.8a78 78 0 0 1 24.2-8.2c9.2-1.6 19-2.4 29.7-2.4H410c2 0 2.8-.8 2.8-2.4v-2.9c0-6.3-.4-11.4-1.2-15.2-.6-3-1.7-5.8-3.3-8.4a9.4 9.4 0 0 0-4.4-3.8c-1.5-.4-3.3-.6-5-.6-5 0-9 1.4-12.3 4.4-5.1 4.9-10.4 9.7-15.7 14.3a59 59 0 0 1-15.8 10.5c-7.4 3-15.8 2.6-22.8-1.2-5-2.6-8.5-7.3-9.7-12.8-1.3-5.9.2-11.8 4.8-17.7 6.1-7.4 14.1-13 23.2-16.2 14.7-5 30.3-7.3 45.8-6.6l11.9.2c10.7.5 21.2 2.7 31.3 6.4a46 46 0 0 1 29.3 46.7v56c0 5.2 2.5 9 7.3 11.5l2.3 1 2 1c.6.6 1.2.8 2 1Zm-69.2-37.4c0-.4-.2-1-.8-1.6-.2-.6-.8-1-2-1h-9.6a34 34 0 0 0-11.6 2 30.7 30.7 0 0 0-8.1 5.5c-2 2-3.7 4.5-4.7 7.3-1 2.7-1.6 5.5-1.6 8.2 0 3.2.6 6 1.6 8 1 1.9 2.1 3.3 3.5 4.2 1.4 1.1 3 2 4.7 2.4 4.6 1.2 9.4.5 13.4-1.8 3-1.5 5.5-3.3 7.9-5.9a30 30 0 0 0 7.3-19.7v-7.6Z"/>
  <path fill="#231f20" fill-rule="evenodd" d="m483.8 213.6 1.2.4a18.5 18.5 0 0 1 10.5 16.9 18.5 18.5 0 0 1-19 18.9h-48.4a21 21 0 0 1-18-9.9 62 62 0 0 1-15.8 8c-7.9 2.9-17.3 4.2-28.2 4.2a65 65 0 0 1-40.3-11.6 43 43 0 0 1-16-36c0-10.2 2-19.5 7-27.2a52 52 0 0 1 21.6-19.2c-3-.6-6.1-1.8-9-3.4a25 25 0 0 1-13-17c-2-7.8.3-15.7 5.6-23a59 59 0 0 1 26-17.9c15.5-5.4 31.9-7.9 48.3-7.2l11.8.2c11.4.5 22.7 2.8 33.4 6.8 12.9 5 23.2 15 28.8 27.6 3.3 7 4.9 15.5 4.9 25v56a7 7 0 0 0 .8 3.4c.4.8 1.1 1.6 2.7 2.4l.4.2 2 .8c1 .4 1.9 1 2.7 1.6Zm-1.7 5.9c-.6 0-1.2-.4-1.8-.8-1-.6-2-1-3.2-1.4l-.7-.4h-.4a12.4 12.4 0 0 1-7.1-11.8v-55.9c0-8.9-1.4-16.3-4.2-22.4a46 46 0 0 0-25.3-24.3 88 88 0 0 0-31.5-6.4l-11.6-.2c-19.5 0-34.9 2.1-46 6.6-9 3.2-17 8.7-23.1 16a21.8 21.8 0 0 0-4.8 17.7 19 19 0 0 0 9.9 13 26.8 26.8 0 0 0 23 1.2c5.8-2.5 11-6 15.6-10.5l4.7-4.5 11-9.8c3.4-3 7.7-4.5 12.2-4.4 2 0 3.6 0 5.1.6 1.6.6 3 1.8 4.4 3.8 1.6 2.6 2.7 5.4 3.3 8.4.8 4 1.2 8.9 1.2 15.2v3c0 1.5-1 2.3-2.8 2.3h-17.7c-10.6 0-20.5.8-29.7 2.4a78 78 0 0 0-24.2 8.4c-6.9 4-12.4 9-16.4 15.4a45 45 0 0 0-5.9 23.8c0 13.8 4.6 24.2 13.4 31.1a58.9 58.9 0 0 0 36.6 10.2c10.5 0 19.1-1.3 26.2-3.9a52.2 52.2 0 0 0 17.3-9.6c.6-.8 1.6-1 2.4-.6.6.2 1.2.8 1.8 1.5.4 1.2.8 2.2 1.3 3l2 3c3 2.8 7 4.4 11 4.3h48.5c3.5 0 6.5-1.2 9-3.8 2.3-2.3 3.6-5.5 3.6-8.8a11.8 11.8 0 0 0-7-11.2Zm-102.4-79.6c-3.4 3.4-7 6.6-10.6 9.7 7.3-1 15.1-1.4 23.2-1.4h14.2a52 52 0 0 0-3.2-19 6 6 0 0 0-1.3-1.3c-1-.4-2-.4-3.2-.4a11 11 0 0 0-7.9 2.8l-11 9.6Zm30.5 39.8c1 0 1.6.4 1.8 1 .4.6.8 1 .8 1.6v7.8a30 30 0 0 1-7.3 19.7 26 26 0 0 1-7.9 6c-4 2.2-8.9 2.7-13.4 1.5a13 13 0 0 1-8.3-6.9c-1-2-1.5-4.5-1.5-7.7 0-2.7.6-5.5 1.6-8.2 1-2.8 2.6-5.3 4.7-7.3 2-2.2 5-4 8-5.3 3.4-1.4 7.2-2 11.9-2h9.6Zm-4 6.3h-5.8c-4 0-6.9.6-9.3 1.6-2.2.9-4.2 2.2-5.9 4a13.5 13.5 0 0 0-3.3 5c-.8 2-1.2 4-1.2 6.1 0 2.6.4 4 .8 5 .6 1.1 1.4 2 2 2.3l2.3 1.2c3 .8 6.3.4 9-1.2 2.3-1.1 4.3-2.6 6-4.5 3.7-4.3 5.7-9.9 5.7-15.6V186Z"/>
  <path fill="#ffcd00" d="M520.4 141.7c0-5.1-2.3-9-7-11.6l-2.4-1-2-1-2-1.1c-1.9-1-3.9-2.4-5-4.6-1.2-2-2-4.3-2-6.7 0-6.3 4.3-10.8 12.8-13.7 15-3.9 30.5-6 46-6.3 3.4 0 6 .6 8.3 1.5 2.4 1.2 4 2.6 5.5 4.4 1.4 1.7 2.4 3.7 3 5.9.6 2 .7 4 .7 5.9V205c0 2.4.8 4.7 2 6.7s3 3.5 5.1 4.5l2.6 1.2 3.7 2c4.4 2 7.1 6.4 7.1 11.2a12.4 12.4 0 0 1-12.6 12.8h-71.4a12.4 12.4 0 0 1-12.6-12.8c0-2.4.6-4.5 2-6.5 1.1-2 2.9-3.8 5-4.5l1.8-1 2-1.2 2.4-1.2c2.2-1 4-2.5 5.3-4.5 1.2-2 2-4.3 2-6.7v-63.4Zm-12.4-88a23.2 23.2 0 0 1 11.5-20.4 40 40 0 0 1 11.8-4.6c9-2 18.5-2 27.5 0 4.4 1 8.3 2.6 11.6 4.6a23.2 23.2 0 0 1 11.3 20.4c.2 8.4-4.1 16.3-11.3 20.7a35.6 35.6 0 0 1-11.8 4.7c-9 2.1-18.5 2.1-27.5 0a36 36 0 0 1-11.6-4.7A23.2 23.2 0 0 1 508 53.7Z"/>
  <path fill="#231f20" fill-rule="evenodd" d="M514.3 142.9v-1.2c0-1.6-.5-2.5-1-3.5a7.7 7.7 0 0 0-2.9-2.4l-1.2-.6-4-2s-.3 0-.5-.3l-.6-.4a18.5 18.5 0 0 1-5.5-29.1c3.2-3.4 7.3-5.8 12-7.3 15.7-4 31.8-6.2 48-6.5 4 0 8 .4 11.3 2a22.3 22.3 0 0 1 11.8 14.1c.6 2.4 1 5.1 1 7.7V205a6 6 0 0 0 1 3.1c.7 1.2 1.3 2 2.3 2.4a22 22 0 0 1 5.5 3l.8.4c6.6 3 10.9 9.6 10.8 16.9 0 5.1-2 9.6-5.3 13.4a18.5 18.5 0 0 1-13.8 5.5h-71.2a18.7 18.7 0 0 1-19-19.1c0-7.5 4.6-14.3 11.5-17.1l2.6-1.4.1-.2 1.4-.8 1.4-.6c1-.4 2-1.2 2.6-2.2.6-1.1 1-2.1 1-3.3v-62.2Zm71.7 74.8c-.6-.6-1.4-1-2.6-1.4-2-1-3.9-2.5-5-4.5-1.3-2-2-4.3-2-6.7v-91.7c0-2-.2-4-.8-6-.6-2.1-1.6-4-3-5.8a14.8 14.8 0 0 0-5.5-4.4 19.5 19.5 0 0 0-8.3-1.5 157.5 157.5 0 0 0-46 6.3c-8.5 3-12.8 7.4-12.8 13.7 0 2.4.8 4.6 2 6.7 1.3 2 3.1 3.6 5.3 4.6l.7.5 1 .6 2 1 .4.2 2 .8c4.4 2.1 7.2 6.7 7 11.6v63.4a12 12 0 0 1-2 6.7c-1.1 2-3 3.5-5 4.5l-1.2.6-1.2.6-.4.2-1.6 1-2 1a10 10 0 0 0-4.9 4.5 11 11 0 0 0-2 6.5c0 3.7 1.3 6.7 3.6 9 2.4 2.5 5.7 3.8 9 3.8h71.5c3.6 0 6.5-1.2 9-3.8a12.4 12.4 0 0 0-3.5-20l-1.7-1-2-1.2Zm-2-179.5a32.2 32.2 0 0 1 0 31 35.6 35.6 0 0 1-24 16 68.1 68.1 0 0 1-30.1 0c-4.9-1-9.5-2.9-13.8-5.5a29.5 29.5 0 0 1-14.3-26A29.5 29.5 0 0 1 516 28c4.2-2.6 8.9-4.4 13.8-5.4 10-2.2 20.2-2.2 30.1 0 5.1 1 9.7 2.8 13.8 5.4 4.1 2.5 7.5 6 10 10.2Zm-5.5 3.3a25 25 0 0 0-8-8.2 40 40 0 0 0-11.9-4.6c-9-2-18.5-2-27.5 0-4.4 1-8.3 2.6-11.6 4.6A23.2 23.2 0 0 0 508 53.7a23.2 23.2 0 0 0 11.5 20.7c3.3 2.2 7.2 3.7 11.8 4.7a61 61 0 0 0 27.5 0 36 36 0 0 0 11.6-4.7 23.6 23.6 0 0 0 11.3-20.7c0-4.7-1-8.6-3.2-12.2Z"/>
  <path fill="#ffcd00" d="M698.4 219.7c4.7 2.5 7 6.3 7 11.2a12.4 12.4 0 0 1-12.7 12.6h-71c-3.6 0-6.8-1.2-9.1-3.8a12.2 12.2 0 0 1-3.8-8.8c0-5 2.4-8.7 7.1-11.2l2-1 2-1 2.3-1c4.5-2.1 7.3-6.7 7-11.6V73.2c0-5.1-2.3-8.8-7-11.4l-2.6-1.2-2-1.2-1.9-1.1a11.4 11.4 0 0 1-7-11.3c0-6.3 4.3-10.8 12.7-13.7 15-3.8 30.5-5.9 46-6.1 3.4 0 6 .6 8.5 1.5 2.2 1.2 4 2.6 5.4 4.4a20.6 20.6 0 0 1 4 11.8L685 205c0 5.1 2.4 8.9 7 11.4l2.4 1 2 1.2 2 .8h-.2Z"/>
  <path fill="#231f20" fill-rule="evenodd" d="m694.2 217.3-1-.2-.3-.2c-.4 0-.6-.2-.6-.4-4.4-2-7.2-6.5-7.1-11.4V44.9a20.6 20.6 0 0 0-4-11.8 14.6 14.6 0 0 0-5.3-4.4 19 19 0 0 0-8.4-1.5 157.5 157.5 0 0 0-45.9 6.3c-8.4 3-12.8 7.4-12.8 13.7 0 5.4 2.4 9 7.1 11.3l1 .6.8.5 2 1.2h.5l2 1c4.4 2 7.2 6.6 7 11.4v131.9c0 5.3-2.3 9-7 11.6l-2.4 1-2 1-1.9 1c-4.7 2.5-7 6.3-7 11.2a11 11 0 0 0 3.9 8.8c2.2 2.5 5.4 4 8.8 4h70.9a12 12 0 0 0 9-4 12.4 12.4 0 0 0-3.3-20l-1.8-1-2-1.2h-.3Zm8.3-2.6a18 18 0 0 1 9.3 16.2 18.7 18.7 0 0 1-19.1 18.9h-71a18.5 18.5 0 0 1-18.9-18.9 18.3 18.3 0 0 1 11.3-17.3c1-.8 2.2-1.4 3.4-1.8.6 0 1.2-.4 2-.8a8.5 8.5 0 0 0 2.7-2.4c.4-.7.8-2 .8-3.5V73.2a7 7 0 0 0-.8-3.3 7.9 7.9 0 0 0-3-2.6l-1.3-.6h-.4a16 16 0 0 1-4-2.3l-.7-.4c-3-1.5-5.7-3.7-7.5-6.5a18.7 18.7 0 0 1-2.6-10.3 18 18 0 0 1 4.7-12.4c3.2-3.3 7.3-5.7 12-7.2 15.8-4 31.9-6.2 48-6.5 4.2-.2 8 .4 11.3 2 3.1 1.5 5.9 3.5 7.9 6.2a26 26 0 0 1 5.1 15.5v160.3c0 1.6.2 2.6.8 3.3a6 6 0 0 0 2.5 2.4l.4.2 2 .8 2.4 1.2.5.4c1 .4 2 .7 2.4 1.3Z"/>
  <path fill="#ffcd00" d="M812 148.4a77.9 77.9 0 0 1 38.5 18.7 41.3 41.3 0 0 1 12.6 30.1c0 8.5-2 15.8-5.9 21.9a47 47 0 0 1-15.7 15.3c-6.7 4-14.4 7.1-22.9 8.9-8.4 2-17.3 3-26.5 3-7.9 0-15.8-.7-23.6-2a94.3 94.3 0 0 1-38.2-13.6 36.2 36.2 0 0 1-11-11 15 15 0 0 1-2.6-10.5c.4-3.2 1.8-6.3 4-8.8 4.2-5 10.3-8.1 16.8-8.5a21 21 0 0 1 15.6 6.1l5 6 4.4 5.6a41.1 41.1 0 0 0 16.4 9.9 45 45 0 0 0 29.3.2c4.3-1.4 6.5-4 6.5-8 0-2.7-1.6-5.2-4.5-7.2-3.2-2-7-3.5-11.2-5-4.6-1.1-9.3-2.3-14.2-3l-13.2-3a82.3 82.3 0 0 1-40.2-19.7 44.9 44.9 0 0 1-12.5-32.5c0-7.8 2-14.5 5.9-20.2a45 45 0 0 1 15.5-14.2c6.8-4 14-6.8 21.7-8.5a124 124 0 0 1 61.4 1.8 80 80 0 0 1 22 10.2c6.3 4.5 9.9 9 11.4 13.6 1.2 4.5 1 8.5-.6 12a20 20 0 0 1-7.8 8.9 19.7 19.7 0 0 1-10.7 3.3 24 24 0 0 1-12.6-3.5c-4.9-3.5-9.1-8-12.4-13-3.9-5.3-8.4-8.7-13.5-9.9a59 59 0 0 0-13.6-2 39 39 0 0 0-13.4 2.2c-4 1.6-6 4.4-6 8.3a8 8 0 0 0 3 6.3c2 1.8 4.8 3.1 8.5 4.3 4.7 1.4 9.5 2.6 14.4 3.6l19.7 4Z"/>
  <path fill="#231f20" fill-rule="evenodd" d="M813.1 142.3c-2-2.2-3.8-4.5-5.5-6.9a18 18 0 0 0-9.8-7.5c-5-1.1-8.9-1.7-12.2-1.7-3.8 0-7.5.6-11 2-1.2.1-1.4.5-1.6.7l-.2 1.4c0 .6 0 1.2.6 1.6 1 1 3 2 6 3 4 1.1 8.3 2.3 13.9 3.3l4.9 1 15 3.1Zm-7.4 5c-4.6-1-9.1-2-13.6-2.8-4.9-1-9.7-2.2-14.4-3.6a22.6 22.6 0 0 1-8.5-4.3c-2-1.8-2.7-4-2.7-6.3 0-4 2-6.7 5.7-8.3 4-1.3 8.3-2.1 13.4-2.1 4 0 8.4.8 13.6 2 5 1.1 9.6 4.5 13.5 9.8 3.3 5 7.5 9.5 12.4 13 4 2.3 8 3.5 12.6 3.5 3.9 0 7.7-1.2 10.9-3.3 3.5-2.4 6-5.3 7.8-8.9a19 19 0 0 0 .4-12c-1.4-4.5-5-9-11.4-13.6-5.1-4-12.4-7-22-10.2a124 124 0 0 0-61.4-1.8c-7.6 1.7-15 4.6-21.7 8.5a47.6 47.6 0 0 0-15.5 14.2c-4 5.7-6 12.4-6 20.2 0 13 4.2 23.6 12.6 32.5 8.3 8.7 21.7 15.2 40.2 19.7 4 1.2 8 2 13.2 3 5 .7 9.8 1.9 14.2 3 4.3 1.5 8 3 11.2 5 3 2 4.5 4.5 4.5 7.5 0 3.7-2.2 6.3-6.5 7.9a46 46 0 0 1-29.3-.4c-2.8-.8-5.7-2-8.5-3.8-3-1.6-5.5-3.5-7.9-6-1.5-2-3.1-3.8-4.5-6l-4.9-5.7a21.3 21.3 0 0 0-24.8-3.7 24.2 24.2 0 0 0-7.9 6c-2 2.6-3.3 5.7-3.7 9-.4 3.3.4 6.8 2.5 10.4 2.6 3.9 6.3 7.8 11 11a99.1 99.1 0 0 0 38.3 13.8c16.6 2.3 33.6 1.9 50.1-1.2 8.5-2 16.2-4.7 22.9-8.9a47 47 0 0 0 15.7-15.3c4-6.1 6-13.4 6-21.9a41.3 41.3 0 0 0-12.7-30 71.6 71.6 0 0 0-32.4-17.2l-6-1.4h-.5l-6-1.4Zm-95.1 61c.6-4.4 2.3-8.5 5.1-11.9 5-6 12.2-10 20-10.8a51.2 51.2 0 0 1-23.1-44.3 41.3 41.3 0 0 1 7-23.8 55.1 55.1 0 0 1 17.6-16.1c6.8-4 14.7-7.1 23.4-9 21.4-5 43.8-4.2 65 1.9h-.3a82.7 82.7 0 0 1 23.7 11c6.3 4 11.2 10 13.7 17a23.6 23.6 0 0 1-.8 16.5c-2 4.7-5.5 8.4-10 11.4-2.7 1.8-5.5 3-8.5 3.5 4.4 2.8 8.3 5.7 11.7 9a48 48 0 0 1 14.3 34.5c0 9.5-2 18-6.9 25.2a54.1 54.1 0 0 1-17.7 17.5 85.3 85.3 0 0 1-24.8 9.5 128 128 0 0 1-28 3.1c-8.2 0-16.5-.8-24.3-2-7.7-1-15.2-2.9-22.5-5.4A87.6 87.6 0 0 1 727 236a41.5 41.5 0 0 1-13-13.2c-2.8-4.3-4-9.5-3.3-14.6Zm50.2-11.3c7.4 2.4 15 4.3 22.8 5.5 5 1 9.5 2 13.6 3.2 4 1.2 7 2.5 9.6 4.1 1.6 1.2 1.6 1.8 1.6 2v.8c-.2.2-.8.8-2.2 1.2a39.8 39.8 0 0 1-25.5-.4c-2.4-.6-4.8-1.8-7.3-3.2-2-1.2-4.2-2.7-6.1-5a58.8 58.8 0 0 1-6.5-8.2Z"/>
  <path fill="#ffcd00" d="M591.7 351.7a7 7 0 0 1 3.5-2.3c1.2-.4 2.6-.6 4-.6 1.6 0 3.1.6 4.5 1.6 1.2 1 2 2.5 2 4.7 0 2.5-1.2 5.9-3.6 9.8-2.3 4-5.9 7.7-10.4 11.4a65.7 65.7 0 0 1-43.1 13.8 86 86 0 0 1-29.5-5 62.3 62.3 0 0 1-22-13.5 60.3 60.3 0 0 1-13.9-20.9 75.6 75.6 0 0 1-4.7-27.1c0-10.8 1.8-20.7 5.1-29.3a61.4 61.4 0 0 1 36.3-36 79.8 79.8 0 0 1 27.7-4.8 75.2 75.2 0 0 1 42.5 11.8c6.7 5 11 10 13.4 15.2 2.2 5.1 3.2 9.8 2.6 14a18 18 0 0 1-15.8 15.7c-3.1 0-5.9 0-8.4-.6-2.6-.5-5-1.6-7.1-3.1-2.2-1.6-4-4-6-7-1.5-2.9-2.9-6.6-3.9-11.1l-1.5-6.3c-.6-2.2-1.6-4.2-3-6a17.3 17.3 0 0 0-5.9-4.3 19.7 19.7 0 0 0-9-1.6c-6 0-10.7 1.6-14.4 4.8-4 3.3-6.7 7.3-8.9 12a74.2 74.2 0 0 0-1.4 50.2 42.8 42.8 0 0 0 23 25.6 43.9 43.9 0 0 0 32.4.7c2.3-1 4.9-2.5 7.4-4.5 2.6-2 5.3-4.5 8.1-7.7v.4Z"/>
  <path fill="#231f20" fill-rule="evenodd" d="M591.7 351.5a82 82 0 0 1-7.9 7.5 32.7 32.7 0 0 1-15.1 6.7c-8.5 1.4-17.1.5-25-2.7a42.2 42.2 0 0 1-13.8-9.9c-4-4.3-6.9-9.6-9-15.7a68.9 68.9 0 0 1 1.3-50.4c2-4.7 5.1-8.7 8.9-11.8 3.7-3.4 8.4-5 14.3-5 3.8 0 7 .4 9.3 1.6a19 19 0 0 1 5.7 4.4c1.4 2 2.4 3.9 3 5.9l1.5 6.3c1 4.5 2.4 8.2 4 11.2 1.4 2.7 3.4 5 5.9 6.9 2 1.5 4.3 2.7 7 3.1 2.6.6 5.4.8 8.3.6a18 18 0 0 0 15.8-15.7c.8-4 0-8.9-2.4-14-3.1-6-7.7-11.3-13.4-15.2a75.2 75.2 0 0 0-42.5-11.8c-9.8 0-19 1.6-27.5 5-16.8 6-30.1 19.1-36.5 35.8a78 78 0 0 0-5 29.3 75 75 0 0 0 4.6 27.1 58.5 58.5 0 0 0 35.9 34.5c17.7 6.4 37 6.7 54.9.8a63 63 0 0 0 17.7-9.9c4.7-3.5 8-7.2 10.4-11.2 2.4-4 3.6-7.3 3.6-9.8 0-2-.8-4-2-4.7a8 8 0 0 0-4.7-1.6c-1.4 0-2.7.2-4 .6l-3.1 2v.3-.4l-.2.2Zm-3-5.7-1.5 1.4a65.7 65.7 0 0 1-7.3 6.9 26.6 26.6 0 0 1-12.2 5.3 40 40 0 0 1-21.5-2.4c-4.5-2-8.2-4.5-11.4-8-3.5-4-6.3-8.7-8-13.8-2-6-3.4-12.2-3.6-19.7v-.2c0-8.7 1.5-17.4 4.7-25.6 1.8-4 4.2-7.3 7.3-9.8 2.4-2.2 5.7-3.4 10.2-3.4 3.4 0 5.4.4 6.5 1a10.6 10.6 0 0 1 5.6 6.5c.5 1.9 1 3.8 1.3 5.7 1 4.6 2.6 9 4.8 13a23.6 23.6 0 0 0 17 13.2c3.2.6 6.6.8 10 .4h.1a24.2 24.2 0 0 0 21.7-21c.8-5.6-.6-11.5-3.2-17.4-3.5-7-8.7-13.1-15.1-17.7a63.8 63.8 0 0 0-18-8.8 87.6 87.6 0 0 0-28.5-4 84.6 84.6 0 0 0-30 5.1A67.7 67.7 0 0 0 478 292c-3.9 9.6-5.7 20-5.7 31.5a83 83 0 0 0 5.1 29.5 63 63 0 0 0 39.4 38.2c19.2 7 40.1 7.3 59.5.8 7.4-3 14.1-6.5 19.2-10.6 5.4-4 9.3-8.5 12-13.2 2.6-4.2 4.6-8.7 4.6-13 0-3.4-1.2-7.1-4.4-9.9a13.6 13.6 0 0 0-8.6-2.7c-3.7 0-7.4 1.2-10.3 3.5Z"/>
  <path fill="#ffcd00" d="M723.4 320.6a43.3 43.3 0 0 1-14.2 37.6c-5 4.3-10.7 7.7-17 9.9a78.3 78.3 0 0 1-42.2 2.5 48 48 0 0 1-18.1-7.6 42.2 42.2 0 0 1-13.2-14.4c-3.4-6-5.3-13-6-21.3a46.8 46.8 0 0 1 13-38.4 48.3 48.3 0 0 1 16.8-10.4c13.8-5 28.9-6 43.3-2.7a44.9 44.9 0 0 1 31.5 22.8 53.1 53.1 0 0 1 6 22ZM903.3 377.3c5.5-.2 10.6 3.2 12.4 8.5a20 20 0 0 1-1 15.3c-1 2-2.8 4-5.1 6.1a50 50 0 0 1-9.3 6c-9.3 4-19.4 5.9-29.5 5.5-13 .2-26-3.6-36.8-10.9-4.3-3-8-6.8-11.2-11-5.2-7.2-9.1-15.2-11.4-23.8a49 49 0 0 1-1.2-9.5v-49.2l-.2-7.8c0-2.6-.6-4.8-1.2-6.5-.8-1.8-2-3.4-3.3-4.4-1.4-1-3.8-1.5-6.5-1.5-3.4-.2-6.7.8-9.3 3-2.4 2-4.3 4.4-5.7 7.2a46.5 46.5 0 0 0-3.7 16.5v24.8c0 3.4 1.5 6 4.7 7.5l1.6.6 1.3.8 1.2.6c3 1.6 4.5 4 4.5 7.3 0 4.5-3.7 8.2-8.2 8.2h-46.7a8.3 8.3 0 0 1-8.2-8.2 8 8 0 0 1 4.5-7.3l1.2-.6 1.3-.8c.6 0 1-.4 1.6-.6a8 8 0 0 0 4.6-7.5v-41.3a7.9 7.9 0 0 0-4.6-7.7c-.6 0-1-.4-1.6-.6-.5 0-1-.4-1.3-.6l-1.2-.6a8 8 0 0 1-4.5-7.2c-.2-2.1.5-4.2 2-5.7 1.7-1.7 3.9-3 6.2-3.6 5-1.4 10-2.4 15-3l7.9-.7 7.2-.4c4.4 0 7.5.8 9.1 2 1.6 1.3 2.4 3.3 2.4 5.9v1.1c0 .8.4 1.4 1 1.6.5 0 1.3 0 2-.4a43.5 43.5 0 0 1 27.9-10.2 68 68 0 0 1 14.7 1.6c4.4 1 8 3 11.2 5.7 3 2.5 5.4 6.3 7.1 11.2a57 57 0 0 1 2.6 18.5v65c0 4 .6 7.8 1.6 11.2 1.1 3.3 2.7 5.9 4.9 8.2 2 2.2 4.3 4 7 5 2.6 1 5.4 1.5 8.5 1.5 3.2 0 6-.6 7.7-2 2-1 3.6-2.5 5-4.3 1.5-2 2.7-4 3.9-5.9a22 22 0 0 1 3.9-5.9 16.8 16.8 0 0 1 14-6.7Z"/>
  <path fill="#231f20" fill-rule="evenodd" d="M901.7 371.2h1.6c8-.3 15.4 4.7 18.3 12.2 2.3 6.7 1.9 14-1.2 20.3a27 27 0 0 1-6.7 8.3c-3.2 2.7-6.9 5-10.8 6.7a73.4 73.4 0 0 1-32.3 6.3 66.3 66.3 0 0 1-40.3-12c-4.8-3.5-9-7.6-12.6-12.3a79 79 0 0 1-12.4-26.1c-1-4-1.4-8-1.4-10.9v-49.2l-.2-7.6c0-1.5-.3-3-.8-4.4-.4-1-.8-1.4-1.2-1.5l-.6-.2-2-.2c-2.7 0-4.3.5-5.3 1.3a16.3 16.3 0 0 0-4 5.5c-1.2 2.3-2 4.7-2.5 7.1l-.5 6.7V347l1 .6.5.2.6.2 2.4 1.2.8.6c4.9 2.5 7.8 7 7.8 12.8a14.4 14.4 0 0 1-14.5 14.5h-46.7a14.4 14.4 0 0 1-14.5-14.5 14.2 14.2 0 0 1 8.8-13.4l2.6-1.2h.2l.4-.2 1-.8.2-1.2v-42.5l-1-.8h-.2l-.4-.2h-.2l-2.4-1.2-.4-.1-.8-.4c-4.8-2.5-7.9-7.4-7.8-12.8 0-3.6 1-7.1 3.7-9.9 2.2-2.5 5.3-4.1 8.7-5.3a97.4 97.4 0 0 1 16.1-3.1l.6-.2 7.9-.8 7.6-.4c2.4 0 4.8.2 7 .8 1.9.4 4.3 1.1 6.2 2.7 1.2 1.2 2.2 2.4 3 4a50 50 0 0 1 26.2-7.5c5.9 0 11.2.6 16.1 1.8 5.3 1.1 10 3.5 13.8 7 4.1 3.6 7 8.3 9 13.8 2 6 3 12.8 3 20.7v65c0 3.5.4 6.6 1.2 9.2 1 2.5 2.1 4.5 3.5 5.9a14 14 0 0 0 11 4.5c2.4 0 3.8-.4 4.2-.8 1.5-.8 2.5-2 3.5-3.1 1.2-1.6 2.3-3.2 3.2-5 1.5-2.5 3-4.9 4.7-7 2-2.4 4.5-4.4 7.3-6 3-1.9 6.5-2.5 10-2.7Zm1.6 6.3c-3.6 0-6.3.6-8.5 2-2 1-4 2.6-5.5 4.3-1.6 2-2.8 4-4 6a22 22 0 0 1-3.9 5.8 16 16 0 0 1-4.9 4.7c-2 1.2-4.5 2-7.7 2-3.1 0-5.9-.8-8.6-2-2.6-1-5-2.6-7-4.7-1.9-2.1-3.7-4.9-4.8-8.2a39 39 0 0 1-1.6-11.5v-64.7c0-7.5-.8-13.8-2.6-18.5a24.5 24.5 0 0 0-18.3-17 67 67 0 0 0-14.7-1.5c-8.8 0-17.4 2.5-24.6 7.5l-.2.2c-1.1.7-2.2 1.6-3.2 2.5-.6.4-1.4.6-2 .4-.5-.2-1-.8-1-1.6v-1.1c0-1 0-1.9-.3-2.8v-.2a7 7 0 0 0-2-3c-1.6-1.1-4.7-2-9-2-2 0-4.6 0-7.3.5l-7.7.6h-.4c-5 .6-10 1.7-14.8 3.1-2.3.7-4.5 2-6.3 3.6a7.9 7.9 0 0 0-2 5.7c0 3.1 1.6 5.5 4.6 7.2l1 .4h.2l1.3.8 1.2.6h.4c3 1.4 4.8 4.4 4.6 7.7v41.3a8 8 0 0 1-4.6 7.5h-.4l-1.2.6-1.3.8-1.2.6c-3 1.6-4.5 4-4.5 7.3 0 4.5 3.7 8.2 8.2 8.2h46.7c2.2.1 4.3-.8 5.9-2.3a8.3 8.3 0 0 0 2.3-6 8 8 0 0 0-4.5-7.2c-.4 0-.6-.4-1-.6l-1.5-.8h-.6c-.2-.4-.6-.4-1-.6a7.9 7.9 0 0 1-4.5-7.5V321c0-2 0-4.7.7-7.8.4-3 1.4-6 2.8-8.9 1.4-2.8 3.3-5.3 5.7-7.3 2.6-2 6-3.1 9.3-3 2.7 0 5 .7 6.5 1.6 1.5 1 2.5 2.6 3.3 4.4.6 1.7 1 3.9 1.2 6.5v57c.7 12.2 5 23.9 12.6 33.5a60 60 0 0 0 47.8 22c10.3 0 20.4-2 30-5.9a50 50 0 0 0 9.2-5.9 20 20 0 0 0 5-6 20.3 20.3 0 0 0 1-15.4 12.6 12.6 0 0 0-12.3-8.5Z"/>
  <path fill="#ffcd00" d="M907 239c-2.3 0-3.7 1.1-4.3 3.9-.4 2.3-.2 5.5.8 9a52.7 52.7 0 0 0 12.8 22.9c.6.8 1.3 1 2.1 1h17c1 0 2 .4 2.5 1 .6.5.8 1.3.8 2.3v9.8c0 1.2-.2 2-.8 2.6-.6.6-1.4 1-2.5 1h-15c-1 0-1.6.2-2.4.8-.6.6-1 1.4-1 2.5v49.6c0 3.4 1.6 6 4.8 7.5l4.1 2a7.9 7.9 0 0 1 4.5 7.3 8 8 0 0 1-2.3 5.9 7.9 7.9 0 0 1-6 2.5h-46.6a8.3 8.3 0 0 1-8.2-8.4c0-3.2 1.3-5.7 4.5-7.3l1.4-.6 1.1-.6 1.8-.8a8 8 0 0 0 4.3-7.5v-49.6c0-2.1-1.1-3.3-3.1-3.3h-10c-1 0-1.8-.2-2.4-.8-.6-1-1-1.8-1-2.6v-9.8c0-1 .4-2 1-2.4a4 4 0 0 1 2-1.1h9.6c.8-.4 1.4-.8 1.4-1.6.4-1 .2-2 0-2.6a43.3 43.3 0 0 1-5.1-17.7 30 30 0 0 1 3.5-15.7c2.8-4.6 6.7-8.3 12.4-11.3a47.9 47.9 0 0 1 21.5-4c7.4 0 13.7.7 18.7 2.3 4.9 1.5 8.8 3.5 11.8 6 2.6 2.2 4.6 5 5.9 8.1 1 3 1.6 5.8 1.6 8.5 0 1.2 0 2.8-.8 4.3-1 3.8-3.5 7-7 8.9-1.7 1-3.9 1.6-6.6 1.6-7.9 0-13-3.2-15.8-9.9a44.3 44.3 0 0 0-5.9-10.8c-1.5-2-3.3-2.8-5-2.8v-.1Z"/>
  <path fill="#231f20" fill-rule="evenodd" d="M902.7 244.7v-1c.6-2.4 2-3.7 4.1-3.7h.4-.2.2c1.8.1 3.4 1.1 5 2.9l.3.4c1.6 2 3.4 5.5 5.5 10.4 2.8 6.7 8 9.9 15.8 9.9A13 13 0 0 0 945 258c2-2.7 3-6 3.2-9.3 0-2.7-.6-5.5-1.6-8.5-1.3-3.1-3.3-5.9-6-8a33.7 33.7 0 0 0-11.7-6.1c-5-1.6-11.3-2.4-18.7-2.4a50 50 0 0 0-21.7 4.1 27.9 27.9 0 0 0-15.7 27.2c.4 6 2 11.8 5 17.7.3.4.5 1.4 0 2.4 0 .8-.5 1.2-1.3 1.6h-9.8l-2 1.1c-.4.6-.8 1.4-.8 2.2v10c0 .8.4 1.6 1 2.6.6.6 1.4.8 2.4.8h9.8c2.2 0 3.3 1.2 3.3 3.3v49.6c0 3.4-1.3 6-4.3 7.7-1.5.5-3 1.2-4.3 2a7.2 7.2 0 0 0-4.5 7c0 4.6 3.7 8.3 8.2 8.3h46.7a8 8 0 0 0 8.3-8.3c0-3-1.8-5.9-4.6-7.2l-4.1-2a7.9 7.9 0 0 1-4.7-7.5v-49.6c0-1.1.3-2 1-2.5.7-.6 1.3-.8 2.3-.8h15c1.1 0 2-.4 2.5-1 .6-.6.8-1.4.8-2.4v-9.8c0-1.2-.2-2-.8-2.6-.6-.5-1.6-1-2.5-1h-17c-.8 0-1.5-.1-2.1-1a52.7 52.7 0 0 1-12.8-22.8c-1-3.1-1.2-5.9-.8-8.4Zm17.1 25.8c-5.2-6-8.9-13.2-10.6-21 .8 1.7 2 3.8 3 6.6 1.9 4.5 4.7 7.9 8.6 10.4 7 4.1 15.7 4.4 23 .8 4.7-2.6 8.2-7 9.7-12.2.6-2.2 1-4.3 1-6.3a27.3 27.3 0 0 0-9.8-21.3 40 40 0 0 0-13.9-7.4 66 66 0 0 0-20.6-2.6 52 52 0 0 0-24.4 5c-6.3 3-11.5 7.8-15 13.7a34.8 34.8 0 0 0-4.3 19.1c.2 5.2 1.4 10.3 3.3 15.2h-4c-2 .3-4 1.4-5.4 3-2 1.9-2.8 4.2-2.8 6.6v10c0 2.6 1 5 2.8 7 2 1.9 4.3 2.7 6.9 2.7h6.8v46.6l-.1 1.2-.6.8h-.8l-.4.4h-.2c-.8.3-1.5.7-2.2 1.2l-1 .4c-4.8 2.4-7.9 7.3-7.8 12.8a14.6 14.6 0 0 0 14.5 14.7h46.7c4 0 7.5-1.4 10.4-4.5 2.6-2.8 4-6.4 4-10.2 0-5.5-3-10.6-8-13l-3.9-2-1.1-.6v-47.8h11.8c2.3 0 4.9-.8 7-3a9.8 9.8 0 0 0 2.6-6.7v-9.8a9.4 9.4 0 0 0-9.6-9.8h-15.6Z"/>
  <path fill="#dc525b" d="m705.3 314.5-37 38.2-37-38.2 9.6-17.5h54.5l9.9 17.7Z"/>
  <path fill="#231f20" fill-rule="evenodd" d="m668.3 356.5-2.5-2.6h-.3l-.3-.5L628 315l11.4-20.6H697l11.4 20.6-40.1 41.4Zm-.2-9.9 14.3-30.1h-29l14.7 30.1Zm9.8-8.3 20.5-21.6h-9.9v-.2L678 338.3Zm-20.1 0L647 316.5H637l20.9 21.8Zm-21.6-27.1h8.2l-3.8-8-4.4 8Zm18 0h25.3l-12.6-10.4-12.6 10.4Zm36.5 0h9.6l-5-9.2-4.6 9.2Zm-5-1.6h.3l-.2-.1 4.7-9.7h-16.3l11.6 9.7v.1Zm-36.7-1 10.5-8.8h-14.8l4.3 8.8Z"/>
  <path fill="#231f20" d="M152.8 275.6 256 280c10.4 0 29.1 33.2 62 49 39.3 18.8 78 12 78 12l-.5 80.8a30.1 30.1 0 0 1-30.2 30.1H182.7a30 30 0 0 1-30.1-30.1V275.6h.2Z"/>
  <g fill="#ffcd00">
    <path d="M231 346.4v-4.9h-9v-2l8-19.7h4.7v18.5h2.5v3.2h-2.5v5h-3.8Zm-4.8-7.9h4.7v-3.9l.4-9h-.4l-4.7 12.7ZM208.9 346.4v-2.3l5.9-11.5c.8-1.7 1.5-3.6 2-5.5l.1-1.5c0-2-.7-2.8-2.3-2.8a2 2 0 0 0-2 1c-.4.8-.6 2-.6 3.3v1.2H209l-.4-3.1c0-1 .2-1.8.8-2.6.4-1 1-1.6 2-2.2.7-.6 1.9-1 3.3-1 2.3 0 4 .6 5.1 1.8 1 1 1.6 2.4 1.6 4.4 0 .7 0 1.3-.4 2 0 1-.4 1.7-.8 2.5l-1.4 3.1-5.3 9.9h7.9v3.3h-12.4ZM199.4 346.6c-.6 0-1.2 0-2-.4-.7 0-1.5-.6-2.1-1a5.9 5.9 0 0 1-1.8-2.3c-.4-1.2-.6-2.6-.6-4.4v-11.2c0-1.7.2-3.1.6-4.1.6-1 1.2-2 2-2.4.6-.6 1.2-.8 2-1l2-.3c.5 0 1.3 0 1.9.3 1.8.4 3.3 1.7 4 3.4.3 1 .5 2.4.5 4.1v11.2c0 2-.2 3.2-.6 4.4-.4.9-1 1.7-1.7 2.3-.6.6-1.4.8-2 1-.6.2-1.3.4-2 .4Zm0-3.1c.8 0 1.4-.2 2-.8l.4-2.4V326c0-1.1 0-2-.6-2.5-.4-.6-1-.8-1.8-.8s-1.4.2-1.7.8c-.4.6-.6 1.4-.6 2.5v14.4c0 1 .2 2 .6 2.4.3.6 1 .8 2 .8ZM177.6 347.4v-2.3l5.9-11.5c.8-1.7 1.5-3.6 2-5.5l.1-1.5c0-2-.7-2.8-2.1-2.8a2 2 0 0 0-2 1c-.6.8-.8 2-.8 3.3v1.2h-3l-.5-3.1c0-1 .2-1.8.8-2.6.4-1 1-1.6 2-2.2.7-.6 2-1 3.5-1 2.1 0 4 .6 4.9 1.8 1 1 1.6 2.4 1.6 4.4 0 .7 0 1.3-.4 2 0 1-.4 1.7-.8 2.5l-1.4 3.1-5.3 9.9h7.9v3.3h-12.4Z"/>
  </g>
  <g fill="#ffcd00">
    <path d="M355.5 370.6h-10.2V363h30v7.6h-10.1v56.1h-9.9v-56.3ZM335.4 363h9.7v64h-9.9v-64ZM315.2 427.3c-1.7 0-3.3-.2-5-.6-2-.4-3.5-1.4-5.3-2.7-1.8-1.8-3.2-4-4-6.5a30.6 30.6 0 0 1-1.5-11.4v-22.7c0-4 .4-7 1-9.6.8-2.6 1.6-4.6 2.8-6 1.9-2.7 4.9-4.6 8.2-5 2.6-.5 5.2-.5 7.7 0 1.4.2 2.8.7 4.1 1.3 1.4.8 2.8 2 4 3.6 1.2 1.8 2.2 3.8 2.7 5.9.8 2.7 1 5.9 1 9.8v22.7c0 4.7-.4 8.4-1.6 11.4-.8 2.4-2.2 4.5-4.1 6.3a13.8 13.8 0 0 1-5.1 3l-5 .5Zm0-7.5a5 5 0 0 0 4.3-2.1c1-1.4 1.4-4.2 1.4-8.1v-29c.2-2.8-.3-5.6-1.4-8.2a4.5 4.5 0 0 0-4.3-2.4c-2 0-3.4.8-4.4 2.4a17.7 17.7 0 0 0-1.3 8.3v28.9c0 4 .5 6.7 1.3 7.9 1 1.5 2.4 2.3 4.4 2.3ZM266.3 363h10.5c1.4 0 3.1 0 4.9.3 1.8 0 3.5.4 5.1 1.2 3.8 1.4 6.9 4.3 8.3 8.1 1 2.4 1.4 5.1 1.4 8.7v1.5c0 9.7-2.8 15.8-8.7 18.5l10.6 25.6H288l-8.7-24H276v24H266v-64Zm10.9 33c3.5 0 5.9-.8 7.3-2.5 1.3-1.6 2-4.6 2-8.9v-5.1c0-3.2-.7-5.7-2-7.3-1-1.4-3.6-2.2-7.3-2.2H276v26h1.2Z"/>
    <path d="M246.3 370.6H236V363h30.1v7.6H256v56.1h-9.6v-56.3ZM210.4 363H235v7.6H220v19.1h11.8v7.7h-11.8V419h14.8v8h-24.5v-64ZM186.2 426.7h-10V363h9.8c2 0 4 0 6 .3 1.7 0 3.5.6 5.3 1.2 2 .8 3.5 2 4.9 3.6 1.4 1.5 2.5 4 3.3 6.7.8 2.7 1.2 6.5 1.2 10.8V404c0 4.5-.4 8.3-1.2 11-.8 2.8-2 5.1-3.3 6.7a14.3 14.3 0 0 1-5 3.5 25 25 0 0 1-5.5 1.2l-5.5.4Zm-.4-56.3v49.2h2c2.4 0 4.1-.6 5.5-1.3 1.2-1 2-2.4 2.6-4.6.6-2.3.8-5.3.8-9.4v-19c0-3.8-.2-7-.8-9.2-.4-2-1.4-3.7-2.6-4.5a11 11 0 0 0-5.5-1.2h-2Z"/>
  </g>
</svg>
