<svg xmlns="http://www.w3.org/2000/svg" viewBox="0 0 400 185">
<g fill-rule="evenodd">
<path
      d="M214.5 3c-2.3.2-4 .7-6 1.6-2.1 1-5 4-5 5.3l-.1.6c-.4.3-.4 4.9 0 5.7.6 1.5 1 2.2 1.9 3.2a12 12 0 0 0 5.5 3.5 26 26 0 0 0 12.7.3c6.3-1.7 9.6-6.4 8.4-12.2l-.4-1.2v-.4c0-.4-1.4-2.3-2-3a13.2 13.2 0 0 0-5.5-2.8l-1.9-.5c-.8-.2-6.2-.3-7.6-.2m47.4 0a69 69 0 0 0-13.7 2.4c-3.4 1.1-5.2 3.3-5 5.9l.4 1.2.2.5c0 .7 1.8 2 4.1 3.2 1.4.6 2.5 1.6 3 2.7a621.1 621.1 0 0 1-.5 58.1c0 .4-1.3 1.3-3.3 2.3-4 2-5.1 5.4-2.5 8.2 1.5 1.6.1 1.5 18 1.5h15.7l.9-.5c3.2-2 3.2-6.8 0-8.5a260.5 260.5 0 0 1-2.7-1.4c-.3 0-1.7-1.2-2.2-1.9-.9-1.3-.9-.6-.9-35.8 0-35.5 0-33.6-.9-35-1.7-2.7-4-3.3-10.6-2.9M33.7 8.1a43.3 43.3 0 0 0-20.8 7A31.7 31.7 0 0 0 6 22.3 19.6 19.6 0 0 0 3.6 28l-.5 2a31 31 0 0 0 1 13.1c3.6 8.7 10.4 13.2 20.2 13.2 4.5 0 10-1.5 11.8-3.2a16.5 16.5 0 0 0 4.5-4.9c3.7-7.3-.3-15.4-7.3-14.9-2.7.2-3.7.7-5.8 2.7-2 2-3 2.4-4.7 2.4-1.8 0-4-1.2-4-2.2 0-.1 0-.4-.2-.5-1-1-1-6.6 0-8.4l.2-.6c0-1.3 3.6-5 6.3-6.3 4.1-2 6.5-2.5 13.4-2.5h5l1.2.7a5 5 0 0 1 2.6 3.3c.5 2 .2 53.3-.2 54.2-.6 1-1.6 2-3.2 2.8-2.5 1.1-2.6 1.2-3.3 2-2 2.2-1.5 5.6 1.2 7.4l1 .7h15.7c15.7 0 15.7 0 16.5-.4.9-.4 1.8-1.2 1.8-1.5l.2-.4c.4-.3.7-1.5.7-2.6 0-2.3-.8-3.4-4-5-4-2-3.9-1.4-3.9-12.8V57l.4-.4c1.2-1 5.5-1 8 .3 1.3.7 3.9 3 4.4 4.1a29 29 0 0 0 1.5 2.7l1.2 2a59.8 59.8 0 0 1 3.3 5.7l.8 1.3.6 1a48.2 48.2 0 0 1 2.7 4.8 65 65 0 0 0 3.6 6.3 245.8 245.8 0 0 1 6.3 11A116.5 116.5 0 0 0 112 109a50.2 50.2 0 0 0 17.8 13.4l1.7.7 1.3.4 1.2.5 1.5.5a61.8 61.8 0 0 1 3.5.9 37.2 37.2 0 0 1 3.3.6l2.1.3c1.2.2 3 .3 7.6.3a43.8 43.8 0 0 0 15-1.9c6.7-2 11.8-6 13.6-11l.4-1c1-2.9 0-7.4-2.2-9.4-5.1-4.8-12.6-2.5-14.6 4.5l-1 3a8.2 8.2 0 0 1-5 5.2 28 28 0 0 1-7.8 0 37.5 37.5 0 0 1-17.1-14.5l-1.4-1.8a96 96 0 0 1-8-13 43.5 43.5 0 0 1-2.2-3.7l-1.1-1.8a237.4 237.4 0 0 0-4.5-8.3 204 204 0 0 1-4.5-8.1 45.4 45.4 0 0 0-10.2-12.1c-2.8-1.7-2.7-2.4.5-3.4l1.2-.5.4-.2a23.5 23.5 0 0 0 6-3.3c.9-.7 2-1.9 2.6-2.6 1.7-2.3 2.4-3.8 3.3-6.7.6-2.2.6-8.9 0-11.6A17.8 17.8 0 0 0 104 11.2a25.4 25.4 0 0 0-5.7-1.9l-2-.4-3-.3a88 88 0 0 0-5.3-.5c-3.6-.2-51.3-.2-54.4 0m48.2 10c3.8.8 6 2 7.8 4.7.4.6.6 1 1.3 2.7.8 1.8 1 9.1.4 11.3L91 38c-1 3.1-4.7 6.9-7 6.9l-.5.1c-.4.4-4.4.8-8.5.8h-4.2l-.5-.5-.5-.6v-26l.5-.4c.3-.3.8-.5 1-.6 1-.2 9.1 0 10.6.4m70.7 12.1a71.5 71.5 0 0 0-11.8 2.2l-.7.3-3.2 1.5c-6 3-9.2 8-8 12.1 1.5 5.5 8.4 7.8 13.9 4.8l1.2-.6c1-.6 3.2-2.3 5-4a78.6 78.6 0 0 1 4.5-4.1c1.7-1.7 2.9-2.2 5.4-2.3 2 0 2.8.1 3.6 1a7.4 7.4 0 0 1 1.7 3.2c.3.6.7 4 .7 6.3 0 3.1.3 3-4.8 3-14.2 0-21 1.4-27.3 5.8a17.7 17.7 0 0 0-5.5 7.3 21 21 0 0 0 0 13.3 12.7 12.7 0 0 0 1.7 3 16.7 16.7 0 0 0 8.5 5.7s.5 0 .8.2c3.2 1 10.6 1.2 14.3.5 3.6-.8 7.7-2.5 9.8-4.2 1.7-1.3 2.7-1.3 3 0 0 .3.2.6.3.6l.1.2c0 .4 1.7 2 2.6 2.4 1 .5 21 .7 23.1.3 1.8-.4 3.3-2 3.5-3.9.4-3-.7-4.5-4.5-6.1a6 6 0 0 1-2.8-2.4c-.7-1.5-.7-1.6-.7-15 0-15.3 0-15.5-1.8-19.4a18.5 18.5 0 0 0-8.6-8.6 24.5 24.5 0 0 0-5.4-1.9 277.7 277.7 0 0 1-4.9-1c-1-.1-12-.3-13.7-.2m65 .1-3.2.4c-3.5.3-6.9 1-9.4 1.8-5.6 1.7-7 7.5-2.4 10l2.5 1.1c.8.4 2 1.7 2.5 2.6.5 1.1.5 28.4 0 29.4s-1.7 2.3-2.4 2.6c-4.6 2-6.4 4.8-4.9 7.9 1.5 2.8.4 2.7 18.9 2.7h15.6l.8-.4a5 5 0 0 0 1.2-7.8l-.8-.7-1-.5-2-1.1a5 5 0 0 1-2.7-3.2c-.1-.5-.2-6.3-.2-19.1l-.1-19.9c-.6-5-4-6.7-12.4-5.8m92.5 0c-.3 0-1.2 0-2 .2a36 36 0 0 0-14 5 25.3 25.3 0 0 0-4.5 4.8 16 16 0 0 0-1.7 12.7l.3 1.2.1.6A20.2 20.2 0 0 0 301 66.7a30.6 30.6 0 0 0 4.3 1.5l1.6.4a88.1 88.1 0 0 1 4.1 1l2.3.5a50.2 50.2 0 0 1 4.4 1c5.2 1.2 7.8 2.9 8 5.2.3 5-11.3 6-18.5 1.5-1.2-.8-3-2.7-4.2-4.2-3.8-5.2-8.5-6.5-13-3.4-6.1 4.2-4 11 5 15.5a39 39 0 0 0 8.8 3 62.2 62.2 0 0 0 21.2.7l1.9-.4a23.1 23.1 0 0 0 4.8-1.4 401 401 0 0 1 4-2l1.3-.7.6-.4.6-.5c.2 0 3.2-3 3.3-3.2a28 28 0 0 1 1.9-3l.4-1.2c1.3-3.3 1.4-8.8.3-11l-.2-.6c0-.5-1.4-3-2.4-4.4a23.2 23.2 0 0 0-12.7-8l-.5-.3c-.6-.3-3-.9-5.9-1.4a54 54 0 0 1-4.6-1l-2-.4-2.5-.6-1.7-.5c-.8-.2-1.8-.5-2.8-1-3.4-1.4-3.5-5.5-.3-7 3-1.3 9.3-1 12.7.6 1.3.7 2.8 2 4.1 4 2.2 2.9 5 5.1 7 5.6 6.7 1.5 12.3-4.5 9.6-10.2-1.4-2.7-4.9-5.4-9.6-7.3l-1.8-.7a37 37 0 0 0-9.8-2 126 126 0 0 0-10.5 0M164.5 64c.7.7.5 5.6-.3 7.8-.9 2.1-3.6 5.8-4.5 5.8l-.9.4a3 3 0 0 1-1 .5c-.2 0-.5 0-.6.2-.3.3-3 .3-4.2 0-4.8-1.5-5-9.5-.3-13a11 11 0 0 1 3.6-1.8c.6-.5 7.7-.5 8.2 0m196 17.2a17 17 0 0 0-7.3 2.7c-.7 0-3.1 3.3-3.8 5.2a14.3 14.3 0 0 0 .1 8c0 .3 0 .6.2.8 2 3.7 1.8 4.3-1.2 4.3-2 0-2.6.1-3 .8-.2.1-.2 1.2-.2 2.4 0 3.2 0 3.2 2.4 3.2 2.3 0 3.4.2 3.8.6.6.5.6 21.3 0 22.4-.3.7-1.3 1.7-1.7 1.7-.4 0-1.8.8-2.4 1.4-1.4 1.4-.8 4 1 4.9 1.2.5 20.3.5 21.4 0 2-1 2.5-3.4.8-5.1-.3-.4-.6-.6-.7-.6-1.6 0-3.4-2.1-3.4-3.9v-11l-.1-9.5.4-.4c.4-.4.6-.4 4-.4 4.5-.1 4.1.1 4.1-3.2 0-3.5.3-3.3-4.7-3.3h-3.8l-.7-.7a22 22 0 0 1-4.2-7c-1-1.1-1.2-5.7-.3-6.7.6-.7 2.2-.5 3.2.5A22.2 22.2 0 0 1 367 93c0 .3 1.3 2 1.8 2.3 4.6 3 9.8.5 9.9-4.7 0-3.6-2-6.5-5.7-8a308.7 308.7 0 0 0-2.3-.9c-.2 0-.5 0-.7-.2a30 30 0 0 0-9.5-.5M215.8 93.4l-1.4.2a16.5 16.5 0 0 0-4.5 1c-.4 0-2.2.5-2.4.7l-.4.1a26.2 26.2 0 0 0-15.6 20.2c-.2 1.5-.2 9 0 10.8a26.8 26.8 0 0 0 3.6 9.7 23.1 23.1 0 0 0 14.4 10.3l1.8.4 2 .4c1.8.4 9.9.4 11.8 0 7.8-1.8 14.1-6.2 16.1-11.3 1.8-4.3-2-6.3-5.4-2.8a23.4 23.4 0 0 1-3.9 3.2 10.2 10.2 0 0 1-3.4 1.5c-2.3 1.2-9.4.5-12.3-1.2-.3-.3-.7-.4-.8-.4-1.5 0-7.2-6.9-7.2-8.7 0-.2 0-.4-.2-.5-.1-.1-.4-.8-1-2.8a38 38 0 0 1 0-13.6c.6-2.2.7-2.6 1.4-4.1 2.6-5.4 6.8-7.7 12.1-6.5 2 .4 4.8 3.5 4.8 5.2l.2.8.5 1.8c1.2 5.2 4.1 8 8.6 8 7.7 0 10-8.8 3.9-15.3a21.6 21.6 0 0 0-7.3-5c-4-1.7-11.8-2.8-15.4-2m49 8c-2.2.2-4 .5-5.2.8l-2 .6a18.5 18.5 0 0 0-12.5 21.8c2 12.1 13 18 28 15.2a16.6 16.6 0 0 0 3-1 22 22 0 0 0 6.5-3.4c3-2.4 5.3-6.1 6-9.5a25 25 0 0 0-2.5-15.4c0-.5-4.2-5.2-4.6-5.2l-.8-.4-1-.7-2-1a43 43 0 0 0-4.6-1.4 37.6 37.6 0 0 0-8.3-.4m37.3.4-1.4.2a22 22 0 0 0-6.5 1.4c-.5 0-2 1.6-2.1 2.3-.5 1.6.3 3.1 1.9 3.9 1.7.8 2 1 2.6 1.8l.6.7v9.6l-.1 9.5-.6.7c-.3.5-1 1-2 1.4-2.3 1.2-3.1 2.7-2.3 4.5 1 2 .4 2 12.3 2 11.2 0 10.8 0 11.8-1.3 1.4-1.8.6-3.9-2-5.2-1.4-.7-1.7-1-2.2-1.7l-.4-.8v-6c0-7.4.1-8.8 1.5-11.6 1.8-3.7 6.5-5.3 9-3 1.5 1.4 1.5 1.5 1.7 16.7.1 13.9.1 13.7 1 15.9a41 41 0 0 0 2 4.4 24.2 24.2 0 0 0 8 8.5 26.6 26.6 0 0 0 20.4 2.4l1.9-.5c2.6-.7 5.1-2.1 6.9-3.9 3.8-3.8 2-11-2.9-11-3 0-6.4 2.3-7.4 5.1-1 2.7-3.9 4.7-6.8 4.7-1.8 0-2.1 0-4-.8-.7-.4-3-2.4-3-2.8l-.5-.8c-1.3-2.1-1.3-2.3-1.4-20.1-.1-16.2-.2-17.5-.8-18.7l-.1-.6c0-.8-2-3.8-3.2-4.7-.9-.7-1.4-1-3-1.7-1.4-.5-8.8-1-10.2-.5-.4 0-1.2.3-1.9.5a17.4 17.4 0 0 0-5.2 2.7c-1.5 1.3-2.1 1-2.1-.9 0-.9-.7-1.8-1.6-2.2-.8-.3-6.8-.4-8-.1m-23 8.5a491 491 0 0 1 3.8 6.7c.7.4.6.5-6 7.3a4124.8 4124.8 0 0 0-9.9 9.9c-.1 0-2-1.7-4.2-4l-7.5-7.8c-5.1-5.2-4.7-4.6-3.6-6.5a49.8 49.8 0 0 0 3.1-5.6l.6-.8 11.7-.1h11.6l.5.9M71.5 120.7c-.8.8-.9 2.6 0 2.5.4 0 .5-.1.6-.9.4-1.8 2.2-1.9 2.2 0 0 .6-1.9 4.7-3 6.4-.2.4-.4.9-.3 1.2v.5h2.2c2.2 0 2.3 0 2.3-.5 0-.4 0-.4-1.3-.4-2 0-2 0 .5-4.5 1-2 1.2-3.5.3-4.4-.8-.7-2.7-.7-3.5.1m6.5-.2c-1.6 1.2-1.4 8.8.2 9.7.9.5 2.6.3 3-.3 1.2-1.7 1.1-8.1 0-9.3-.7-.6-2.5-.7-3.2-.1m6.2.2c-.8.8-.9 2.6 0 2.5.4 0 .5-.1.6-.9.2-1.3 1.3-1.9 1.9-1 .5.8.2 2-.7 3.6a21.3 21.3 0 0 0-2.3 5v.5H86c2.1 0 2.2 0 2.2-.5 0-.4 0-.4-1.3-.4-1.7 0-1.8-.1-1.3-1.2l1-1.7c1.4-1.4 2-5 1.1-6-.8-.7-2.7-.7-3.5.1m8.2 0a82.5 82.5 0 0 0-2.8 7.5l1.6.2c1.7 0 1.8 0 1.9 1.1 0 1.3 1 1.3 1.2 0 .1-.6.2-.8.5-1 .3 0 .5-.3.5-.4 0-.2-.2-.4-.5-.5-.4-.2-.4-.3-.4-3.8V120h-.9c-.8 0-.9 0-1 .6m-12.5.4c.5.4.6 1.3.6 4.6 0 3.4-.2 3.8-1 3.8-1 0-1.2-.4-1.3-4 0-3.8.1-4.4 1.3-4.6 0 0 .3 0 .4.2m13 3.8c0 2.9.1 2.6-.8 2.7-1.3.2-1.3 0-.3-3 1-3.2 1.2-3.2 1.2.3m31.4 12c-4 .9-5 3.2-5 12.8 0 10.4 1.5 13 6.7 12.8 4.8-.3 5.8-2.6 5.8-12.9 0-6.4 0-7.6-.6-9a5.3 5.3 0 0 0-1.3-2.2c-1-1-1.4-1.2-4-1.6-.3 0-1 0-1.6.2m-54.1 12.7v12.6h3.3c5.4-.2 6.9-.9 8-4 .9-2.3 1.2-11.8.5-15.3-.8-4.6-2.7-6-8.5-6h-3.3v12.7m13.8 0v12.6h9.2v-2.7h-2.7c-3.3 0-3 .4-3-4.7 0-4.7-.2-4.4 2.3-4.4 2.1 0 2.1 0 2.1-1.4 0-1.3 0-1.3-2-1.3-2.5 0-2.4.1-2.4-3.9 0-4.5-.3-4 3-4.1h2.6v-1.4l.1-1.3h-9.2v12.6m10-11.2v1.3h2l2 .1v11.2l.1 11.2h3.6V140h1.6c2.5 0 2.5 0 2.4-1.5v-1.2H100l-5.8-.1v1.4m12.7 11.2v12.6h3.5v-4.5c0-5 0-5 .7-5 .8 0 1.8 1.7 1.8 2.9l.2.5.5 1.1.5 1.4 1.2 3.6a13.4 13.4 0 0 0 3.7-.2 43.1 43.1 0 0 0-2.4-6.1 95 95 0 0 0-1.2-3l-.2-.7 1-.9c3.4-3.2 3-11.8-.8-13.5-1.5-.7-2.2-.8-5.4-.8H107v12.6m27-12.5c-.1.2-.1 24 0 24.6v.5h3.5v-25.2h-1.7l-1.8.1m4.5 1.2v1.4h2l2 .1v11.2c0 6.1.1 11.2.2 11.2h3.4l.1-11.2.1-11.2h2l1.9-.1V137h-11.8l.1 1.3M77.1 140c1.5 1 1.7 2.5 1.5 11.7 0 7.4-.3 8-3.2 8H74v-9.9l.1-10c.2-.3 2.5 0 3 .2m36.4.3c1.5 1.1 1.8 6.8.4 8.7-.5.8-2.6 1.5-3.4 1.2a61 61 0 0 1-.1-10.4c.3-.4 2.4 0 3 .5m13.6-.4c1 .8 1 .8 1 9.7v8.7c-.7 2-3.8 2-4.4-.2-.4-1.2-.2-16.5.2-17.1.7-1.3 2.1-1.8 3.2-1"
      fill="#f9cf04"
    />
<path
      d="M211.7.1c-.8 0-1.2.2-1.2.4l-.7.2-.8.2-.5.2c-.3 0-.6.1-.7.3a1 1 0 0 1-.6.3l-.7.4c-.3.3-.6.5-.9.5-.2 0-.3.1-.3.3l-.3.2c-.2 0-.3.1-.3.2s-.1.2-.3.2c-.4 0-2.1 1.7-2.1 2.1 0 .2 0 .3-.2.3 0 0-.2.1-.2.3 0 .1 0 .2-.2.2s-.3.2-.3.5-.1.5-.2.5l-.2.4c0 .3 0 .5-.3.5-.2 0-.2.2-.2 1l-.2.8c-.1 0-.2 1.3-.2 3.3 0 2.1 0 3.4.2 3.4l.2.6c0 .4 0 .7.2.8.2 0 .3.3.3.5 0 .3.1.5.2.5l.2.4c0 .3 0 .5.2.5s.4.3.6.6c.3.7 1.6 2.1 2 2.1l.1.3c0 .2.2.3.4.3.4 0 1 .4 1 .7 0 .1.1.2.4.2.2 0 .4.1.5.3 0 .1.3.3.6.3.2 0 .4 0 .4.2l.5.1c.3 0 .5.1.5.3 0 .2.2.3.6.3.4 0 .7 0 .7.2l1.3.2c.8 0 1 0 1 .2s.1.3.3.3c.2 0 .7.5.7.7 0 .1-.3.2-.7.2-.4 0-.6.1-.6.3 0 .2-.3.3-1.5.3-.8 0-1.5 0-1.5.2 0 0-.4.2-1 .2-.8 0-1.2 0-1.2.2-.1.2-.4.3-1 .3s-1 0-1 .2l-.6.2c-.5 0-.7 0-.7.3 0 .1-.2.2-.5.2l-.6.2c0 .1-.2.2-.5.2-.2 0-.4.1-.4.3 0 .1-.2.3-.5.3-.2 0-.4 0-.4.2 0 .3-.5.7-.9.7s-1.5 1.1-1.5 1.5c0 .2-.1.3-.2.3s-.2.2-.2.5c0 .2-.1.4-.3.5-.2 0-.3.4-.3.8l-.1.6c-.2 0-.2.8-.2 2.1s0 2.1.2 2.1l.1.5c0 .3.1.5.3.5.2 0 .3.1.3.4 0 .3 0 .5.2.5l.2.4c0 .5 1.5 2 2 2 .2 0 .4.1.4.3 0 .1.1.2.4.2.3 0 .5.1.5.2s.1.2.3.2c.1 0 .2.1.2.3 0 .2.2.3.6.3.4 0 .7.1 1 .4.2.3.5.5.6.5.5 0 .6.6.6 8.1 0 6.9-.1 8.5-.4 7l-.3-.4c-.1 0-.2-.1-.2-.3l-.2-.2c-.3 0-.7-.5-.7-1l-.5-.6c-.3-.2-.5-.5-.5-.6 0-.1 0-.2-.2-.2s-.3-.2-.3-.4c0-.4-.4-1-.7-1-.2 0-.2 0-.2-.3 0-.2-.2-.6-.5-.8-.3-.2-.5-.5-.5-.6 0-.1 0-.2-.2-.2s-.3-.2-.3-.4c0-.4-.4-1-.7-1-.1 0-.2-.1-.2-.3 0-.2-.2-.6-.5-.8l-.5-.7-.1-.2c-.1 0-.3-.1-.3-.4-.2-.4-.6-.8-.8-.8l-.2-.3c0-.2-.1-.3-.2-.3l-.2-.4c0-.2-.1-.4-.3-.5l-.3-.2c0-.3-.4-.7-.7-.7l-.2-.5c0-.3 0-.5-.2-.5l-.1-.2c0-.2-.2-.3-.3-.3-.2 0-.3-.2-.3-.5l-.2-.4c-.2 0-.4-.2-.5-.5l-.5-.5c-.2 0-.3-.2-.3-.4 0-.3 0-.5-.2-.5l-.1-.3-.2-.2c-.4 0-.8-.5-.8-1 0-.2 0-.3-.2-.3a.3.3 0 0 1-.3-.3c0-.2 0-.3-.2-.3l-.3-.4c0-.3-.2-.5-.3-.5l-.1-.3-.2-.3c-.4 0-.8-.4-.8-.9 0-.2 0-.3-.2-.3s-.3-.1-.3-.2c0-.2-.2-.4-.5-.7l-.4-.7c0-.3-.5-.8-.8-.8l-.1-.3c0-.2-.2-.3-.3-.3-.2 0-.3-.2-.3-.4 0-.4-.4-.9-.7-.9-.1 0-.2 0-.2-.2 0-.3-.6-.9-1-.9-.2 0-.3 0-.3-.2 0 0-.1-.2-.3-.2a.3.3 0 0 1-.3-.2c0-.2 0-.3-.2-.3s-.3 0-.3-.2c0 0-.2-.2-.5-.2-.2 0-.4 0-.4-.2 0-.3-.5-.7-1-.7-.2 0-.3-.1-.3-.3 0-.1-.2-.2-.5-.2-.2 0-.5-.2-.5-.3 0-.2-.3-.3-.6-.3-.2 0-.5 0-.5-.2 0 0-.2-.2-.6-.2-.4 0-.6 0-.6-.2s-.2-.3-.5-.3l-.6-.2-1-.2c-.7 0-.9 0-.9-.3 0-.2-.2-.2-.6-.2l-.8-.2-1.2-.2c-.7 0-1 0-1.1-.3-.1-.2-.5-.3-1.7-.3-1 0-1.6 0-1.6-.2a104.8 104.8 0 0 0-19.3.5c0 .2-.3.3-1.4.3-.8 0-1.4 0-1.4.2 0 0-.4.2-1 .2s-.9 0-1 .2c0 .2-.3.3-.7.3-.3 0-.6 0-.6.2l-.8.2c-.5 0-.7 0-.7.3 0 .1-.2.2-.5.2l-.4.2-.6.2c-.3 0-.6.1-.8.3a1 1 0 0 1-.6.3c-.2 0-.4 0-.4.2s-.2.3-.5.3c-.2 0-.4 0-.4.2 0 0-.2.2-.5.2s-.5 0-.5.3c0 .1 0 .2-.2.2s-.3.1-.3.2-.2.2-.5.2-.4.1-.4.3l-.3.2c-.2 0-.3.1-.3.2l-.2.2c-.3 0-2 1.6-2 1.9l-.3.1c-.1 0-.2-.1-.2-.4 0-.3-.1-.5-.3-.5a.3.3 0 0 1-.3-.3c0-.1 0-.2-.2-.2l-.2-.3c0-.2 0-.3-.2-.3s-.3-.1-.3-.4c0-.4-.4-.9-.7-.9-.1 0-.2-.1-.2-.4 0-.2-.2-.6-.5-.8-.3-.2-.5-.5-.5-.6 0 0 0-.2-.2-.3a.5.5 0 0 1-.3-.4c0-.3-.4-.8-.7-.8-.1 0-.2-.1-.2-.3l-.2-.2c-.1 0-.2-.2-.2-.5s-.1-.5-.2-.5c-.2 0-.4-.2-.5-.4l-.5-.5c-.2 0-.3-.2-.3-.4l-.4-.8c-.3-.2-.5-.6-.5-.8 0-.2 0-.4-.2-.4-.3 0-.7-.4-.7-.7 0-.1-.1-.2-.3-.2-.2 0-.3-.2-.3-.5 0-.2 0-.4-.2-.4l-.1-.3-.3-.3c-.2 0-.3-.1-.3-.4 0-.4-.4-.9-.7-.9-.1 0-.2 0-.2-.2s-.1-.3-.3-.3c-.2 0-.3-.2-.3-.5 0-.2 0-.4-.2-.4l-.1-.3c0-.2-.1-.3-.2-.3-.4 0-.8-.5-.8-.9 0-.2 0-.4-.2-.4a.3.3 0 0 1-.3-.3c0-.1 0-.2-.2-.2l-.2-.4c0-.2-.1-.4-.3-.5l-.2-.3c0-.2-.5-.7-.8-.7 0 0-.2-.1-.2-.3 0-.1 0-.2-.2-.2s-.3-.2-.3-.4c0-.4-.4-1-.7-1-.1 0-.2 0-.2-.2s-.2-.3-.5-.3c-.2 0-.4 0-.4-.2s-.5-.7-.8-.7c0 0-.2-.1-.2-.3 0-.1 0-.2-.2-.2s-.3-.1-.3-.2-.2-.2-.5-.2l-.4-.2c0-.3-.5-.7-1-.7l-.4-.3c0-.2-.3-.3-.5-.3a.9.9 0 0 1-.5-.3.9.9 0 0 0-.6-.2l-.4-.2-.4-.2c-.2 0-.5-.1-.5-.3-.1-.1-.4-.3-.7-.3l-.7-.1-.7-.2c-.5 0-.6-.1-.6-.3 0-.2-.3-.3-1-.3-.5 0-.9 0-.9-.2 0 0-.4-.2-1-.2-.8 0-1 0-1-.2s-.3-.3-1.4-.3c-.8 0-1.4 0-1.4-.2l-2-.3c-1.3 0-2.2-.2-2.2-.3 0-.2-60.4-.2-60.5 0 0 .2-.8.3-1.7.4l-1.6.2-1 .2c-.9 0-1.2 0-1.3.3 0 .2-.4.2-1 .2-.5 0-.9.1-.9.2s-.3.2-.7.2c-.4 0-.6.1-.7.3 0 .2-.4.3-.7.3-.4 0-.7 0-.7.2l-.6.1c-.4 0-.7.1-.8.3 0 .2-.3.3-.5.3-.3 0-.5 0-.5.2l-.4.2c-.3 0-.5 0-.5.2s-.2.3-.4.3c-.3 0-.6.1-.6.3 0 .1-.3.3-.6.3l-.4.1c0 .2-.2.2-.5.2s-.4.1-.4.3c0 .2-.2.3-.5.3-.2 0-.5 0-.5.2 0 0-.1.2-.3.2-.2 0-.4 0-.5.2 0 .2-.2.3-.4.3-.1 0-.2 0-.2.2l-.4.2c-.3 0-1 .6-1 .9 0 .1 0 .2-.2.2-.1 0-.3 0-.3.2l-.4.1c-.3 0-.5.2-.5.3l-.4.5c-.3.1-.5.3-.5.5l-.2.2c-.3 0-.7.5-.7.7 0 .2-.1.2-.3.2l-.5.5c-.1.3-.3.5-.5.5 0 0-.2 0-.2.2s-.5.7-.7.7L5 18c0 .3-.1.5-.3.5-.2 0-.3.1-.3.3 0 .1 0 .3-.2.3l-.1.2c0 .2-.2.3-.3.3-.2 0-.3.2-.3.5 0 .2 0 .4-.2.4 0 0-.2.2-.2.5s0 .5-.2.5-.3.1-.3.4c0 .3-.1.5-.2.5l-.2.4c0 .3 0 .5-.3.5l-.2.4c0 .3-.2.5-.3.6-.2 0-.3.3-.3.7 0 .4 0 .7-.2.7 0 0-.2.4-.2 1s0 .8-.2.8c-.4 0-.5 2-.5 6.7 0 5.2.2 7.9.5 7.9.2 0 .2.2.2.7l.2.8.3.7c0 .4.2.7.3.7 0 0 .2.2.2.5s0 .5.2.5.3.1.3.4c0 .3 0 .5.2.5l.2.4c0 .3 0 .5.3.5.1 0 .2.1.2.3l.2.3.2.4c0 .3 0 .5.2.5.3 0 .7.5.7.7a6 6 0 0 0 1.8 2c.2 0 .2.1.2.2 0 .3.5.8.8.8 0 0 .2 0 .2.2 0 .3 1 1.2 1.4 1.2.2 0 .4.2.4.3 0 .2.1.3.3.3.1 0 .3 0 .3.2l.4.2c.3 0 .5 0 .5.2 0 .3.5.7.9.7.2 0 .4.1.4.3l.5.2.7.3c.2.2.5.3.7.3.3 0 .5 0 .5.2 0 0 .3.2.7.2.5 0 .7 0 .7.2s.2.3.5.3.5.1.5.3l.4.7c.3.2.5.5.5.6 0 .1.1.2.3.2l.2.4c0 .3.3.7.7 1 .3.4.6.8.6 1l.3.3c.2.1.3.3.3.4 0 .2.1.3.3.3.1 0 .2.1.2.4 0 .2.3.6.7 1 .3.3.6.7.6 1 0 .2.1.3.3.3.2 0 .3.1.3.2 0 .3.4.8.7.8.1 0 .2.1.2.3 0 .3.2.6.5.9l.4.6s.1.2.3.2c.2 0 .3.1.3.4 0 .4.4.9.7.9l.2.4c0 .3 0 .5.2.5 0 0 .2.1.2.3 0 .1 0 .2.2.2s.3.2.3.3c0 .2.1.3.2.3l.2.2c0 .4.6 1 .9 1l.2.3c0 .2.5.7.7.7.1 0 .2 0 .2.2 0 .4 2 2.2 2.4 2.2.2 0 .4.1.4.3 0 .1.1.3.3.3l.2.1c0 .1.2.2.5.2s.4.1.4.3c0 .2.2.3.5.3s.5 0 .5.2l.4.1c.3 0 .5.1.5.3 0 .2.2.3.5.3.2 0 .4 0 .4.2l.5.3c.4 0 .7 1 .2 1l-.1.7c0 .5-.1.7-.3.7-.2 0-.3.3-.3 1.4 0 1.1 0 1.4.3 1.4.2 0 .3.2.3 1l.1.8c.2 0 .2.3.2.5 0 .3.1.5.3.5.2 0 .3.1.3.4 0 .3 0 .5.2.5 0 0 .2.1.2.3 0 .1 0 .2.2.2l.9.8c.3.4.8.7 1 .7l.3.2c0 .1.1.2.4.2.2 0 .5.1.5.3.1.2.6.2 2.4.2h2.2l.6.7.8.6c.1 0 .2.2.2.5l.2.5c.1 0 .2 0 .2.2s.1.3.3.3c.1 0 .3.2.3.4s.2.7.6 1c.3.3.7.7.7 1l.3.4c.1 0 .2 0 .2.2s.1.3.3.3c.1 0 .3.1.3.3l.1.3c.1 0 .2.1.2.3 0 .2.2.5.5.7l.4.6.3.2c.2 0 .3.2.3.4s.2.6.5.8l.4.7c0 .2.2.4.5.6l.4.6.3.2c.2 0 .3.2.3.4 0 .4.4 1 .7 1 .1 0 .2 0 .2.2 0 .1 0 .3.2.3l.2.4c0 .3 0 .5.3.5.1 0 .2.1.2.3l.2.2.3.5c.2.4.5.8.8.8l.2.3c0 .2 0 .3.2.3 0 0 .2.2.2.5 0 .2 0 .4.3.4l.2.2c0 .3.5.7.8.7l.1 25.8a685.8 685.8 0 0 0 .4 26.8c0 .8 0 1 .3 1.2.1 0 .3.3.3.6s0 .5.2.6c.2 0 .3.3.3.5l.2.4.2.4c0 .3.1.5.3.5.1 0 .2.1.2.3l.2.2.2.3c0 .5 1.6 2 2 2 .2 0 .4 0 .4.2s.1.3.3.3c.1 0 .3 0 .3.2l.4.2c.3 0 .5 0 .5.2s.2.3.4.3c.3 0 .5.1.5.3 0 .2.2.3.7.3.4 0 .8 0 .8.2l.9.1c.6 0 1 .1 1 .3.1.4 76.2.4 76.3 0 0-.2.4-.3 1.2-.3l1.2-.1.5-.2c.2 0 .4-.2.4-.3 0-.2.3-.3.6-.3.2 0 .4 0 .4-.3 0-.1.2-.2.5-.2l.4-.2.3-.2c.2 0 .3-.1.3-.3 0-.1.2-.3.4-.3.4 0 .9-.4.9-.7 0 0 0-.2.2-.2s.5-.4.8-.9c.3-.5.6-1 .8-1l.2-.5c0-.2 0-.3.2-.3 0 0 .2-.2.2-.5s0-.5.3-.5c.2 0 .2-.2.2-.7 0-.4.1-.7.2-.7l.2-1.2c0-1 0-1.2.3-1.2.2 0 .3-.8.3-6 0-5 0-5.8.2-5.8s.3.1.3.3c0 .2.2.2 1 .2l.8.2c0 .1.6.2 1.4.2 1 0 1.4 0 1.5.3 0 .2.5.3 2.6.3l2.5.1c0 .2 1.5.2 4.2.2s4.2 0 4.2-.2l2.4-.1c2 0 2.4 0 2.4-.3 0-.2.3-.3 1.4-.3.8 0 1.4 0 1.4-.2l.8-.2c.5 0 1 0 1.1-.2.2-.2.5-.3.9-.3.3 0 .5 0 .5-.2l.8-.3c.4 0 .7-.2.7-.3l.6-.1c.4 0 .7-.1.8-.3 0-.2.3-.3.5-.3.3 0 .5 0 .5-.2l.4-.2c.3 0 .5 0 .5-.2s.2-.3.5-.3l.4-.2.4-.2c.2 0 .4-.1.5-.3l.3-.2c.2 0 .3-.1.3-.2s.1-.2.3-.2l1-.7.9-.8c.1 0 .2-.1.2-.3 0-.1.2-.2.5-.2.2 0 .4 0 .4.2 0 .3.5.7 1 .7.3 0 .5 0 .5.2 0 .3.6.9 1 .9.1 0 .3 0 .3.2l.4.2c.3 0 .5 0 .5.2s.2.3.5.3l.4.2.6.2c.3 0 .5 0 .5.3 0 .1.2.2.5.2l.5.2c0 .1.2.2.6.2.5 0 .6 0 .6.4 0 .2.2.4.3.5.2 0 .3.2.3.3 0 .2.1.3.3.3.1 0 .2.1.2.3l.2.2c.1 0 .2.2.2.5l.2.5c.3 0 .7.5.7.9 0 .2.2.3.3.3.2 0 .3.1.3.3l.4.6c.3.2.5.5.5.7 0 .1.2.4.5.6l.4.6.3.2c.2 0 .3.2.3.4l.4.8c.3.2.5.5.5.7 0 .3.5.9.7.9.1 0 .2 0 .2.2s.1.3.2.3.2.1.2.3c0 .3.6 1 .9 1 .1 0 .2.1.2.3 0 .1 0 .2.2.2l.2.5c0 .3 0 .5.2.5s.3 0 .3.2.5.7.7.7c.2 0 .2.2.2.4s.6.9 1.4 1.7l1.4 1.6s.2.2.5.2l.4.1.3.2c.2 0 .3.1.3.3 0 .1.3.4.7.6l.7.5.5.1c.3 0 .5 0 .5.2 0 .3.5.7.9.7.2 0 .4.1.4.3.1.2.4.3.8.3.3 0 .6 0 .6.2l.5.1c.3 0 .5.1.5.3 0 .2.2.3.7.3.4 0 .7 0 .7.2l.8.2c.5 0 .7 0 .7.2s.2.3.9.3c.5 0 .9.1 1 .3.3.2.8.3 1.8.3.9 0 1.5 0 1.5.2l4.2.1a19.8 19.8 0 0 0 5.7-.3c1 0 1.5-.1 1.7-.3.2-.2.7-.3 1.2-.3.6 0 .8 0 .8-.3 0-.2.2-.2.7-.2l.8-.2.4-.2c.3 0 .5-.1.5-.3 0-.2.2-.3.5-.3l.4-.1c0-.1.2-.2.5-.2s.4-.1.4-.3c0-.2.2-.3.5-.3s.5 0 .5-.2l.4-.1c.3 0 .5-.2.5-.3 0-.2.1-.3.4-.3.2 0 .6-.2.8-.5l.8-.4c.2 0 .4-.1.4-.3 0-.1 0-.3.2-.3s.7-.4.7-.7c0-.1 0-.2.2-.2.3 0 .7-.5.7-.7l.2-.2c.3 0 1.3-1.1 1.3-1.5 0-.2.1-.4.3-.4.1 0 .2 0 .2-.2s.1-.3.2-.3.2-.2.2-.5.1-.4.3-.4c.2 0 .3-.2.3-.5 0-.2 0-.5.2-.5l.1-.7c0-.5.1-.7.3-.7.2 0 .3-.4.3-2.3 0-2 0-2.3-.3-2.3-.2 0-.3-.4-.3-2.2l-.1-2c-.2 0-.2-.3-.2-.6s0-.6.2-.6l.1.3c0 .2.2.3.3.3.2 0 .3.1.3.3 0 .1.1.2.3.2l.2.4c0 .4.4 1 .8 1 0 0 .2.1.2.4l.1.4.2.3c0 .2.2.3.3.3.2 0 .3.1.3.3 0 .1 0 .2.2.2l.2.3c0 .2.3.6.7 1 .4.4.7 1 .7 1.1l.2.4c.3 0 .7.6.7 1l.5.6c.3.2.5.4.5.6 0 .1 0 .2.2.2s.7.5.7.7c0 .1.1.2.3.2l.2.2.3.2c.2 0 .3 0 .3.2 0 .3.6.9 1 .9.1 0 .3 0 .3.2 0 0 .1.2.3.2.1 0 .2 0 .2.2s.2.3.5.3.5.1.5.2 0 .2.2.2.3.1.3.3c0 .2.2.2.7.2l.6.2c0 .1.2.2.5.2.2 0 .4.1.4.3 0 .2.2.3.7.3.5 0 .8 0 .9.2 0 .2.3.3.9.3.5 0 .8.1.8.2l1.2.2c.9 0 1.2 0 1.3.3 0 .2.7.2 4.3.2 3.5 0 4.1 0 4.1-.2 0-.3.3-.3 1.7-.3 1 0 1.6 0 1.6-.2l.8-.2c.3 0 .8-.1 1-.3l.9-.2c.4 0 .6-.1.6-.3 0-.2.2-.3.5-.3s.5 0 .5-.2c0 0 .2-.2.6-.2.4 0 .7 0 1-.4.1-.3.5-.5.7-.5.2 0 .5-.1.5-.3l.5-.2c.4 0 .9-.4.9-.8 0 0 .2-.2.5-.2.2 0 .4 0 .4-.2s.1-.3.2-.3c.3 0 .7-.5.7-.7l.2-.2c.3 0 1.9-1.6 1.9-2 0-.1 0-.2.2-.2l.1-.3c0-.5 1-.4 1 .2l.3.4.2.3c0 .2.1.3.2.3.3 0 .7.5.7.9 0 .2.2.4.3.4.2 0 .3 0 .3.2s.5.7.7.7l.2.4c0 .5.4 1 .7 1l.2.5c0 .3.1.5.3.5.2 0 .3 0 .3.2s.5.7.7.7c.1 0 .2 0 .2.2 0 .4.7 1 1.2 1l.6.1c0 .1 3.5.2 9.9.2a149 149 0 0 0 10.8-.4c.8-.1 1.5-.5 1.5-.9 0-.1 0-.2.2-.2s.3-.2.3-.4c0-.3 0-.5.2-.5 0 0 .2-.2.2-.5 0-.7.2-1.4.4-1.4l.1.3c0 .2.2.3.3.3.2 0 .3.2.3.4 0 .4.4.9.7.9.1 0 .2.1.2.3 0 .1 0 .2.2.2l.2.4.2.5c.2 0 .3.2.3.4l.2.2.3.4c.1.5.5 1 .8 1 .1 0 .2 0 .2.2 0 .1 0 .3.2.3 0 0 .2.1.2.3l.4.7.5.6c0 .1.1.2.3.2l.2.4c0 .2.2.6.5.8.3.3.5.6.5.8 0 .2 0 .4.2.4s.7.5.7.7c0 .1.1.2.3.2.1 0 .2.2.2.5l.2.4.2.3c0 .2 0 .3.2.3.3 0 .7.5.7.9 0 .2.1.4.3.4.2 0 .3 0 .3.2l.4.6.5.7c0 .2.2.4.5.6l.4.6.2.2c.1 0 .5.3.8.7.4.3.8.6 1 .6.1 0 .3.1.3.3l.4.3c.2 0 .3 0 .3.2 0 .3.5.7.9.7.2 0 .4.1.4.3 0 .1.1.2.4.2.3 0 .5.1.5.2s.1.2.3.2c.1 0 .2.1.2.3 0 .2.2.3.8.3.4 0 .7 0 .7.2l.5.1c.3 0 .4.1.4.3 0 .2.2.3.7.3.3 0 .6 0 .7.3 0 .1.3.2.7.2.4 0 .7.1.7.2s.5.2 1.2.2c1 0 1.2 0 1.2.3a42.2 42.2 0 0 0 13.4-.7c.4 0 .6 0 .7-.2 0-.2.4-.3.7-.3.5 0 .7-.1.7-.3 0-.2.2-.3.7-.3l.7-.1c0-.2.2-.2.5-.2s.5-.1.5-.3c0-.2.1-.3.4-.3.3 0 .5 0 .5-.2 0 0 .1-.2.3-.2.1 0 .2 0 .2-.2s.2-.3.4-.3c.4 0 1.5-1 1.5-1.3 0 0 0-.2.2-.2s.7-.4.7-.7c0-.1.1-.2.3-.2.1 0 .3-.2.3-.5l.1-.4.2-.4c0-.2.1-.4.3-.5.2 0 .3-.6.3-2.8 0-2.2 0-2.8-.3-3a.9.9 0 0 1-.3-.5c0-.2 0-.4-.2-.4l-.1-.3c0-.2-.3-.5-.5-.7-.3-.2-.5-.5-.5-.6l-.2-.2c-.2 0-.3-.2-.3-.5l-.2-.4-.2-.3c0-.2-.1-.3-.3-.3l-.2-.4a1 1 0 0 0-.4-.6c-.2-.2.3-.3 3.5-.3 3 0 3.9 0 4-.2 0-.2.3-.3.5-.4.2 0 .4-.2.4-.4 0-.3.2-.5.3-.5l.1-.4c0-.3.1-.5.3-.5.2 0 .3-.2.3-1.2s0-1.2-.3-1.2c-.2 0-.3-.1-.3-.4 0-.3 0-.5-.2-.5l-.1-.5c0-.2-.1-.4-.3-.4a.3.3 0 0 1-.3-.3c0-.1 0-.3-.2-.3l-.3-.4c0-.2-.4-.6-.7-1-.4-.3-.6-.7-.6-1 0-.2-.2-.3-.3-.3a.3.3 0 0 1-.3-.3c0-.2 0-.3-.2-.3 0 0-.2-.1-.2-.3l-.4-.7-.5-.4v-9.4a94.2 94.2 0 0 1 .4-9.7c0-.3.5-.3 3.7-.3 4.8 0 4.4.3 4.4-3.5 0-2.4 0-3-.3-3-.1 0-.3-.3-.3-.5 0-.4-.4-1-.7-1 0 0-.2 0-.2-.2 0-.1-.1-.3-.3-.3a.5.5 0 0 1-.2-.4c0-.4-.5-.9-.8-.9l-.1-.2c0-.2-.1-.3-.2-.3s-.2-.2-.2-.5-.1-.4-.3-.4a.3.3 0 0 1-.3-.3c0-.2.4-.3 1.9-.3 1 0 1.8 0 2-.2l.3-.2c.2 0 .6-.3 1-.7l.9-.7.2-.3c0-.2 0-.3.2-.3 0 0 .2-.2.2-.5 0-.2 0-.4.2-.4.6 0 .6-6.1 0-6.6a.8.8 0 0 1-.2-.6l-.2-.4c-.1 0-.2-.1-.2-.3 0-.3-.6-1-1-1l-.1-.4c0-.3 0-.5-.2-.5-.1 0-.2-.1-.2-.3 0-.1-.1-.2-.3-.2a.3.3 0 0 1-.2-.3c0-.2-.1-.3-.2-.3s-.2-.1-.2-.3c0-.2-.2-.5-.5-.7l-.4-.7c0-.2-.1-.4-.3-.4-.2 0-.3-.2-.3-.3l-.4-.6c-.3-.2-.5-.6-.5-.8 0-.2 0-.4-.2-.4s-.7-.5-.7-.7c0-.2-.1-.2-.3-.2-.2 0-.3-.2-.3-.4 0-.3-.2-.6-.4-.9-.3-.2-.5-.5-.5-.6 0-.4-.4-1-.7-1-.1 0-.2 0-.2-.2 0-.1-.1-.3-.3-.3-.1 0-.3-.1-.3-.3 0-.4-.4-1-.7-1-.1 0-.2 0-.2-.2s0-.3-.2-.3c0 0-.2-.2-.2-.5 0-.2 0-.4-.2-.4a.3.3 0 0 1-.3-.3c0-.2 0-.3-.2-.3 0 0-.2 0-.2-.2 0-.3-.6-1-.9-1l-.2-.3c0-.2 0-.3-.2-.3l-.1-.5c0-.3-.2-.4-.3-.4-.2 0-.3-.1-.3-.2 0-.3-.5-.8-.7-.8l-.2-.4c0-.3-.1-.5-.2-.5s-.2-.1-.2-.3c0-.1-.1-.2-.3-.2l-.2-.4c0-.4-1-1.5-1.3-1.5l-.2-.4c0-.3-.1-.5-.2-.5s-.2-.1-.2-.3c0-.1 0-.3-.2-.3-.3 0-.7-.4-.7-.8 0-.2-.2-.5-.5-.7l-.4-.7c0-.2-.2-.4-.3-.4-.2-.1-.3-.3-.3-.4 0-.2 0-.3-.2-.3s-.7-.4-.7-.7c0-.1-.1-.2-.3-.2-.1 0-.3 0-.3-.2s-.4-.7-.7-.7l-.2-.2c0-.3-.5-.7-.8-.7-.2 0-.5-.2-.7-.5-.3-.2-.6-.5-.8-.5-.3 0-.4 0-.4-.2s-.2-.3-.8-.3c-.4 0-.7 0-.7-.2l-.8-.3c-.4 0-.7-.2-.7-.3l-1-.1c-.6 0-.8 0-.8-.3 0-.2-.3-.3-1.7-.3-1 0-1.6 0-1.6-.2l-2.8-.1-2.8.1c0 .1-.7.2-1.6.2-1.5 0-1.7 0-1.7-.3s-.6-1-1-1c0 0-.1-.2 0-.4 0-.5 1-1 1.8-1 .3 0 .5-.1.5-.3 0-.2.2-.3.5-.3.2 0 .4 0 .4-.2 0 0 .1-.2.3-.2.1 0 .3 0 .3-.2s.1-.3.4-.3c.4 0 1.4-1 1.4-1.5 0-.2.1-.4.3-.4.1 0 .3 0 .3-.2s0-.3.2-.3l.1-.5c0-.3.1-.4.3-.4.2 0 .3-.4.3-2.6s0-2.6-.3-2.6c-.2 0-.3-.2-.3-.6l-.1-.8c-.2 0-.2-.2-.2-.4s-.2-.5-.5-.7c-.2-.2-.5-.4-.5-.6 0-.1 0-.2-.2-.2s-.3-.2-.3-.4c0-.3-.2-.6-.5-.7l-.4-.5-.3-.3c-.2 0-.3-.1-.3-.4 0-.3 0-.5-.2-.5l-.2-.2-.1-.3c-.4 0-.8-.5-.8-1 0-.1 0-.3-.2-.3a.3.3 0 0 1-.3-.3l-.2-.3-.3-.4c0-.3-.2-.5-.3-.5l-.1-.3-.2-.2c-.4 0-.8-.5-.8-1 0-.2 0-.3-.2-.3s-.3-.1-.3-.2c0-.2-.2-.4-.5-.7l-.4-.7c0-.3-.5-.8-.8-.8l-.2-.4c0-.4-1-1.5-1.2-1.5l-.2-.4c0-.5-.4-1-.7-1-.2 0-.3-.2-.3-.3l-.1-.3c-.1 0-.2-.1-.2-.3 0-.2-.2-.5-.5-.7-.2-.2-.5-.5-.5-.8 0-.2-.2-.4-.3-.4-.1 0-.2-.1-.2-.3 0-.1-.1-.3-.3-.3a.3.3 0 0 1-.3-.2l-.1-.3-.2-.4c0-.1-.2-.5-.5-.6l-.4-.6-.3-.3c-.2 0-.3-.1-.3-.3 0-.3-.2-.6-.5-.9l-.4-.7c0-.1-.2-.4-.5-.6l-.4-.5c0-.2-.2-.3-.3-.3-.2 0-.3-.1-.3-.4 0-.2-.3-.6-.6-1-.4-.3-.7-.7-.7-.9l-.3-.4-.2-.3-.5-.5c-.2-.1-.5-.3-.5-.5 0-.1 0-.2-.2-.2s-.7-.5-.7-.7l-.4-.2c-.3 0-.5-.1-.5-.3 0-.2 0-.3-.2-.3l-.6-.4c-.3-.3-.6-.5-.8-.5-.3 0-.4 0-.4-.2 0 0-.2-.2-.5-.2s-.4 0-.4-.2-.2-.3-.5-.3-.5-.1-.5-.2l-.4-.2c-.3 0-.5-.1-.5-.3l-.4-.2c-.3 0-.5-.2-.5-.3 0-.2-.2-.3-.5-.3-.2 0-.4 0-.4-.2l-.8-.2c-.5 0-.7 0-.7-.2s-.2-.3-.7-.3l-.8-.2-.6-.2c-.5 0-.7 0-.7-.3 0-.2-.2-.2-.7-.2-.4 0-.7-.1-.7-.2l-1.2-.2c-1 0-1.2 0-1.2-.3 0-.2-.4-.3-1.8-.3-1.3 0-1.8 0-2-.2a72.6 72.6 0 0 0-16.9.5c0 .2-.2.3-1 .3-.5 0-1 0-1 .2l-.8.2c-.6 0-.9 0-1 .2 0 .2-.3.3-.7.3-.3 0-.7 0-.7.2l-.7.2c-.3 0-.6.1-.6.3l-.6.2-.4.2c0 .1-.2.2-.5.2-.2 0-.5.1-.6.3 0 .1-.3.3-.5.3-.3 0-.5 0-.5.2s-.1.3-.4.3c-.4 0-.5 0-.5-.5 0-.4 0-.6-.2-.6l-.1-.3c0-.4-.6-1-1-1l-.1-.5-.2-.4c-.1 0-.2-.1-.2-.3 0-.1-.1-.3-.3-.3a.3.3 0 0 1-.3-.2c0-.2 0-.3-.2-.3l-.1-.4c0-.1-.2-.5-.5-.6-.3-.2-.5-.5-.5-.7 0-.2 0-.4-.2-.5-.2 0-.3-.2-.3-.3 0-.2-.1-.3-.2-.3-.3 0-.7-.5-.7-.9 0-.2-.2-.5-.5-.7-.2-.2-.5-.5-.5-.7 0-.3 0-.4-.2-.4s-.3-.1-.3-.2c0-.3-.5-.8-.7-.8-.1 0-.2-.1-.2-.4 0-.2-.2-.5-.5-.8l-.4-.6-.3-.2c-.2 0-.3-.2-.3-.4 0-.4-.4-.9-.7-.9l-.2-.4c0-.3-.1-.5-.2-.5s-.2-.1-.2-.3c0-.1-.1-.3-.3-.3a.3.3 0 0 1-.2-.2c0-.2-.1-.3-.2-.3s-.2-.1-.2-.3c0-.3-.6-1-1-1l-.1-.3-.2-.3-.2-.4c0-.3 0-.5-.3-.5a.3.3 0 0 1-.2-.2c0-.2-.1-.3-.2-.3l-.2-.4c0-.2-.2-.5-.5-.7l-.4-.5c0-.2-.2-.3-.3-.3-.2 0-.3-.1-.3-.3 0-.4-1-1.5-1.3-1.5 0 0-.2-.2-.2-.5l-.1-.4-.2-.3c0-.2-.1-.3-.3-.3-.2 0-.3-.1-.3-.4 0-.4-.4-.9-.7-.9l-.2-.2c0-.2 0-.3-.2-.3 0 0-.2-.2-.2-.5l-.3-.4-.2-.3c0-.2-.1-.3-.3-.3-.2 0-.3-.2-.3-.4 0-.4-.4-.9-.7-.9-.1 0-.2-.1-.2-.3 0-.1-.2-.2-.5-.2-.2 0-.4-.1-.4-.3 0-.3-.6-.6-1-.7-.3 0-.5 0-.5-.2a68 68 0 0 0-21.1 1l-1 .2c-.7 0-1 0-1 .2s-.1.3-.7.3c-.4 0-.7 0-.7.2 0 .1-.2.2-.5.2-.2 0-.4 0-.4.3 0 .1-.2.2-.5.2l-.4.2c0 .1-.2.2-.5.2s-.5.1-.5.3c0 .1 0 .3-.2.3l-.3.1-.3.2c-.4 0-1 .6-1 1l-.3.1c-.1 0-.3.2-.3.5l-.1.4-.2.5c0 .3-.1.5-.3.5-.2 0-.3.2-.3.6 0 .4 0 .7-.3.7-.4.2-.4 4 0 4.1.2.1.3.4.3.9s.1.7.3.7c.2 0 .3.1.3.4 0 .3 0 .5.2.5l.1.3.2.2c.3 0 .8.5.8.8 0 0 0 .2.2.2s.3 0 .4.2c0 .2.3.3.5.3s.3.1.3.2l.5.2c.3 0 .5 0 .5.3 0 .1 0 .2.2.2s.3.1.3.2.2.2.5.2.4.1.4.3c0 .1.2.3.4.3l1 .5.5.6v3l-.1 3-.4-.3c-.3-.2-.4-.5-.4-.7 0-.3-.2-.4-.3-.4-.2 0-.3-.1-.3-.2 0-.3-.5-.7-.7-.7-.1 0-.2-.2-.2-.5s-.2-.6-.5-.8l-.4-.6-.3-.2c-.2 0-.3-.1-.3-.4 0-.4-.4-.9-.7-.9l-.2-.4c0-.3 0-.5-.2-.5 0 0-.2-.1-.2-.3 0-.1-.1-.2-.3-.2a.3.3 0 0 1-.2-.3c0-.2-.1-.3-.2-.3l-.2-.2c0-.4-.6-1-.9-1l-.2-.4c0-.1 0-.2-.2-.2 0 0-.2-.2-.2-.5s0-.5-.3-.5a.3.3 0 0 1-.2-.2c0-.2-.1-.3-.2-.3l-.2-.4c0-.1-.2-.4-.5-.6l-.4-.6c0-.1-.1-.3-.3-.3-.1 0-.3-.1-.3-.3 0-.4-1-1.5-1.3-1.5l-.1-.5-.2-.4c-.1 0-.2-.1-.2-.3l-.2-.3c-.3 0-.7-.5-.7-.8 0-.2-.2-.5-.5-.7-.2-.2-.5-.6-.5-.8l-.3-.4-.2-.3c0-.2-.1-.3-.3-.3-.1 0-.3-.1-.3-.4 0-.4-.4-.9-.7-.9l-.2-.2c0-.2 0-.3-.2-.3l-.1-.3c0-.2-.1-.3-.2-.3-.3 0-.8-.4-.8-.7 0-.1 0-.2-.2-.2s-.3 0-.3-.2c0 0-.1-.2-.3-.2a.3.3 0 0 1-.3-.2c0-.2-.2-.3-.4-.3-.3 0-.5-.1-.5-.2s-.2-.2-.5-.2c-.2 0-.4 0-.4-.3 0-.1-.2-.2-.5-.2s-.4-.1-.4-.3c0-.2-.2-.3-.5-.3s-.5 0-.5-.2c0 0-.3-.2-.8-.2-.6 0-1 0-1.1-.3a86 86 0 0 0-12.8-.3m9.3 2.5 2 .4.7.1c.5 0 2 .6 2.3.8l.5.2c.1 0 .4 0 .5.2l.9.6c1.7.9 4 3.8 4 4.8l.3 1c1.3 2.3-.1 7.2-2.8 9.8-3.4 3.2-9.4 4.5-16.6 3.3a8.8 8.8 0 0 1-2.7-.8l-.5-.2a9 9 0 0 1-2.8-1.4 11 11 0 0 1-2.5-2.5l-.1-.3c-.2 0-.8-1-.8-1.4 0-.2 0-.4-.2-.6-.2-.1-.4-1.2-.6-2.9-.1-.7.3-3.3.6-3.9l.5-1.1a8.2 8.2 0 0 1 2.6-3.1 12.6 12.6 0 0 1 4-2.1c.3-.2 1.1-.4 3.2-.7l2.3-.4c1-.2 2.6-.1 5.2.2m47.5 0c2.8.8 5.1 3 5.1 5A1237.3 1237.3 0 0 1 274 42c0 31.2 0 33.5.4 34 .4.8 2.2 2.3 2.6 2.3.2 0 .5 0 .6.2l1.3.7c2 1.2 3.2 2.9 3.2 5 0 .8-.5 2.2-.8 2.4l-.1.3c0 .4-1.7 2-2.3 2-.3 0-.6.2-.6.3-.2.3-31 .2-31.8 0-3.5-1.3-4.8-6-2.3-8.5.6-.7 1.7-1.5 2-1.5.2 0 .3 0 .3-.2l.5-.3a5.5 5.5 0 0 0 3.8-3.5c.5-1.6.5-54 0-55.6-.3-1.2-1.7-2.7-2.5-3-.3 0-.5-.1-.5-.2s-.1-.2-.3-.2l-1-.4-.9-.5c-.3 0-2-1.7-2-2l-.3-.5c-.6-.6-.4-3.7.4-4.8.5-.9 2.4-2.5 2.8-2.5l1-.4c.6-.3 1.3-.5 1.6-.5.2 0 .6 0 .7-.2a11 11 0 0 1 3.3-.7l1.7-.4a8 8 0 0 1 1.8-.2c.6 0 1.2 0 1.3-.2l1.6-.1 3.5-.3a14 14 0 0 1 5.5 0M86 7.5l4.8.4a39.2 39.2 0 0 1 17.5 5c0 .2.5.6 1 1a18.7 18.7 0 0 1 5.1 6.4l.3 1c.6 1 .6 1.2.6 1.7l.2.7c.4.3.6 2.8.7 6.2a17.8 17.8 0 0 1-.8 7.3 18.9 18.9 0 0 1-3.4 6.2 14.7 14.7 0 0 1-3.5 3A25.4 25.4 0 0 1 101 50l-.7.3c-.9.2-.6 1.6.3 1.6.1 0 .3 0 .4.2l.4.3c1 .4 3.5 2.7 5.4 5.2a43.5 43.5 0 0 0 2.4 3l.1.3c.2 0 1.5 1.9 1.7 2.3l.5.8.4.8c0 .2.1.3.2.3l.3.5.2.5.6 1a81.8 81.8 0 0 0 3.7 6.8 157.8 157.8 0 0 0 4.2 7.9c.2 0 1 1.4 1.9 3.1a8.1 8.1 0 0 0 .8 1.4c.1.4.5 1 .7 1.1l.3.6c0 .2.4.8.7 1.2l.5 1 .6.8 1 1.6a26.9 26.9 0 0 0 1.8 3l.2.4a66.2 66.2 0 0 1 3.3 4.7l.8 1a26.7 26.7 0 0 0 1.3 1.6l.3.5.8 1a55.3 55.3 0 0 0 10.6 9.5c.3 0 1.5.7 1.5.8 0 0 .2.2.5.2l.5.1 1 .3c.6 0 1.2.2 1.3.3.5.5 6.2 0 7.6-.7.8-.4 3.1-2.7 3.1-3.2l.3-.7c.6-1.2.6-1.3.6-1.7l.3-1 .5-1.6c.1-.4.3-1 .5-1l.2-.6.5-.9.4-.7c0-.6 3.2-2.8 4-2.8.2 0 .5-.1.6-.3.2-.1 1-.2 2.3-.2 1.5 0 2.2 0 2.4.2.1.2.4.3.6.3.4 0 1.6.5 1.7.8h.3l1.8 1.4c.5.5 1.2 1.5 1.5 2.3l.5 1 .2.9c0 .3 0 .6.2.7.1.1.2.7 0 1.6 0 2.5-.3 3.3-1 4.6l-.1.5-.8 1.3-.7 1.3a27.6 27.6 0 0 1-4.4 4c-.6.6-1 .8-2 1.3l-1 .5c-.8.5-2.3 1.2-2.5 1.2l-.7.2c-.2.2-.5.3-.8.3l-.5.2-.6.2c-.3 0-.7.1-1 .3l-1 .2-.7.2-.8.2-1.3.2a82.4 82.4 0 0 1-20.3-.2c-2.6-.4-3.4-.5-3.6-.7l-.6-.2c-.5 0-1.2-.2-2.4-.7a35.1 35.1 0 0 0-2.9-1l-.5-.2c-.3 0-1.7-.5-1.8-.7l-.3-.2a22.6 22.6 0 0 1-4.8-2.4l-1.3-.7a20.4 20.4 0 0 0-2.8-1.8l-2.1-1.7a65 65 0 0 1-12.4-14.2 38.5 38.5 0 0 1-3.8-5.8l-.5-.8-.5-1a31.6 31.6 0 0 0-2.4-4.1 18.4 18.4 0 0 1-1.3-2.5l-.5-.8c-.7-1.3-1.2-2.2-1.5-2.5a1 1 0 0 1-.2-.6c0-.2-.1-.3-.2-.3l-.5-.8a45 45 0 0 0-2.8-5l-.4-.6a114.3 114.3 0 0 0-4.4-7.5 17.6 17.6 0 0 1-1-1.8 27 27 0 0 1-1.8-3.1l-.5-.8-1.5-2.5a15 15 0 0 0-3.9-3.9l-.7-.3-.8-.3-.4-.1c-.1-.1-1.2-.2-2.7-.2H71l-.5.5-.6.6V74.8l.5 1a4.3 4.3 0 0 0 2.3 2.3l1 .5.8.5.3.1c.6 0 2.3 1.5 2.9 2.7 1.2 2.1-.6 6.6-2.8 7-.3 0-.6.2-.8.3-.2 0-6.4.2-15.6.2-15.6 0-16.1 0-16.8-.7-.1-.2-.3-.3-.4-.3-.4 0-1.5-1.2-1.9-2.1-.7-1.5-.5-5 .3-5l.2-.3c0-.4 1.3-1.4 2.6-2 2.8-1.3 3.5-1.9 4.2-3.4.5-1.2.6-52.6 0-54.1-.5-1.5-1.5-2.5-3.3-3.1a38 38 0 0 0-12.1.2c-.5 0-1 0-1 .2l-.9.2a19.2 19.2 0 0 0-6.1 2.8c-.5.2-1.6 1.1-2.1 1.8l-.8.8c-1.6 1.6-2.6 6-2 9 0 1 .2 1.7.3 1.7l.2.5c0 .4.9 1.6 1.2 1.6l.3.2c0 .2.7.3 2.2.3 2.4 0 2.5 0 4.6-2.2.6-.6 1.2-1 1.3-1l.4-.3c1-1 6.9-1.8 7.4-1l.4.1.6.3c.1.2.4.3.5.3.2 0 .5.2.7.5l.6.4c.6 0 1.9 2 2.6 4 .5 1.3.5 6 0 7.4-.6 1.8-.8 2-1 2v.4a13.8 13.8 0 0 1-4.5 4.6c0 .2-1 .8-1.4.8l-.3.1-.7.5-1.3.6-.9.3-.5.1-.7.2-.8.2A26.5 26.5 0 0 1 14 54.4l-1-.4-.8-.5-.8-.4-.2-.2-.3-.3A31 31 0 0 1 6 47.7c-.3-.3-.6-.8-.6-1l-.1-.3c-.1 0-.5-.5-1.6-2.8l-.1-.6c0-.1-.1-.5-.3-.7l-.3-1.1-.1-.8-.3-1.2-.3-3.2a23.3 23.3 0 0 1 4.4-15.4c1.4-2.3 5.8-6.1 8.6-7.6l1-.5a67.6 67.6 0 0 1 7.1-3c.6-.2 2.2-.7 2.8-.7l.8-.1c.4-.3 2.2-.6 4.7-.8l3.4-.3c2.3-.2 47.6-.2 50.8 0m-15.4 11-.6.7v12.5c0 14 0 13.3 1.3 13.7a53 53 0 0 0 13-1l.8-.3.9-.4.8-.4c.2 0 .3-.2.3-.3l.2-.2c.5 0 2.8-3 2.8-3.5 0-.2 0-.4.2-.4l.2-.4a27 27 0 0 0-.5-14.8l-.5-.7c-.7-1.3-3.5-3.6-4.4-3.6a.8.8 0 0 1-.5-.2c-.1-.2-.5-.3-.8-.4-3.7-.6-4.7-.7-8.4-.8h-4.2l-.6.6M162 29.9a40.5 40.5 0 0 1 16.4 4c.6.3 1 .7 1.1.8l.3.1c.2 0 .4.2.6.5l.6.4c.3 0 3 3.1 3.4 4a142 142 0 0 1 2 4c0 .2 0 .4.2.4l.1.6.3.9c.4.8.5 4 .6 16.9.2 14.3 0 13.3 1.2 14.7l.7.6.4.2c.1.2.4.3.6.3l.5.1a4 4 0 0 0 1.5.8c.2 0 1.4 1 1.9 1.4.6.6 1.4 2.5 1.4 3.4 0 .7-.6 2.6-.8 2.6 0 0-.2.1-.2.3 0 .5-1.8 2-2.5 2-.2 0-.4.2-.5.3 0 0-4 .2-11.2.2a137.1 137.1 0 0 1-11.7-.4c-.8 0-3.2-2-3.2-2.5l-.1-.3c-.1 0-.3-.2-.3-.5-.3-1.1-1.2-1.3-2.2-.3l-1 .7-.4.3-.2.2-1 .5a3 3 0 0 1-1 .4l-.2.2-.2.2-.9.3-1.3.5-.8.3a42.4 42.4 0 0 1-20-.3l-2.1-1a15.7 15.7 0 0 1-5.4-4.5l-1.8-3.7a4 4 0 0 1-.3-1.3l-.2-.8c-.3-.3-.3-7.2 0-8.1a444 444 0 0 0 1-3.2 8.6 8.6 0 0 1 1.6-2.8A20 20 0 0 1 141 55l.7-.2.6-.2a5 5 0 0 0 1.3-.3 6 6 0 0 1 1.7-.2c.4 0 .9 0 1-.2.3-.3 4.9-.6 11-.7 6.7 0 6.8 0 7-.5a27.2 27.2 0 0 0-1.3-10.2c-.1 0-.3-.2-.3-.4-.4-1.2-4.1-2.5-4.6-1.7l-.7.2c-.8 0-2.3.8-3.3 1.7a121.4 121.4 0 0 1-10 8.4 8.8 8.8 0 0 1-3 1.5 9 9 0 0 1-6.6.2c-.1 0-.4 0-.6-.2l-1.1-.5-.8-.4c0-.1-.1-.2-.3-.2-.6 0-3-3-3-3.8a1 1 0 0 0-.2-.6c-.4-.3-.5-3.4-.1-4l.3-1c0-.3.1-.6.3-.7l.2-.6c0-.2.1-.3.2-.3l.2-.2a14.3 14.3 0 0 1 5-5l.7-.4a66 66 0 0 1 7.4-3c.4 0 .7-.2.7-.3l1.1-.3 1.2-.2c.1-.1.6-.2 1.3-.2l1.4-.2 3.5-.4c1.8 0 3.2-.2 3.3-.2.1-.2 3.6-.2 6.6 0m63.2.1 1.3.5.4.2c.3 0 1.8 1.1 2 1.5 0 .2.1.3.2.3s.2.1.2.3l.1.3c.3.1.8 1.3.8 1.9l.2.8c.1 0 .2 7.3.2 19.9 0 18.1.1 19.7.4 20.2.6 1 1.5 1.8 2.8 2.5l1.2.8.3.1c.8 0 2.2 1.3 3 2.7 1.2 2.3-.4 6.5-2.7 7-.3 0-.6.2-.8.3-.4.2-31.2.2-31.4 0l-.6-.3a7.4 7.4 0 0 1-2.8-2.6c-.4-.7-.4-4.1 0-4.3l.2-.3c0-.6 2-2.5 2.6-2.5l.4-.1c0-.1.6-.5 1.3-.8a5.3 5.3 0 0 0 2.8-2.6l.4-1V61l-.1-14-.3-.5c-.2-.9-1.5-2-3.5-3-3.3-1.7-4-2.7-4-5.5l.1-2 .5-.8c.8-1.5 3.7-3 7.2-3.7a532.7 532.7 0 0 0 5.2-1l2.5-.3 2.7-.2c.9 0 1.8 0 2-.2.9-.2 3.8-.2 5.2.1m94 0a99.9 99.9 0 0 1 9 1.4l.6.2c.3 0 .7.1 1 .3l.9.3.4.1.5.2.8.3 2.8 1.2c.1 0 .2 0 .2.2 0 0 .1.2.3.2.1 0 .4 0 .5.2l.9.6.8.5.9.7c.9.7 2.9 2.7 2.9 3l.1.3c.3.2.8 1.3.8 1.9l.2.6.2 1.6c0 .8-.1 1.5-.2 1.5l-.2.5c0 .8-2.6 4-3.3 4l-.2.2c0 .2-1 .8-1.4.8-.2 0-.5 0-.6.2-.1.2-1 .2-2.5.2-1.6 0-2.4 0-2.5-.2a1 1 0 0 0-.6-.2 3 3 0 0 1-1-.5l-1-.5c-.3 0-3.5-3.3-4.4-4.5-2-2.6-4.4-4.5-6-4.5l-.6-.1c-.3-.2-1.9-.5-4.2-.8a18.6 18.6 0 0 0-5.3 1c-.3 0-1.1.4-1.5.7-1.2 1.2-1.2 3.5.1 4.7a12 12 0 0 0 4.4 1.9l.5.1c0 .1.5.3 1 .3.4 0 .9.2 1 .3l1.1.3c1.4.1 3.2.5 3.4.7l.8.1 1.4.3 1.3.3.9.1c0 .1.5.3 1 .3.8.1 2.1.4 2.8.7l.9.2 2 .7.9.3c.3 0 .6.2.6.3l.3.1a16.3 16.3 0 0 1 3.8 1.9c1.4 0 7.8 6.7 7.8 8l.3.8a16.9 16.9 0 0 1-.3 14.4l-.4.8-.5.8a23.1 23.1 0 0 1-14 9c-.4 0-.8.2-.8.3l-.8.2c-.3 0-.8 0-1 .2a51 51 0 0 1-12.5.7 48.2 48.2 0 0 1-17.2-3.7 22.6 22.6 0 0 1-4-2c-1.7-.7-5.7-5-5.7-6.2l-.2-.4c-.3-.3-.3-3.3 0-3.6l.2-.6c0-.3 1-2.1 1.3-2.1l.2-.3.1-.3.6-.4a9.8 9.8 0 0 1 3.4-2 11 11 0 0 1 6 .1l1 .5c.5 0 3.6 3.2 4.4 4.5a12.6 12.6 0 0 0 5 4.3l1 .5 1 .5.7.1 1 .3c.2.1.6.3 1 .3a31.3 31.3 0 0 0 8 0c1.2 0 3.4-1.2 3.8-2 .7-1.5-.8-4.5-2.2-4.5l-.4-.1a15.7 15.7 0 0 0-5.5-2c-.4-.1-1.7-.4-3.5-.6a7 7 0 0 1-1.5-.3l-1-.3a14 14 0 0 1-3.2-.7 2 2 0 0 0-.8-.2c-.3 0-.5 0-.6-.2l-.8-.2-1-.3-1.6-.5-1.1-.5s-.1-.2-.3-.2a20.5 20.5 0 0 1-5-2.3c-.4 0-1.4-.8-2.4-1.7l-.4-.2a19.7 19.7 0 0 1-5.6-7.6l-.3-1a29 29 0 0 1-.4-10c0-.3.1-.8.3-1.1l.6-1.4.4-.8.5-.8.5-.7.1-.2a19.2 19.2 0 0 1 5.4-4.8 23.6 23.6 0 0 1 6-2.8c.2-.2.6-.3.9-.3.2 0 .5 0 .5-.2l1-.3 1-.2 1-.2 1.2-.2 2.5-.4c1.2 0 2.2-.2 2.2-.2.2-.2 5.4-.1 7.5 0M157.3 64.2l-.6.2c-2.3 0-5.6 3-6.6 5.8-.4 1.2-.4 4.6 0 5.2l.2.7.2.3c.1 0 .2 0 .2.2s1.1 1.2 1.5 1.4l.4.2c0 .6 4.5.5 5.4 0 .2-.2.5-.3.7-.3.2 0 .3-.1.3-.2l.2-.2c.4 0 3.1-2.5 3.1-2.8l.5-.8.4-.8.3-.7.4-1c.6-1.3.8-6.4.4-7-.3-.4-6.8-.5-7-.2m212 17c.6 0 1.1.2 1.3.3l.5.2c.5 0 2.2.6 2.2.8l.3.1c.8 0 3.9 2.7 4.5 4.1a8 8 0 0 1 1 3c.1 1.3 0 2.7-.5 3.6-.8 1.7-1.4 2.5-2.5 3l-1 .5c-.5.3-4.2.3-4.3 0l-.5-.2a1 1 0 0 1-.7-.2c-.1-.2-.3-.3-.5-.3-.4 0-1.8-1.6-2.3-2.6l-1.4-3.2-.5-.6-.5-.7c0-.4-1.5-1.4-2.2-1.4-1 0-2 4.2-1 4.7l.2.8c0 .4.2.8.3.9l.2.4a20.2 20.2 0 0 0 3.6 6.3c1.2 1.4.8 1.3 5.1 1.3 4.9 0 4.6-.2 4.7 3 .1 4.1.2 4-4.2 4-3.1 0-3.4 0-4 .4l-.4.4V120a122.2 122.2 0 0 0 .3 11c0 .5 1 1.4 2.4 2 1.4.8 1.7 1 2.1 1.6.5.8.5 3.1 0 3.6l-.2.5c0 .2-.4.5-1 1-.6.3-18.5.6-21.1.3-2-.2-3.3-2.2-2.8-4.2.3-1.3.7-1.8 2.4-2.7 1.8-.9 2.3-1.3 2.5-2.3.3-1 .3-21 0-21.5 0-.2-.7-.3-2.8-.3-3.6-.2-3.5 0-3.5-3.7 0-3.5 0-3.5 3-3.5s3-.3 2-2.5l-.7-1.7-.1-.5c-.9-.8-.9-7.7 0-8.5l.1-.5c0-.3.6-1.4.8-1.4 0 0 .2-.1.2-.3 0-.2 1-1.6 1.7-2.1l.6-.6.5-.3.7-.5 1-.5.2-.1 2-1 1.6-.3c.5 0 1-.2 1-.3.2-.2 8.6 0 9.8.2M222.7 93l2.5.4c1.5.2 3 .6 3.2.8l.6.1.9.3c.2.2.5.3.7.3.3 0 .4 0 .4.2l.3.2a16 16 0 0 1 4.7 2.4 39.4 39.4 0 0 1 4.7 5 19.6 19.6 0 0 1 1.6 4.3c.4 1.6-.4 5.6-1.2 5.6l-.1.2c0 .5-1.6 2-2.8 2.5-1 .6-6.4 1-6.7.4l-.6-.3c-.3 0-.6-.2-.6-.3l-.2-.1c-.7 0-3.3-3.1-3.6-4.3 0-.3-.2-.6-.3-.6l-.1-.5-.2-.6c-.2-.2-.6-1.7-.7-2.8 0-.4-.2-.8-.3-.9l-.1-.5c0-.4-1-2.3-1.7-2.9-2-2-7-2.4-10-.6-1.3.8-3.8 3.7-3.8 4.4 0 .1 0 .2-.2.2l-.2.4c0 .2 0 .4-.2.6a1 1 0 0 0-.3.6l-.2.6-.2.4-.3.8-.2 1-.2 1.1a31.4 31.4 0 0 0 1 15.6 21.2 21.2 0 0 0 3.4 5.7 17.6 17.6 0 0 0 8.6 5c.1.2 7.5.2 7.7 0a6 6 0 0 1 1.3-.5 6.8 6.8 0 0 0 2.2-1c.7-.4 2-1.5 3.6-3 2-1.9 2.2-2 4-2 2.5 0 3 .6 2.8 3.3 0 .9-.7 2.7-1 3.1l-.9 1.2a20.4 20.4 0 0 1-9 6.8c-2 1-2.3 1-2.7 1l-.5.2-.6.2a47.8 47.8 0 0 1-16.6 0 8.8 8.8 0 0 1-2.7-.7.8.8 0 0 0-.5-.2c-.2 0-.5 0-.6-.2l-1.8-.7c-.2 0-.4-.1-.5-.3a.9.9 0 0 0-.6-.3l-.3-.1-.4-.3c-1.5-.8-2.1-1.2-2.7-1.7a23.8 23.8 0 0 1-6.1-7c0-.1 0-.3-.2-.3l-.7-1.3a55 55 0 0 0-1-2.4l-.1-.5c-.1 0-.3-.3-.3-.7 0-.4-.2-.8-.3-.9l-.2-.8c0-.4 0-1-.2-1.1a31.5 31.5 0 0 1 4.5-23.7c0-.3 2.8-3.5 4-4.4a28.8 28.8 0 0 1 22.8-6.3m49.5 8.3a20.6 20.6 0 0 1 12.3 6.3c.7.9 1.8 2.4 1.8 2.6 0 .2.1.2.2.2l.3.5c0 .3.2.5.3.5l.1.2.3.8a23.8 23.8 0 0 1 1.2 14.3c0 2-3.4 7.2-5.7 8.8l-1 .7a22.2 22.2 0 0 1-10 4l-1.9.5a29.9 29.9 0 0 1-9.7-.4c-1.7-.3-2.6-.5-2.9-.7a1 1 0 0 0-.6-.2l-.5-.2-.8-.3c-.3 0-.6-.2-.6-.3l-.3-.1-1-.5c-.2-.3-.6-.5-.7-.5l-.6-.4-.7-.5c-.8 0-4.3-4.3-5.3-6.3a76 76 0 0 0-1-2.7l-.1-.7a26.7 26.7 0 0 1 .1-12.8c0-1.7 5.4-9 6.7-9l.5-.3a18.5 18.5 0 0 1 7.1-3l1-.2 1.6-.3a41.1 41.1 0 0 1 10 0m36.8 0c1.8.3 2.8 1.4 2.8 3 0 .5.1.8.3.8.3 0 .7 0 .8-.2l.7-.4a28.4 28.4 0 0 1 5.4-2.7c.2 0 .6 0 .7-.2a26.2 26.2 0 0 1 10.6.2c1.7.3 5.5 2.7 5.5 3.6 0 .2 0 .3.2.3l.3.4c0 .3.1.5.2.5l.2.2.3.8a13 13 0 0 1 1.2 4.6c.1 1 .3 8.7.3 17.4.1 12.8.2 15.9.4 16.4 2.4 6 8.4 8.3 12.2 4.6a17.2 17.2 0 0 0 2.9-4c0-.3.1-.4.2-.4s.2-.1.2-.3c0-.3 2.2-2.5 2.5-2.5l.4-.2c.2-.2.4-.3.7-.3l.6-.2c.2-.3 4-.3 4.3 0l.5.2c.6 0 2.6 2.4 2.6 3l.2.6c.2.2.3.9.3 2s-.1 1.8-.3 2a1 1 0 0 0-.2.6c0 .3-.2.8-.5 1.2l-.4.8c0 .2-1.5 1.6-2.3 2.2-.7.5-3.5 2-4.4 2.3a19.2 19.2 0 0 1-4 1.1l-1.7.4a52.7 52.7 0 0 1-11.2-.4c-.5 0-1.5-.3-2.3-.6l-.8-.3c-.1 0-.4 0-.5-.2l-1.7-.7a21.4 21.4 0 0 1-10.2-10.3c0-.1 0-.2-.2-.2 0 0-.2-.1-.2-.3 0-.1 0-.5-.2-.8a17 17 0 0 1-1-2.1l-.2-1-.2-.8c-.6-1.1-.7-2.5-.7-15.5a201 201 0 0 0-.4-13.7c0-.7-.9-1.8-1.8-2.3-.6-.3-4.1-.4-4.3 0l-.3.2c-.7 0-3.4 3.2-3.4 4l-.1.5c-.9 1.6-.9 1.9-.9 9.5v7.3l.6.6.8.6 1 .4c.3.3.8.5 1 .5.3 0 1.4 1.5 1.7 2.4.4 1.4-1.1 4-2.3 4l-.6.2c-.2.3-19 .3-20 0-3.8-1.1-3.7-5.3 0-7.1 1.2-.6 1.7-1 2.2-1.9.3-.6.3-18.5 0-19.1-.4-.7-1-1.2-2-1.6-3.8-1.6-4.1-5.3-.7-7.2a4 4 0 0 1 1.2-.5l.5-.1c.8-.8 11-1.8 13.5-1.3m-53.7 8.6-.7 1.3c0 .2-.2.4-.3.4l-.1.3-.2.5s-.4.4-.6.9a565.6 565.6 0 0 0-2 3.5c-.6.8-1 .2 11.6 13.2l3.8 3.9 2-2a178.3 178.3 0 0 0 8.4-8.7l4.8-5 .6-.6-.4-.8a159 159 0 0 0-3.9-7c0-.2-22.8-.1-23 .1m8 1.6c0 .2-.5.9-1.3 1.4l-1.6 1.4-1 1-.4-.5-.4-.7c0-.2 0-.3-.2-.3s-1-2-.8-2.3c.1-.2 5.8-.2 5.8 0m12.3.2c0 .5-1.5 3.5-1.8 3.6-.3.1-.7-.1-1.5-.8l-1.2-1c-1.2-1-2-1.7-1.8-2a18 18 0 0 1 6.3.2m-7.5 1.6a99.5 99.5 0 0 1 3 2.6c0 .3-9.6.4-9.8 0l1.1-1 2-1.7c1.9-1.6 1.7-1.6 3.7.1m10.2.2.4.8c.3.2.8 1.4.8 1.6 0 .3-3.4.4-3.6 0a10 10 0 0 1 1.4-3.1c.4-.2.5 0 1 .7m-22.4-.3c.3.2 1.5 2.6 1.4 2.8a9 9 0 0 1-3.4 0l.4-.9.7-1.4c.4-.7.5-.8.9-.5m2.7 5.3 1 1.8c.3.7 1 2.3 1.7 3.5 1.7 3.5 1.5 3.6-1.2.8l-4-4c-2.4-2.5-2.4-2.6.2-2.6 2 0 2 0 2.3.5m13.8-.1-.7 1.8-4.3 9c-.6 1.3-.9 1.2-1.7-.3a4496.5 4496.5 0 0 0-4.8-10.4v-.5h5.7c5.4 0 5.7 0 5.8.4m6.3-.1a1357.2 1357.2 0 0 0-6.4 7.1c-1.8 2-2 1.7-.5-1.3 3.2-6.8 2.6-6.1 5-6.1 1.6 0 2 0 2 .3m-204.7 1.4c1.5.5 2.2 2 1.6 3.6a10.4 10.4 0 0 1-1.6 3c0 .4-.6 1.5-.8 1.6-.7.3-.1 1 .8 1 1 0 1.6.3 1.6.9 0 .9 0 1-2.7 1-3.5 0-3.4 0-1.2-4.1l.6-1.4.1-.3c.3-.2 1.2-2.4 1.2-3 0-1.1-1.5-.8-1.5.4-.1 1.5-1.4 1.8-1.7.4-.5-2.2 1.4-3.8 3.6-3.1m6.1 0c.8.2 1.5.8 1.8 1.6.3.8.2 7.2-.1 7.9-1 2-3.7 2.2-5 .3-.4-.7-.4-8 0-8.7.8-1.1 2-1.5 3.3-1.1m6.5 0c.8.2 1.5.8 1.5 1.3l.2.4c.3.2.3 1 0 1.7-.4 1.2-2.5 5.3-2.8 5.4-.4.2.2.4 1.1.4 1.3 0 1.6.1 1.6 1 0 .8.1.8-2.5.8-3.5 0-3.5.1-1.3-4.2 1.6-3.2 2.1-4.9 1.5-5.1-.6-.2-1 .2-1 1 0 .7-.5 1.3-1.1 1.3-.6 0-1.3-2-.8-2.3l.2-.4c0-1 2-1.7 3.4-1.3m7.6.2c.1.1.2 1.2.2 3.6 0 3.4 0 3.4.4 3.6.7.3.7 1.8 0 1.8-.3 0-.4.1-.4.5 0 1.6-1.7 2-1.8.5 0-1-.2-1-2-1-1.2 0-1.5 0-1.6-.3-.2-.4-.2-1 0-1.3l1-2.4a48.1 48.1 0 0 1 1.6-4.2c0-.8 2-1.4 2.6-.8M79 121.8c-.2.6-.2 6.4 0 7 0 .3.2.4.6.3h.5v-3.7c0-3.8 0-4-.7-4-.2 0-.4.2-.4.4m13.7 1.3c0 .5-.6 2.2-.8 2.5-.3.4-.2 1.4.1 1.5.8 0 .9-.2.8-2.3v-1.7m35.1 13.6.6.2c1.1 0 3.4 2.8 3.4 4.2l.2.7c.6.6.4 13.7-.1 16.2-.8 3.2-4.2 5.6-6.9 4.9l-1.2-.2c-.3 0-.7-.1-.8-.3l-.5-.3c-.1 0-.6-.3-1-.8-1.1-1.1-1.3-1.3-1.3-1.7 0-.2-.1-.5-.3-.7l-.2-.8-.2-.7a69 69 0 0 1-.2-7.8 69 69 0 0 1 .4-8.4 190.1 190.1 0 0 0 .9-2.2c.3-.7 1.1-1.5 1.8-1.8 2-.8 2.2-.8 3.7-.8.8 0 1.6.2 1.7.3m-51 .1c1.9.2 4 1.5 4.7 3l.4.9c.5 1 .6 2.1.6 9 0 7 0 8.5-.6 9l-.2.5c0 .8-2.2 2.6-4 3.2-1.1.4-7.4.4-7.7 0-.2-.1-.3-3.2-.3-12.7V137l.4-.3c.5-.3 3-.3 6.7 0m16.6 1.6v1.7h-2.3c-3.5.1-3.1-.3-3.1 3.7v3.4H90c2.4 0 2.5 0 2.5 2 0 1.7 0 1.7-2.4 1.7h-2v8.1h2.6c3.2 0 3.3 0 3.3 2 0 1.8.2 1.7-5.3 1.6h-4.8v-12.8l.1-13c.2-.2 1.1-.3 4.9-.2h4.6v1.8m12.5-1.7a28.8 28.8 0 0 1 6.9 0c1 .2 2.8.8 2.8 1l.2.1c.4 0 1.7 1.5 2.1 2.3l.5 1.1c.3.6.2 6.6-.1 7.4-.7 1.7-1 2.2-1.8 3-1 1-1 1.2 0 3l.2.9c0 .2 0 .4.2.4.1 0 .2 0 .2.2l.2 1a93.7 93.7 0 0 1 2 5.4c-1.3.8-4.8 0-4.8-1.1 0-.2 0-.5-.2-.7l-.7-2-.3-.7-.3-.9c0-.1 0-.3-.2-.4l-.1-.5-.3-.8c-.2-.2-.3-.6-.3-.9 0-.2 0-.5-.2-.5l-.2-.4c0-.3-.2-.4-.6-.5h-.5v4.6c0 3.3 0 4.6-.2 4.8-.3.3-3.7.3-4 0-.1-.2-.2-3.6-.2-11.3v-11h-2l-2 .1s-.2 5.1-.2 11.2l-.1 11.1H100c-1.4 0-1.9 0-2-.2-.2-.1-.3-3.3-.3-11.2v-10.9H96c-1 0-1.8-.2-2-.3-.3-.3-.3-3 0-3.3.3-.2 11.3-.3 12 0m32 0c7-.2 12-.2 12.2.1.4.4.5 2.9 0 3.2l-1.9.3h-1.7l-.1 11.2-.1 11.1H142v-11.1c0-8.7-.1-11.1-.3-11.2l-2-.1H138v11c0 12.9.3 11.5-2.4 11.5l-2-.1v-12.8c0-14.9-.3-13.3 2.3-13.2h2m-63.6 13.2v9.8h1c1.2 0 2.2-.7 2.6-1.8.5-1.2.5-14.5 0-15.8-.4-1.5-1-2-2.7-2h-1v9.8m36.5-4.9v5l1.2-.2c1.6-.2 2-.7 2.4-2.7.8-4.5-.2-7-2.8-7h-.8v5m14-4.6c-.9 1-.9 1.2-.9 9.4 0 7 0 7.8.3 8.4.9 1.9 2.7 1.8 3.5 0 .4-1.1.4-15.7 0-16.9-.5-1.3-2.1-1.8-2.9-1"
      fill="#241c23"
    />
<path
      d="m215.8 2.4-2.3.4c-2 .3-3 .5-3.1.7l-.6.2c-.4 0-2.6 1.1-3.5 1.9-1.2 1-2 2-2.6 3l-.5 1.2a12 12 0 0 0-.6 4 9.6 9.6 0 0 0 .8 3.4c0 .3.6 1.4.8 1.4l.1.3a11 11 0 0 0 5.3 4h.5c.4.5 2.4 1 5.6 1.3 2.7.3 7.4-.3 9.5-1.1 4.8-2 7.3-5.4 7.3-10 0-1.4 0-2.1-.3-2.5l-.2-.9c0-1-2.4-4-4.1-4.8l-.9-.6a1 1 0 0 0-.5-.2l-.5-.2a7 7 0 0 0-2.3-.8L223 3c-.8-.5-5.8-.8-7.2-.6m47.2.1a39.3 39.3 0 0 1-5.1.4l-1.3.2a8 8 0 0 0-1.8.2l-1.7.4c-2.1.3-3.1.5-3.3.7l-.7.2c-.3 0-1 .2-1.5.5l-1.1.4c-.4 0-2.3 1.6-2.8 2.5-.8 1-1 4.2-.4 4.8l.3.5c0 .3 1.7 2 2 2l1 .5 1 .4s.2 0 .2.2l.5.3c.8.2 2.2 1.7 2.5 2.9.5 1.6.5 54 0 55.6-.5 1.7-2 3.1-3.8 3.5l-.5.3c0 .1-.1.2-.3.2-.3 0-1.4.8-2 1.5-2.5 2.6-1.2 7.2 2.3 8.4.8.3 31.6.4 31.8.1l.6-.3c.6 0 2.3-1.6 2.3-2l.1-.3c.3-.2.8-1.6.8-2.5 0-2-1.1-3.7-3.2-4.9l-1.3-.7-.6-.2c-.4 0-2.2-1.5-2.6-2.3-.3-.5-.3-2.8-.4-34a1237.3 1237.3 0 0 0-.4-34.5c0-1.2-1.7-3.5-3.2-4.2-2.3-1.1-3.5-1.3-7.4-.8m-40.2.7c2 .5 2.3.6 4 1.4a9.7 9.7 0 0 1 2.5 15.6c-4 3.8-12.3 4.8-19.3 2.5-9.3-3-9.5-15.1-.3-18.6a20 20 0 0 1 4.1-1.2c1.2-.2 7.8 0 9 .3m47.3.2a6 6 0 0 1 2.8 3l.6 1.2.1 33.9c.1 38 0 34.3 1.5 35.8.7.8.9.9 2.3 1.5 3 1.3 4.5 3.3 4.3 5.8a5.4 5.4 0 0 1-3.3 4.2c-1 .4-29.7.5-31.1.2-4-1-5.5-5.7-2.6-8.4.6-.6 3.4-2.1 3.8-2.1.1 0 .7-.4 1.2-1 1.8-1.7 1.6 1 1.6-30.4V19.4l-.6-.8c-.7-1.2-1.3-1.7-3.3-2.7-3.2-1.7-4.2-2.8-4.2-5 0-3.4 3-5.7 8.5-6.7l2.5-.4a82.4 82.4 0 0 1 11.4-1h3.5l1 .6m-235 4.2-3.3.3a21.1 21.1 0 0 0-5.5 1c-.6 0-2.2.4-2.8.7a2 2 0 0 1-.7.2l-.6.1c0 .1-.4.3-.7.3l-.9.3-.9.4-3.4 1.6-.9.5A30.3 30.3 0 0 0 6 21.8c0 .2 0 .3-.2.3 0 0-.2.1-.2.3l-.1.3a23.3 23.3 0 0 0-3 13.3 154.8 154.8 0 0 1 .6 4.4l.1.8.3 1 .3.8.1.6C5 46 5.3 46.4 5.4 46.4l.1.4.6.9.5.8a31 31 0 0 0 5.6 5l.9.5.9.4 1 .5c.2 0 .5.1.7.3l.8.3.5.1.7.2 1 .2a26.5 26.5 0 0 0 13.9-.8l1.3-.6.7-.5.3-.1c.3 0 1.4-.6 1.4-.8l.2-.1a13.8 13.8 0 0 0 4.4-4.8c.1 0 .3-.3 1-2.1.4-1.4.4-6 0-7.4-.8-2-2-4-2.7-4l-.6-.4c-.2-.3-.5-.5-.7-.5-.1 0-.4-.1-.5-.3a.8.8 0 0 0-.6-.3l-.4-.1c-.5-.8-6.4 0-7.4 1l-.4.3c-.1 0-.7.4-1.3 1-2.1 2.1-2.2 2.2-4.6 2.2-1.5 0-2.1 0-2.2-.3l-.3-.2c-.3 0-1.2-1.2-1.2-1.6 0-.2 0-.4-.2-.5l-.4-1.7c-.5-3 .5-7.4 2-9l.9-.8a10.8 10.8 0 0 1 2.7-2.3 19.2 19.2 0 0 1 6.3-2.5l1-.2a38 38 0 0 1 12.1-.2c1.9.6 3 1.6 3.4 3 .6 1.6.5 53 0 54.2-.7 1.5-1.4 2.1-4.2 3.4-1.3.6-2.6 1.6-2.6 2 0 .1 0 .3-.2.3-.8 0-1 3.5-.3 5 .4.9 1.5 2.1 2 2.1l.3.3c.7.6 1.2.7 16.8.7a322.2 322.2 0 0 0 16.4-.5c2.2-.4 4-4.9 2.8-7-.6-1.2-2.3-2.7-2.9-2.7l-.3-.1-.8-.5a11.5 11.5 0 0 1-1.6-.8c-.6-.3-1.3-1-1.7-2l-.5-1V57.5l.6-.6.5-.5h2.6c1.5 0 2.6 0 2.7.2l.4.1.8.3.7.3.9.6a15 15 0 0 1 3 3.3 38.6 38.6 0 0 1 2.3 3.7 27 27 0 0 0 1.9 3.3l.6 1.2a177.9 177.9 0 0 0 6.6 11.4 45 45 0 0 1 2 3.4l1.4 2.5.5.8.4.8a18.4 18.4 0 0 0 1.7 2.9l.6 1.2a31.6 31.6 0 0 1 1.5 2.7l.5.8.5.6.1.3a38.5 38.5 0 0 0 3.3 5.1 21.7 21.7 0 0 0 2.8 3.9l.4.5 1.8 2.2a65 65 0 0 0 9.6 9.2l2.6 1.7c.2.2 1 .7 1.3.7l.5.3a22.6 22.6 0 0 0 4.6 2.3c.1.2 1.5.7 1.8.7l.5.2 1.2.5 1.7.5c1.2.5 2 .7 2.4.7.2 0 .5 0 .6.2.2.2 1 .3 3.6.7l1.7.4a82.4 82.4 0 0 0 21.4-.8c.3 0 .8 0 1-.2.3-.2.7-.3 1-.3.3 0 .5 0 .6-.2l.5-.2c.3 0 .6-.1.8-.3l.7-.2c.2 0 1.7-.7 2.5-1.2l1-.5c1-.5 1.4-.7 2-1.2a27.6 27.6 0 0 0 4.4-4l.7-1.4.8-1.3.1-.5c.7-1.3 1-2.1 1-4.6.2-.9.1-1.5 0-1.6l-.2-.7-.2-.9a17 17 0 0 1-.5-1c-.3-.8-1-1.8-1.5-2.3a7.2 7.2 0 0 0-2-1.5c-.2-.2-1.4-.7-1.8-.7a1 1 0 0 1-.6-.3c-.2-.1-1-.2-2.4-.2s-2.1 0-2.3.2a1 1 0 0 1-.6.3c-.8 0-4 2.2-4 2.8l-.4.7-.5.9c0 .1 0 .4-.2.5a4 4 0 0 0-.5 1.1l-.5 1.6-.3 1c0 .4 0 .5-.6 1.7l-.3.7c0 .5-2.3 2.8-3.1 3.2-1.4.7-7 1.2-7.6.7l-1.2-.3c-.5 0-1-.2-1-.3l-.6-.1c-.3 0-.5-.1-.5-.2s-1.2-.8-1.5-.8l-1.2-.7-1-.7-.4-.3-1-.8a55.3 55.3 0 0 1-12-13.8 66.2 66.2 0 0 0-2.6-3.8 26.9 26.9 0 0 1-2-3.2 7 7 0 0 1-.5-.8l-.5-1a15.8 15.8 0 0 1-1-1.8c-.2-.1-.6-.7-.7-1l-.3-.4-.5-1a18.9 18.9 0 0 0-2-3.6 81.8 81.8 0 0 1-9.5-17.5 6 6 0 0 1-.5-.7 11.6 11.6 0 0 0-1.8-2.5c0-.2-.3-.5-.6-.8l-1.8-2.3a20.8 20.8 0 0 0-6.2-5.7c-1 0-1.2-1.4-.3-1.6.3 0 .6-.2.7-.3l.5-.2A25.4 25.4 0 0 0 109 46c.6-.3 2.2-1.7 3-2.6a8.9 8.9 0 0 0 1.5-2.3l.5-.8a18.9 18.9 0 0 0 2.1-10.4 19.8 19.8 0 0 0-.9-7c0-.4 0-.5-.6-1.7a12 12 0 0 0-2-3.7l-.1-.3a18.7 18.7 0 0 0-6.5-5.5l-.9-.5c-.1 0-.4 0-.7-.2a18.4 18.4 0 0 1-2.1-1l-1-.2-.5-.2c-.2-.2-1.8-.6-3-.7a1925 1925 0 0 0-62.6-1.3m51 .3a108.7 108.7 0 0 1 12.8 1.5 339.2 339.2 0 0 0 4 1.3l1.2.5a19 19 0 0 1 10 9.5l.5 1.4c3.7 10.6-.3 21.7-9.6 26l-4.7 1.7c-1.4.6-1.3 1.6.1 2.3a40 40 0 0 1 11.1 12.7 595.7 595.7 0 0 1 10 18.1 55.9 55.9 0 0 0 2.8 5l.6 1 2 3.3c11.7 19 21.1 26.2 30.8 23.8 2.8-.7 4.7-3 5.7-6.6.6-2.1.8-2.7 1.3-3.8 3.4-6.8 13.2-6.3 16 .9.5 1.2.6 4.7.2 6a17 17 0 0 1-8.4 9.8l-1.3.8a38 38 0 0 1-8 2.7c-3.5.8-9.6 1.2-15 .9a47.4 47.4 0 0 1-20.5-5.2 38.1 38.1 0 0 1-7.8-4.7 67.2 67.2 0 0 1-10.5-10.6A120.4 120.4 0 0 1 96.4 85a137.9 137.9 0 0 0-5.3-9.2 227.3 227.3 0 0 1-4.7-8l-1-1.7a33.4 33.4 0 0 0-4.4-6.8c-2.2-2.5-3.8-3.2-7.4-3.2H71l-.6.5-.6.6v18l.6 1c.7 1.2 1.2 1.7 3.5 2.8 4.2 2 5.2 5.3 2.8 8.3-1.5 1.9-1.4 1.9-17.8 1.9-15.3 0-15.8 0-17.4-1-2.4-1.7-3-5.5-1-7.5.4-.4 1.6-1.3 1.8-1.3 1 0 3.7-1.9 4.5-3l.5-.8V21.3l-.6-.8c-1.6-2.4-2.4-2.6-8-2.6-6.9 0-9.8.5-13.8 2.6-1.7.8-3 2-4.5 3.6-2.3 2.7-3.2 8-1.8 11.4l.3.8c1 2.6 5.2 2.6 8 0 2.6-2.4 4.2-3.1 6.8-3.1 5.1 0 8.3 3.6 8.3 9.3 0 6.6-4.5 11.2-13 13.4-3.2.8-9.9.3-13.3-1A20.5 20.5 0 0 1 3 39.7c-.3-1.5-.3-8.6 0-10.1 2-9 7.7-15 18-19A31.7 31.7 0 0 1 25 9.6c2.6-.8 5.1-1.2 9-1.5 3.8-.3 46.3-.4 52.4 0m-16 10.4-.5.6V44.7l.6.6.6.6h3.4c11.4 0 15.4-2.3 17-9.8.3-1.3.3-7.3 0-8.6-.5-2.1-1.2-4-1.9-5-1.5-2-3.4-3.2-5.8-3.8-2-.6-3-.7-7.7-.8h-5l-.6.5m11 .1a822.5 822.5 0 0 1 3.2.8l.5.2c1 0 3.7 2.3 4.4 3.6l.5.7.1.3.1.5a27 27 0 0 1 .3 14l-.2.4-.2.4c0 .6-2.3 3.5-2.8 3.5l-.2.2-.3.3-.8.4-.9.4-.8.3-1 .3a53 53 0 0 1-12 .7c-1.3-.4-1.3.2-1.3-13.7V19.3l.6-.6.6-.7 4.2.1c2.6 0 4.8.2 6 .4m73.9 11.3-3.3.2-3.5.4-1.4.2c-.7 0-1.2 0-1.3.2l-1.2.2-1 .3-.8.2c-.3 0-.8.1-1 .3l-.7.3-.7.1-1 .4a66 66 0 0 0-6.2 3.6 14.3 14.3 0 0 0-3.7 4s-.2.1-.2.3c0 .2 0 .5-.2.6a1 1 0 0 0-.3.6c0 .3-.1.7-.3 1-.4.7-.3 3.8 0 4.1l.3.6c0 .8 2.4 3.8 3 3.8.2 0 .3 0 .3.2l.8.4a28 28 0 0 1 1.7.7l1.1.3a9 9 0 0 0 5.5-.5l.6-.2a8.8 8.8 0 0 0 2.7-1.4c.3 0 2.7-2 4-3.2a80.8 80.8 0 0 1 5.7-5c1-1 2.5-1.8 3.3-1.8.3 0 .6 0 .7-.2.5-.8 4.2.5 4.6 1.7 0 .2.2.4.3.4l.1.3.2.5c.7.6 1.4 8.6 1 9.4-.2.4-.3.4-7 .5a57 57 0 0 0-16.3 1.8c-1 .2-2.7.9-5.1 2a9.2 9.2 0 0 0-2.4 1.3 20 20 0 0 0-6.5 7.7l-.4 1.4-.5 1.8a39.7 39.7 0 0 0 .2 9c0 .3.1.9.3 1.2A30.9 30.9 0 0 0 129 84c.8 1 3 2.8 4.8 3.7a200.8 200.8 0 0 1 3 1.3c.2 0 .4 0 .5.2l.6.2c.3 0 .8 0 1 .2a42.4 42.4 0 0 0 17.8-.9l1.3-.5.9-.3.2-.2c0-.1.1-.2.3-.2a3 3 0 0 0 1-.4l.9-.5c.1 0 .2 0 .2-.2l.3-.3c.2 0 .7-.4 1-.7 1.1-1 2-.8 2.3.3 0 .3.2.5.3.5l.1.3c0 .6 2.4 2.5 3.2 2.5a137.1 137.1 0 0 0 11.7.4 137.1 137.1 0 0 0 11.7-.4c.7 0 2.5-1.6 2.5-2.1 0-.2.1-.3.2-.3.2 0 .8-1.9.8-2.6 0-.9-.8-2.8-1.4-3.4a9.1 9.1 0 0 0-2-1.4 4 4 0 0 1-1.4-.8h-.5a1 1 0 0 1-.6-.4l-.4-.2-.7-.6c-1.1-1.4-1-.4-1.2-14.7a84.9 84.9 0 0 0-1-18.4l-.2-.4-.8-2-1.2-2a22.6 22.6 0 0 0-4.6-4.9l-.3-.1a18.7 18.7 0 0 0-3.5-2 14.1 14.1 0 0 0-4.1-1.4c-.8-.8-15.9-2.2-16.5-1.5m64.7 0-2.1.2-2.7.2-2.5.4a37.5 37.5 0 0 0-5.2.9c-3.5.7-6.4 2.2-7.2 3.7l-.5.8-.2 2c0 2.8.8 3.8 4.1 5.5 2 1 3.3 2.1 3.5 3 0 .3.2.5.3.6l.1 13.9v13.8l-.4.9a5.3 5.3 0 0 1-2.8 2.6c-.7.3-1.3.7-1.3.8l-.4.1c-.6 0-2.6 1.9-2.6 2.5l-.2.3c-.4.2-.4 3.6 0 4.3.4.9 2.2 2.5 2.8 2.6.3 0 .6.2.6.3.2.2 31 .2 31.4 0l.8-.3c2.3-.5 3.9-4.7 2.6-7-.7-1.4-2.1-2.7-3-2.7l-.2-.1-1.2-.8a6.5 6.5 0 0 1-2.8-2.5c-.3-.5-.3-2-.4-20.2a456.8 456.8 0 0 0-.4-20.7c0-.6-.5-1.8-.8-1.9l-.1-.3c0-.2 0-.3-.2-.3l-.3-.3c0-.4-1.5-1.5-2-1.5l-.3-.2c-.2-.5-5.1-1-6.4-.6m91.5 0-2.2.2-2.5.4-1.2.2c-.5 0-.9 0-1 .2l-1 .2-1 .3-.5.2c-.3 0-.7.1-1 .3l-.8.3-.4.1-.5.2a23.6 23.6 0 0 0-4.7 2.4 19.2 19.2 0 0 0-6.4 7.1l-.6 1.4c-.2.3-.3.8-.3 1 0 .4 0 .7-.2.8-.4.4 0 7.6.6 9.3l.4 1a19.7 19.7 0 0 0 5.5 7.6l.4.2c1 1 2 1.7 2.4 1.7l.3.1a20.5 20.5 0 0 0 5 2.4l1.1.5c.7.1 1.3.4 1.5.5l1 .3 1 .2c0 .1.2.2.5.2.2 0 .6 0 .8.2.4.2 1.3.4 3.1.7.5 0 1 .2 1 .3l1.6.3c1.8.2 3 .5 3.5.7l.8.2a15.7 15.7 0 0 1 5 1.8c1.5 0 3 3 2.3 4.5-.4.8-2.6 2-3.8 2-.2 0-.5 0-.5.2a31.3 31.3 0 0 1-7.5-.2c-.4 0-.8-.2-1-.3l-1-.3-.7-.1-1-.5a11.5 11.5 0 0 1-3.5-2.1c-.3 0-2-1.9-2.5-2.7-.8-1.3-4-4.5-4.3-4.5l-1.2-.5a11 11 0 0 0-6-.1l-1 .5c-.6.2-1.7 1-2.3 1.5l-.6.4-.1.3-.2.3c-.2 0-1.3 1.8-1.3 2.1 0 .2 0 .5-.2.6-.3.3-.3 3.3 0 3.6l.2.4c0 1.2 4 5.5 5.7 6.2l.6.3a22.6 22.6 0 0 0 3.7 1.9l.5.3.7.2.5.2c.2 0 .5 0 .6.2l1.2.4 1.8.6c.7.2 1.6.4 3.3.6l1.1.3c.3.2 2.8.5 7.2.7a51 51 0 0 0 18-2.2 27.2 27.2 0 0 0 5.8-3 23.1 23.1 0 0 0 6.2-6.8l.3-.7a16.9 16.9 0 0 0-.3-14.4c0-1.4-6.4-8.1-7.8-8.1-.1 0-.3 0-.3-.2a16.3 16.3 0 0 0-3.8-1.8c0-.1-.3-.3-.6-.3-.4 0-.8-.2-1-.3l-2-.7-.8-.2c-.7-.3-2-.6-2.8-.7-.5 0-1-.2-1-.3l-.9-.1-1.3-.3a5 5 0 0 0-1.4-.3l-.8-.1c-.2-.2-2-.6-3.4-.7-.5 0-1-.2-1.1-.3l-1-.3c-.5 0-1-.2-1-.3l-.5-.1a12 12 0 0 1-4.4-1.9c-1.3-1.2-1.3-3.5 0-4.7.3-.3 1.1-.8 1.4-.8.1 0 .4 0 .6-.2.5-.2 4-.8 4.7-.7a27.6 27.6 0 0 1 4.9 1c1.5 0 4 1.8 5.9 4.4.9 1.2 4.1 4.5 4.4 4.5l1 .5 1 .5c.2 0 .5 0 .6.2.1.2 1 .2 2.5.2 1.6 0 2.4 0 2.5-.2l.6-.2c.3 0 1.4-.6 1.4-.8l.2-.2c.7 0 3.3-3.2 3.3-4l.2-.5c.1 0 .2-.7.2-1.5l-.2-1.6-.2-.6c0-.6-.5-1.7-.8-1.9l-.1-.3a14.5 14.5 0 0 0-3.8-3.7l-.8-.5a6 6 0 0 1-.9-.6.9.9 0 0 0-.5-.2c-.2 0-.3-.1-.3-.2s0-.2-.2-.2l-2.8-1.2-.8-.3c-.2 0-.4 0-.5-.2l-.4-.1-.9-.3c-.3-.2-.7-.3-1-.3-.3 0-.6 0-.7-.2a99.9 99.9 0 0 0-9-1.5c-2.1-.1-7.3-.2-7.5 0m-85 1c1.3.6 2.3 1.6 3 3l.5 1.1.1 20.1.1 20 .4 1a5.4 5.4 0 0 0 2.7 2.5c3.8 2 4.1 2.3 4.8 4.3 1 2.5-.8 5.4-3.7 6.1-1.4.3-28.6.4-30.4 0-2.8-.4-4.5-2.6-4.2-5.3.2-2 1-3 4-4.6 4.4-2.4 4.1-1.1 4.1-18V47.4l-.5-1.1c-.6-1.3-1.5-2-3.7-3.1-5.1-2.5-5.3-7.5-.4-9.9 4.8-2.4 20-4 23.1-2.5m92-.5c6.8.4 11.5 1.5 16.8 4.2 7 3.6 9.4 9.6 5.3 13.9-4.4 4.6-10.3 3.3-15.4-3.5-2.5-3.2-4.2-4.2-8.4-5-6.4-1-11.4 1.3-10.5 4.8.7 2.5 2.8 3.4 11.5 5.2a3724 3724 0 0 0 5 1l2.1.5 2 .5c8 2.4 12.4 5.2 15.4 10a12.6 12.6 0 0 1 1.8 3.5c.7.8 1 7 .5 9.2-1 3.6-2.2 5.7-5 8.3a25.5 25.5 0 0 1-8.2 5l-.9.3-2.4.7a56 56 0 0 1-27.8-.9c-6-1.6-12.1-6-13.5-9.8-1.6-4.3 2.8-9.6 8.1-9.6 3.2 0 5.4 1.4 8.2 5.1 2 2.6 3 3.5 5.5 4.9.5.3 2.5 1 4.9 1.7 1.3.4 6.8.3 8.2-.1 5.8-1.7 5.4-5.4-1-8a41.6 41.6 0 0 0-7.9-2 78.2 78.2 0 0 0-5.8-1.4 44.7 44.7 0 0 1-10-3.9 43.9 43.9 0 0 1-3.6-2.6A18.7 18.7 0 0 1 288 54c-3-10.5 2.4-18.7 15-22.5l4.5-1c2.4-.4 6.5-.5 11-.3m-152.4.3a38.1 38.1 0 0 1 6 1.2 19.3 19.3 0 0 1 13.9 12c1 3 1 2.9 1 17 0 16 0 16.4 3 17.7 3.5 1.6 4.7 2.7 5.1 4.4.5 2.3-.2 4.1-2.2 5.6-1 .8-20.6 1.2-23.4.5a5.8 5.8 0 0 1-4-3.3c-.8-1.5-1.3-1.6-2.7-.5a23.8 23.8 0 0 1-12.6 4.7c-11.3 1.2-20-2.4-22.8-9.5l-.4-1a20.3 20.3 0 0 1 2.2-16.3c5-6.6 12.9-9.2 29.5-9.5 3 0 5.7-.2 5.9-.3.5-.3.1-6.8-.5-8.9-1-3-2.3-4.1-4.9-4.1-1.7 0-4 .8-4.8 1.6a169 169 0 0 1-11.6 9.5c-6.4 3.4-14.2-.2-14.2-6.6 0-3.5 2.4-7 6.6-9.6a27 27 0 0 1 3.5-1.8 33.8 33.8 0 0 1 13-3c1-.2 12.5 0 14.4.2m-8 33.2c-5.1.5-8.6 4.1-8.6 9.2 0 9.2 12.5 7.3 15-2.3.4-2 .5-6 0-6.5-.3-.4-3.6-.7-6.3-.4m6 .6c.5.6.3 5.7-.3 7 0 .3-.3.7-.4 1l-.3.7-.4.8-.5.8c0 .3-2.7 2.8-3 2.8-.2 0-.3 0-.3.2 0 0-.1.2-.3.2-.2 0-.5 0-.7.2-.9.6-5.4.7-5.4.1l-.4-.2c-.4-.2-1.5-1.2-1.5-1.4 0-.1 0-.2-.2-.2l-.2-.3c0-.2 0-.5-.2-.7-.4-.6-.4-4 0-5.2 1-2.8 4.3-5.8 6.6-5.8.2 0 .5 0 .6-.2.2-.3 6.7-.2 7 .2m195.3 16.5-1 .3-1.5.3c-1.5.6-2 .9-2 1l-.4.1-.9.5-.7.5-.5.3-.6.6c-.6.5-1.7 1.9-1.7 2.1 0 .2-.1.3-.2.3-.2 0-.8 1-.8 1.4l-.1.5c-.9.8-.9 7.7 0 8.5l.1.5c0 .2.3 1 .7 1.7 1 2.3 1 2.5-2 2.5s-3 0-3 3.5c0 3.7-.1 3.5 3.5 3.7 2.1 0 2.7.1 2.9.3.2.4.2 20.6 0 21.5-.3 1-.8 1.4-2.6 2.3-1.7.9-2.1 1.4-2.4 2.7-.5 2 .9 4 2.8 4.2 2.6.3 20.5 0 21-.3.7-.5 1-.8 1-1l.4-.5c.4-.5.4-2.8 0-3.6-.5-.6-.8-.8-2.2-1.5-1.3-.7-2.4-1.6-2.4-2 0-.2 0-.4-.2-.5l-.1-10.6v-10.4l.5-.4c.5-.4.8-.4 4-.4 4.3 0 4.2.1 4-4 0-3.2.3-3-4.6-3-4.3 0-4 0-5.1-1.3a19.9 19.9 0 0 1-3.8-6.7l-.3-.9c0-.4-.2-.7-.3-.8-.9-.5.1-4.7 1.1-4.7.7 0 2.2 1 2.2 1.4l.5.7.5.6 1.4 3.2c.5 1 1.9 2.6 2.3 2.6.2 0 .4.1.5.3l.7.2.5.2c.1.3 3.8.3 4.3 0l1-.5c1-.5 1.7-1.3 2.5-3 .5-1 .6-2.3.4-3.6a8 8 0 0 0-.9-3c-.6-1.4-3.7-4-4.5-4-.2 0-.3-.1-.3-.2 0-.2-1.7-.8-2.2-.8a44.9 44.9 0 0 0-11.5-.8m7.9.3c7.4 1 11.7 4.8 11.3 10.2-.5 5.2-7.3 7.4-10.8 3.4-.3-.4-2.5-4.4-2.5-4.7 0-.8-2.1-2.7-3.2-2.7-3.5 0-1.2 9.2 3.6 14.2l.5.6h3.9c5 0 4.6-.3 4.6 3.3 0 3.5.3 3.3-4.2 3.3-3.2 0-3.5 0-3.8.4l-.4.4V120c0 13-.3 11.8 3 13.5 2.1 1 2.8 3 1.7 4.8-1 1.5-.4 1.4-12 1.4h-10.3l-.8-.4c-2.5-1.4-1.4-6.2 1.5-6.2.5 0 1.9-1.5 2.1-2.3.2-.6.2-4 .2-11.1v-10.4l-.5-.3c-.4-.3-.8-.4-3-.4-3.2 0-3.1.1-3.1-3.3 0-3.3 0-3.3 3-3.3 2.8 0 3-.4 2-2.7-.7-1.7-.7-1.8-1-3-2.8-10 5.6-17 18.2-15.3M215 93l-2.1.3c-1.5.2-3 .6-3.1.8l-.7.1-1 .3-1 .4c-2.2.9-5.3 2.7-7.3 4.4a30.3 30.3 0 0 0-4.4 5.1c-.7 1.1-2 3.4-2 3.8l-.1.2c-.1 0-.2.2-.2.5 0 .2-.1.5-.3.6a1 1 0 0 0-.3.7c0 .2 0 .6-.2 1-.2.2-.3.6-.3.8 0 .2 0 .5-.2.6l-.2 1-.3 2a30.5 30.5 0 0 0 4.4 22l.7.9a23.8 23.8 0 0 0 11.5 7.7c.2.2 1.3.5 2.6.7a47.8 47.8 0 0 0 17.8-.3c.4 0 .8-.2 2.7-1a20 20 0 0 0 3.2-1.7 20.4 20.4 0 0 0 6.6-6.4c.4-.4 1.1-2.2 1.1-3.1.2-2.7-.3-3.3-2.7-3.3-1.9 0-2.2.1-4.1 2a18.1 18.1 0 0 1-4.4 3.4l-1.4.6a6 6 0 0 0-1.3.5 45.6 45.6 0 0 1-8.7-.4l-.9-.2-.4-.2a17.6 17.6 0 0 1-6.7-4.8 21.2 21.2 0 0 1-4-9 31.4 31.4 0 0 1 .9-15l.2-.6c0-.2.1-.5.3-.6l.2-.6.2-.4c.1 0 .2 0 .2-.2 0-.7 2.5-3.6 3.8-4.4 3-1.8 8-1.5 10 .6a8.2 8.2 0 0 1 1.8 3.4c.1.1.3.5.3 1 .1 1 .5 2.5.7 2.7l.2.6.1.5c.1 0 .3.3.3.6.3 1.2 2.9 4.3 3.6 4.3l.2.1c0 .1.3.3.6.3l.6.3c.3.5 5.6.2 6.7-.4 1.2-.6 2.8-2 2.8-2.5l.1-.2c.8 0 1.6-4 1.2-5.6l-.3-1.2a19.6 19.6 0 0 0-1.8-3.7l-.1-.2c0-.2-3.2-3.4-4-4.2a16 16 0 0 0-4.8-2.4l-.3-.2c0-.1-.1-.2-.4-.2-.2 0-.5-.1-.7-.3l-.9-.3-.6-.1c-.3-.2-1.7-.6-3.3-.8l-2.4-.3c-1.6-.3-6.3-.3-7.7 0m8.6.4c3 .4 5.4 1 7.4 1.8l1.6.8c11.2 5 12.9 19.6 2.1 19.6-4.9 0-7.8-2.7-9-8.5-1-4.7-2.4-6.5-5.8-7.2-9.5-2.2-16.1 10.6-12.7 24.4 3.4 13.6 18.2 18.6 27.9 9.3 2.7-2.7 5-3.2 6.3-1.4 1.5 2.1-2.3 8.7-6.2 10.7l-.5.4c-.4.7-6.5 3.1-9 3.7a38.8 38.8 0 0 1-18.5-1.4l-1.1-.4a24.2 24.2 0 0 1-12.4-11.5l-.4-1.1a34.1 34.1 0 0 1-1.1-20.1c1.2-5 3.9-9.2 8.5-13.5a28.4 28.4 0 0 1 10.6-5 38 38 0 0 1 12.3-.6m40.6 7.6-2 .3-1.6.3-.9.2a8 8 0 0 0-2.4.8l-.6.1-.8.3-.9.4a18.5 18.5 0 0 0-3 1.7c-1.2 0-6.6 7.3-6.6 9l-.1.5a26.7 26.7 0 0 0 .4 14l.7 1.7c1 2 4.5 6.3 5.3 6.3l.7.5.6.4.8.5.9.5.3.1c0 .1.3.3.6.3.4 0 .7.2.8.3l.5.2c.2 0 .5 0 .6.2.3.2 1.2.4 3 .7l1.9.3a29.9 29.9 0 0 0 9.6-.3 22.2 22.2 0 0 0 11-4.8c2.3-1.6 5.7-6.9 5.7-8.8l.2-.7.3-2.8a23.8 23.8 0 0 0-2.7-12.8c-.1 0-.2 0-.2-.2s-1-1.7-1.8-2.6a12.8 12.8 0 0 0-3-2.6l-.7-.5-.7-.5a20.6 20.6 0 0 0-7.8-2.7c-1.7-.3-7.4-.5-8.1-.3m38.8.3a29.2 29.2 0 0 0-9 1.9c-3.5 1.9-3.2 5.6.6 7.2 1 .4 1.6.9 2 1.6.3.6.3 18.5 0 19.1-.5.9-1 1.3-2.2 1.9-3.7 1.8-3.8 6 0 7a238 238 0 0 0 20.6 0c1.2 0 2.7-2.7 2.3-4.1-.3-1-1.4-2.4-1.8-2.4l-1-.5-1-.4-.7-.6-.6-.6v-7.3c0-7.6 0-7.9.9-9.5l.1-.6c0-.7 2.7-3.9 3.4-4l.3-.1c.2-.4 3.7-.3 4.3 0 1 .5 1.8 1.6 1.8 2.3a201 201 0 0 1 .4 13.7c0 13 .1 14.4.7 15.5l.2.8c0 .3 0 .7.2 1a17.7 17.7 0 0 1 1 2.1l.2.8c0 .2.1.3.2.3s.2 0 .2.2a31.3 31.3 0 0 0 2.9 4.5 21.4 21.4 0 0 0 10.3 7c.8.3 1.8.6 2.3.6l1.2.3a52.7 52.7 0 0 0 11.6-.3c1.2-.2 2.3-.4 3-.7l1-.4c1-.3 3.8-1.8 4.5-2.3.8-.6 2.3-2 2.3-2.2l.4-.8c.3-.4.5-1 .5-1.2l.2-.6c.2-.2.3-.9.3-2s-.1-1.8-.3-2a1 1 0 0 1-.2-.5c0-.7-2-3.1-2.6-3.1l-.5-.2c-.2-.3-4-.3-4.3 0l-.6.2a1 1 0 0 0-.7.3l-.4.2c-.3 0-2.5 2.2-2.5 2.5 0 .2 0 .3-.2.3 0 0-.2.1-.2.3l-.4.7a17.2 17.2 0 0 1-2.5 3.4c-3.8 3.7-9.8 1.4-12.2-4.6-.2-.5-.3-3.6-.4-16.4 0-8.7-.2-16.5-.3-17.4a13 13 0 0 0-1.2-4.6l-.3-.8c0-.1 0-.2-.2-.2 0 0-.2-.2-.2-.5l-.3-.4c-.1 0-.2-.1-.2-.3 0-.9-3.8-3.3-5.5-3.6l-.9-.2a26.2 26.2 0 0 0-11.4.5 28.4 28.4 0 0 0-5 2.8c-.2.2-.6.3-1 .2 0 0-.2-.3-.2-.8 0-2.9-2-3.6-9-3m-32.3.1c7.7.8 13.3 4.4 16.4 10.5a23.4 23.4 0 0 1 .6 17.2c0 .4-2.2 3.6-3.2 4.7-8 8.5-26.1 9.1-34.2 1a20.7 20.7 0 0 1-2.4-25c4.2-6.1 13-9.3 22.8-8.4m39.6.5c.9.4 1.5 1.6 1.5 2.8 0 .9.5 1.2 1.2.7 4.1-3 6.7-3.9 11.7-3.9 2.9 0 3.8.1 6 .7 2.8.7 5.1 2.8 6.3 5.7l.5 1.2c.7 1.8.8 2.5.9 19.5 0 10 .2 16.6.3 17 1.2 4.4 4.3 6.9 8.4 6.9 3 0 5.8-2 6.8-4.9 2-5.2 9.4-6.7 11.7-2.3 3.7 7-5 13.8-17.6 13.8a24.4 24.4 0 0 1-14.5-4.3 24.8 24.8 0 0 1-9.3-14.5c-.2-.6-.3-5-.4-14.2 0-12-.1-13.4-.4-14.2-1.4-3.8-6.7-3.6-9.4.3-1.8 2.7-2.2 4.7-2.2 12.4 0 7.5 0 7.4 2.4 8.5 3.2 1.6 3.9 4 1.6 6l-.7.6H294l-.7-.5c-2.3-1.7-1.7-4.3 1.3-6 2.8-1.4 2.6-.5 2.7-10.8 0-11.4 0-11.2-2.7-12.5-2-1-2.7-1.8-2.6-3.4 0-2.6 2.9-4 9.5-4.7l2.2-.3c1.1-.2 5.9 0 6.6.4m-54.8 7.6-.5.6a59 59 0 0 1-2 3.6 1561.8 1561.8 0 0 1-2 4 270.7 270.7 0 0 0 15.5 16.1c.4.6.8.2 4.1-3.2 9.8-10 12.3-12.7 12.3-13 0-.3-.8-2-1.8-3.7l-1-1.7-1-1.8-.5-.8c-.2-.3-22.7-.4-23.1-.1m23 .4.2.4c.2.1.5.8.9 1.4a57.3 57.3 0 0 0 2.8 5.1l.4.8-.6.7a413.2 413.2 0 0 1-13.3 13.6l-1.9 2-3.8-4c-12.7-12.9-12.2-12.3-11.5-13.1l.3-.7.1-.3a565.6 565.6 0 0 1 3.4-5.9c.2-.2 23-.3 23 0m-20.7 1.6c-.2.3.6 2.3.8 2.3.1 0 .2.1.2.3l.4.7.4.4 1-.9 1.6-1.4c.8-.5 1.4-1.2 1.4-1.4 0-.2-5.7-.2-5.8 0m11.8 0c-.2.3.6 1 1.8 2l1.2 1c1.4 1.2 1.5 1.2 2.5-.9 1.2-2.4 1.4-2.2-2.3-2.2-2 0-3.2 0-3.2.2m-6.7.3c-.3.4-3 2.8-3.3 2.8-.2 0-1.6-2.5-1.6-2.9 0-.2.5-.2 2.5-.2 2.3 0 2.5 0 2.4.3m12.6 0c0 .4-1.3 3-1.5 3-.2.2-1.3-.6-2.6-1.8a8 8 0 0 0-.8-.6c-1-.6-.5-.8 2.3-.8 1.9 0 2.6.1 2.6.2m-9.5.3a55.5 55.5 0 0 0-4.4 3.8c.2.3 9.7.2 9.7-.1 0-.2-.1-.4-.3-.5-.2 0-.5-.3-.6-.4-2.5-2.3-4-3.3-4.4-2.8m2 1.2 2.3 1.9.9.7h-9.3l.8-.7c3.9-3.5 3.7-3.4 5.4-1.9m9.5-.6c-.3.2-1.5 3-1.4 3.2.2.3 3.6.2 3.6-.1a5 5 0 0 0-.8-1.6l-.4-.8c-.5-.8-.6-1-1-.7m-22.3 1-.7 1.3c-.6 1-.6 1 1.2 1 2 0 2 0 1.2-1.5-.9-1.8-1.1-2-1.7-.9m23.5.8.8 1.5H278c-1.8 0-1.8 0-1-1.5 1-1.9.8-1.9 1.8 0m-22.4-.4 1 1.8h-1.5c-1.6 0-1.6 0-.7-1.4l.5-1c0-.3.3 0 .7.6m-1.8 4.2c0 .2.5.9 1.8 2.3l4 4c2.7 2.8 3 2.7 1.2-.8l-1.7-3.5c-1.1-2.4-1-2.3-3.3-2.3-1.5 0-1.9 0-2 .3m6.6.2c0 .3 1 2.4 2.1 4.8l2.7 5.6c.8 1.5 1 1.6 1.7.2l4.3-9c1.2-2.3 1.5-2.1-5.1-2.1H261v.5m13.7 0c-.4.5-.9 1.5-2.8 5.6-1.4 3-1.3 3.3.5 1.3l3.8-4c3.2-3.5 3.2-3.4.7-3.4-1.9 0-1.9 0-2.2.5m-16.4 0c.2 0 .5.6.7 1l1.7 3.5a16 16 0 0 1 1.2 2.7c0 .2-1.7-1.4-3.6-3.4a31 31 0 0 1-3.3-3.7c.1-.3 3-.3 3.3 0m14 0-.7 1.4a152.7 152.7 0 0 0-4.5 9.6 57.2 57.2 0 0 1-5.8-11c.1-.3 11-.3 11 0m6-.1-3.3 3.8c-3.6 3.8-3.9 4-3.1 2.5l1.8-3.7 1.3-2.7h3.3m-206.1 1.3c-1.2.3-2 1.7-1.6 3 .3 1.5 1.6 1.2 1.7-.3 0-1.2 1.5-1.5 1.5-.4 0 .6-.9 2.8-1.2 3l-.1.3-.6 1.4c-2.2 4.1-2.3 4 1.3 4 2.5 0 2.6 0 2.6-1 0-.5-.5-.8-1.6-.8-1 0-1.5-.7-.8-1 .2 0 .8-1.2.8-1.5l.1-.3c.2 0 1-1.7 1.5-2.8.8-2.4-1-4.4-3.6-3.6m6.3 0c-1.6.5-1.8.9-1.8 5.4 0 4.4 0 4.5 1.4 5.4 1.3.8 3.1.2 3.9-1.3.3-.7.4-7 0-8-.4-1.3-2-2-3.5-1.5m6.5 0c-.8.2-1.6.9-1.6 1.3l-.2.4c-.5.3.2 2.3.8 2.3.6 0 1-.6 1-1.3 0-.8.5-1.2 1-1 .7.2.3 1.9-1.4 5.1-2.2 4.3-2.2 4.3 1.3 4.2 2.6 0 2.5 0 2.5-.8 0-.9-.3-1-1.6-1-.9 0-1.5-.2-1-.4.2-.1 2.3-4.2 2.7-5.4.3-.7.3-1.5 0-1.7l-.2-.4c0-1-2-1.8-3.3-1.3m7.2.3-.4.7-.1.6a48.1 48.1 0 0 0-2.5 7.3c0 .2.4.3 1.6.3 1.8 0 2 0 2 1 .1 1.6 1.8 1 1.8-.5 0-.4 0-.5.4-.5.7 0 .7-1.5 0-1.8-.4-.2-.4-.2-.4-3.6 0-2.4 0-3.5-.2-3.6-.4-.4-1.8-.3-2.2.1m-17.1.5c.7.8.6 2.6-.2 4.1-2.6 4.7-2.6 4.6-.9 4.7 1.3 0 1.4 0 1.4.5v.5h-2.3c-3 0-2.9.2-.8-3.9 1.7-3.4 2-4.6 1.4-5.2-.5-.6-1.6 0-1.6.9 0 .8-.2 1-.7 1-1.2 0-.6-2.6.7-3.1.7-.3 2.5 0 3 .5m6-.1c1.5 1.4 1.3 8.7-.2 9.7-1.2.8-2.8.4-3.5-.7-.6-1-.7-7-.2-8.3.6-1.3 2.8-1.7 3.9-.7m6.1-.2c1.7.8 1.2 3.4-1.4 7.6-.7 1.2-.6 1.4 1 1.5 1.2 0 1.3 0 1.3.5v.6H86l-2.3-.1v-.6c0-.5.3-1 2-4.3 1.5-2.9 1.6-4.5.3-4.5-.5 0-1 .6-1 1.5-.2 1-1.1 1.2-1.3.3-.5-2 1.7-3.6 3.7-2.5m7 3.4.2 3.7.4.1c.6.1.6 1 0 1-.4.1-.6.6-.6 1.5 0 1-1.1.6-1.3-.5v-.8l-1.7-.1h-1.7v-.7a121.7 121.7 0 0 0 2.5-7c.3-.7.7-1 1.5-1l.6.1.1 3.7m-15.5-2.2c-.5.6-.4 7 0 7.7.5.5 1.3.3 1.5-.3l.2-3.8c0-3.5-.1-4-1-4a1 1 0 0 0-.7.4m1.1 0c.2.2.2 1 .2 3.9v3.7h-.5c-.7.1-.7-.2-.7-3.8 0-3.9 0-4.3 1-3.7m12.7 1-.8 2.6c-.8 2.1-.8 2.3.3 2.3h.9v-2.6c0-2.4-.2-3.5-.4-2.3m0 4.4c-.7.5-1.3-.6-.7-1.4.2-.3.8-2 .8-2.5l.1 1.7c0 1.5 0 2-.2 2.2m31.2 9.7-1.3.5c-.7.3-1.5 1-1.8 1.8a190.1 190.1 0 0 1-1 2.2l-.1.6a69 69 0 0 0-.2 7.8 69 69 0 0 0 .4 8.5c0 .2 0 .6.2.8.2.2.3.5.3.7 0 .4.2.6 1.3 1.7.4.5.9.8 1 .8l.5.3c.1.2.5.3.8.3.3 0 .8 0 1.2.2 2.7.7 6.1-1.7 6.9-5a81.2 81.2 0 0 0 0-16.8c0-1.4-2.4-4.2-3.5-4.2a.9.9 0 0 1-.6-.2c-.4-.4-3.1-.4-4 0m-53.7.1-.4.3v12.6c0 9.5 0 12.6.3 12.8.3.3 6.6.3 7.7-.1 1.8-.6 4-2.4 4-3.2l.2-.5c.5-.5.6-2 .6-9 0-6.9 0-8-.6-9l-.4-1c-.7-1.4-2.8-2.7-4.7-2.9-3.6-.3-6.2-.3-6.7 0m13.8 0c-.1.2-.2 3.6-.1 13v12.8h4.8c5.5.1 5.3.2 5.3-1.5 0-2 0-2-3.3-2h-2.6v-8.2h2c2.4 0 2.4 0 2.4-1.8s-.1-1.9-2.5-1.9h-2v-3.4c0-4-.3-3.6 3.2-3.6h2.3v-3.6H89c-3.8 0-4.7 0-4.9.2m10 0c-.3.3-.3 3 0 3.2l2 .3h1.7v11c.1 7.8.2 11 .3 11.1.2.2.7.3 2.1.3l1.9-.1v-11l.3-11.3 2-.1h2v11c0 7.7 0 11 .2 11.2.3.4 3.7.4 4 0 .2 0 .2-1.4.2-4.7V153h.5c.4 0 .6.2.6.5l.2.4.2.5c0 .3.1.7.3 1l.3.7.1.5.2.4.3.9.3.7.7 2 .2.7c0 1 3.5 2 4.8 1.1.2-.1-.2-1.7-.6-2l-.1-.4-.2-.7-.5-1a93.7 93.7 0 0 0-1.4-3.8c-1-1.8-1-2 0-3 .8-.8 1-1.3 1.8-3 .3-.8.4-6.8.1-7.4l-.5-1c-.4-.9-1.7-2.4-2-2.4l-.3-.1c0-.2-1.7-.8-2.8-.9a28.8 28.8 0 0 0-6.9 0c-.7-.4-11.7-.3-12 0m39.9 0c-.3.2-.3 1-.3 13v12.8h2c2.7.1 2.4 1.5 2.4-11.4v-11h1.8l2 .1c.2 0 .3 2.5.3 11.2v11.1h4.2l.2-11.1v-11.2h1.8c1 0 1.9-.2 2-.3.4-.3.3-2.8 0-3.2a79.6 79.6 0 0 0-14.4-.2l-2 .1m-6.4.2c2.5.6 3.8 2.1 4.4 5.5.3 1.3.2 13.9-.1 15.1a8.8 8.8 0 0 1-1.8 3.5c-2.5 2.5-7.9 1.8-9.3-1.1-1-2.4-1.2-3.4-1-11 0-7.6.2-8.9 1.9-10.6 1.2-1.3 3.7-1.9 5.9-1.4m-49.6.4c4 1.6 4.6 3.2 4.6 12.5 0 10.8-1 12.4-8.8 12.7h-3.1l-.2-.4c-.3-.8-.3-24.7 0-25 .3-.3 6.7-.1 7.5.2m15.5 1.1v1.4h-2.7l-2.7.1v7.6h2c2.2.1 2.2 0 2 2v1.1h-2l-2.1.1v8.6h2.8c3 0 2.9 0 2.9 1.8 0 1.4.1 1.4-5 1.4h-4.5V137c0-.2 1.1-.2 4.7-.2h4.5v1.5m12.5-1.3c.3.1.3.4.3 1.3 0 1.5 0 1.4-2.3 1.4-1.4 0-1.7.1-1.8.3l-.1 11.3v11h-3.6v-11.2l-.1-11.2h-.4l-2-.2H94l-.1-1.2V137c.2-.3 11.2-.3 11.8 0m8.2.2c3.3 1 4.5 3 4.5 7.3 0 3.5-.6 5.2-2.2 6.8l-1 1 .9 2.2 1.1 2.8c1 2 1.9 4.8 1.7 5l-1.9.1c-1.7 0-1.9-.1-2.2-1.3a74.7 74.7 0 0 0-2.3-6.4c-.6-1.8-.7-1.9-1.4-1.9-.8 0-.8 0-.8 5v4.4l-.5.1H106.8V150c-.1-7 0-12.7 0-12.8.1-.3 6.2-.2 7.2.2m23.4-.2c.3.3.3 24.9 0 25.2-.2.2-2.5.3-3.2 0h-.4v-12.6c0-11.8 0-12.6.3-12.7.7-.2 3.1-.1 3.3.1m12.7 1.3v1.4h-1.8c-2.4 0-2.2-1-2.2 11.7 0 9.7 0 10.8-.3 10.9l-1.5.1-1.6-.1c-.2-.1-.3-1.2-.3-11 0-7.1 0-11-.2-11.2-.1-.3-.4-.4-2-.4h-1.8v-1.3c0-1.8-.6-1.6 6-1.6h5.7v1.5m-76 1.5v19.8h1.2c2.9.1 3.4-1.2 3.4-10 0-7.1-.3-8.6-1.5-9.5-.7-.5-2.9-.7-3-.3m36.4 0c-.2.2-.4 9.4-.1 10 .2.6 2.5.1 3.3-.7 1.3-1.4 1.4-7.3.1-8.6-.7-.7-2.8-1.2-3.3-.7m14.6-.1c-1.6.4-1.7.8-1.7 10 0 9.6.1 10 2.4 10 2.1 0 2.2-.5 2.2-10.2 0-9.5-.3-10.5-2.9-9.8m-48.5.5c.7.3 1 .7 1.3 1.7.5 1.3.4 14.6 0 15.8-.5 1-1.5 1.7-2.8 1.8h-1V140h1a4 4 0 0 1 1.5.3m36.3 0c1.4.7 2 3.2 1.3 6.7-.3 2-.8 2.5-2.4 2.7l-1.2.1V140h.8l1.5.3m14 0c.8.6.9 1.4.9 9.5 0 9.1-.2 9.7-2 9.7-2 0-2-.6-2-9.7 0-8.2 0-8.4.8-9.4.4-.4 1.8-.5 2.3-.1"
      fill="#685419"
    />
<path
      d="M214.7 2.9h.6-.6m4.9 0h.8-.8m42.8 0h1-1m-228 5.2h.8l-.4-.1h-.4m52 0h1-1m187.1 33.4v16.3a6894.7 6894.7 0 0 0 0-16.3m-41.3-28.1v.4c.1-.2.1-.6 0-.8v.4M37.6 17.8h1.8-1.8m168.1 2.3.8.7-.6-.7-.8-.8.6.8M47.4 48.3v13a4357 4357 0 0 0 0-13m44.2-18.7c0 .6 0 .8.1.5V29v.6m24.2.2c0 .4 0 .5.1.3v-.8.5m-98 .4v.3-.6.3m204.2 0h1.2l-.6-.1h-.6m91.5 0h1.9-1.9m-161.6.2h.9-.9m11.3 0h.8-.8m54.5 0h.8-.8m91.6 0h.7-.7m10.3 0h.7-.7m-203.9 1c0 .3 0 .5.1.3v-.8.4m-24.4 2.4c0 .6 0 .9.1.5v-1 .5M39 35.1l.6.6.6.5-.6-.6c-.5-.6-.6-.7-.6-.5M230 36.5v.3-.6.3m-227.2.8v.3-.7.4m197 .7v.5-1 .5m-37.5 3.2.7.6-.5-.6a4 4 0 0 0-.7-.7l.5.7m161.1 1.7 1 1-.8-1-1-.9.8 1M78.8 45.7h.8-.8m248.8 2c.7.8 1 1 1 .8l-1-.9-.8-.8.8.9m-162.8.8v.5-.9.4M38.4 51.1l-.5.6.6-.6.6-.6c0-.1-.2 0-.7.6m295.7-.1h1-1m-197 1.6h1-1M152.7 53.7h1.5-1.4m-2.9.2h.9-.9m-45.9.8.8.8-.6-.8-.8-.7.6.7M72.4 56h1.2l-.6-.1h-.6m-48.9.4h1.6-1.6m269 5.2.8.8-.6-.8-.8-.7.6.7m-127.7 7.6v.3-.6.3m136 2 .8.8-.6-.8-.8-.7.6.7M149.3 73v.6-1.2.6m12 3-.5.7.6-.6.7-.7-.7.6m-6.6 3h1-1m39 1.8.7.6c.1 0-.1-.3-.5-.6a4 4 0 0 0-.7-.7l.5.7m122.9-.1h1.5l-.8-.1h-.7M289.3 82l1.2 1.2-1-1.2-1.3-1.2 1 1.2M77.9 84v.5-1 .5m117.4 0v.4-.8.4m4.6.2v.5-1 .5m38.5-.2v.4c.1-.2.1-.6 0-.8v.4m138 1 1 .9-.8-1-1-.9.8 1m-182.6 2.6-.7.7.8-.7.8-.8c0-.1-.2 0-.9.8M143 89.9h.7l-.4-.1h-.3m6.2 0h.7-.7m171.8 0h.6-.6M265.7 101.6h.7l-.3-.1h-.4m2.4 0h1-1m-5 .2h.7-.6m7.7 0h.6-.6M311.6 104.6v.3c.1-.2.1-.6 0-.8v.5m1.6.7-.4.5.6-.5c.6-.6.4-.6-.2 0m-131.8 4.1v.6-1.2.6M111.8 109l.6.6.6.6-.5-.6c-.5-.6-.7-.7-.7-.6m254.5 2.2c0 .4 0 .5.1.3v-.6.3m-108.5.8c0 .4 1.4 2.9 1.6 2.9.2 0 3-2.4 3.3-2.8.1-.3 0-.3-2.4-.3-2 0-2.5 0-2.5.2m12.2.2.4.5.8.6c2.5 2.3 2.6 2.3 3.5.4 1-1.9 1-1.8-2-1.8-2.2 0-2.7 0-2.7.3m-5.4 1.4-2.1 1.9-.8.7h9.3l-1-.7-2.1-1.9c-1.6-1.4-1.6-1.4-3.3 0m12.9-.2c-.4.6-1.2 2.3-1.2 2.5 0 .2.4.3 1.5.3h1.6l-.8-1.5c-.8-1.5-1-1.6-1.1-1.3m-22 .4-.5.9c-.9 1.4-.9 1.5.7 1.5a6 6 0 0 0 1.4-.1l-.9-1.8c-.4-.7-.8-1-.8-.5m68 .5c0 .5.1.7.2.4v-.8l-.1.4m14.6 15.2v7.3a1261 1261 0 0 0 0-7.3m-14.4-2.5v5.7a776.7 776.7 0 0 0 0-5.7M153 116.4h.6l-.3-.1h-.3m129.6.7.3.7v.5-.5a1 1 0 0 0-.2-.7c-.3-.2-.3-.2-.1 0m-30.5 2.4 1 1-.8-1-1-1 .8 1m3-.7a31 31 0 0 0 3.3 3.7c2 2 3.5 3.6 3.6 3.4l-1.2-2.7-1.7-3.4a4 4 0 0 0-.7-1c-.3-.3-3.2-.3-3.3 0m6.3 0a57.2 57.2 0 0 0 5.8 11l1.2-2.8a474.7 474.7 0 0 0 4-8.3 93 93 0 0 0-11 0m12.4 2.6a251 251 0 0 1-1.8 3.7c-.8 1.5-.5 1.3 3.1-2.6a40 40 0 0 0 3.3-3.7l-1.7-.1h-1.6l-1.3 2.7m7.5-1.7-.6.7.7-.6c.6-.6.8-.8.6-.8l-.7.7m30.3 5.2c0 3.2 0 4.5.1 3a181.1 181.1 0 0 0 0-3m-238.9-4.6h1l-.6-.1h-.4m6.3 0h1-1m6.4 0h1-1m7.7 0h.7-.7m195.8 2v.8-1.6.8m-216.5-.7c-.4.4-.4.4 0 0l.7-.3c.4 0 .4 0 0-.1l-.7.4m1.6 1c0 .5 0 .7.1.5v-.9.4m1.4 0v.3c.1-.3.1-.6 0-.8v.4m11.2 0c0 .5 0 .6.1.4v-.8.4m-8.5 3v1.6a48 48 0 0 0 0-1.6m198.2-.8-2 2 2-2 2.1-2-2 2m-196.1-1.3v.3-.6.3m1.5 2.1v1.3a37 37 0 0 0 0-1.3m66.7 1.5h1.1-1.1m6.4 0h1-1m-3.2.2h.8-.8m-60.4.7h.7-.7m3.3 0c.2 0 .4.3.4.5l-.4.4c-.2 0-.2 0 0 0 .3 0 .4-.1.4-.4 0-.4 0-.5-.3-.5s-.3 0 0 0m-5.3.9s.8.1 1.6 0h1.5-3.1m182.2.8-1 1 1-1 1.1-1-1 1M85.3 129c0 .3.1.3 1.3.3H88h-1.3c-1 0-1.2-.1-1.3-.4 0-.2 0-.2 0 0m-12.8.2c.1.2.4.2 1.5.2h1.3-1.2c-.7 0-1.4-.2-1.5-.3 0-.2-.1-.1 0 0m6.5 1.5h.7l-.4-.1h-.3m4.9 6.6v25.3h9.1-9V137h4.6l4.5-.1h-4.5l-4.7.1m10 0v2.7-2.7h5.8l5.8-.1h-5.8c-4.7-.1-5.8 0-5.9.1m12.8 0c0 .2-.1 5.9 0 12.8v12.5h3.1-3V137h2.3l2.4-.1h-2.4l-2.4.1m28.2 0h1.6c.4-.1 0-.1-.8-.1h-.8m-29.1 1.4.1 1.4V137.2v1.2m-35.7 11.1v6.1a907 907 0 0 0 0-6m67.2.1v6.2a934.2 934.2 0 0 0 0-6.2m-16-11.4-.5.7.6-.6c.7-.6.8-.8.7-.8l-.7.7m76 1 .6.7-.5-.6a4 4 0 0 0-.7-.7l.5.7m40.4 1.2-1 1.2 1.1-1.1 1.1-1.2-1.2 1.1m-39.5-.3.6.6.6.5-.5-.6c-.5-.5-.7-.7-.7-.5m-110.6 3.5v1.7a61.9 61.9 0 0 0 0-1.7m180.7-3.3h.6-.6m-2.7.2h.9-.9m98.6 3.5.8.6-.6-.6a4 4 0 0 0-.7-.7l.5.7m-8.6.7-.7.8.9-.8.7-.8-1 .8m-266.6 2.8h2-2m128.8 0h2-2m148.3.9v.5-1.1.6m-274.3 1.7c0 .2-.6.2-2 .3h-2 2c1.8.1 2.5 0 2.2-.4l-.2.1m-4.1 4.7v2a89.5 89.5 0 0 0 0-2m242.8-2.4 1.6 1.4-1.4-1.4-1.5-1.5 1.3 1.5m15.7 0c.5.1 1.2.1 1.6 0h-1.6m-235.5.3h.6l-.3-.1h-.3m-32.3 2.5c0 .4 0 .5.1.3v-.6.3m9.4 4.1 2.8.1h2.7l-2.8-.1H88m5.5 1.6v.6-1.2.6m4.8 1.1c0 .3.4.3 1.7.3h1.6-1.5c-1 0-1.7-.2-1.8-.3 0-.2-.1-.2 0 0m18 .4h1.8l-1-.1h-.8m18.7 0h1.6-1.6m8.5 0h1.5-1.5"
      fill="#d55159"
    />
</g>
</svg>
