<svg viewBox="0 0 1000 200"
  xmlns="http://www.w3.org/2000/svg">
  <path style="fill: #fff" d="m104.7 12.6-.2 108c-.8 54.9-15.5 73.6-51.8 73.6-34.4 0-49.8-18.9-49.7-73.9l.2-107.9c0-1.8 1-3 3-3.3 9.8-.5 19.6-.5 29.4 0 2 .3 3 1.6 3 3.4l-.1 89.1c0 48.1 5 56.8 15.8 56.9 9.3 0 14.4-8.8 14.5-56.8l.2-89.2c0-1.8 1-3 3-3.3 9.8-.5 19.8-.5 29.6 0 2 .3 3 1.6 3 3.4ZM119.8 55c0 22.1 11.2 37.3 26.1 49.1 18.2 14.4 39.6 23.7 39.5 39.4 0 11.3-6.2 17.7-16 17.7-12 0-16.4-13.6-16.3-27.3 0-3.5-1.8-5.6-5.4-5.9-8.2-.2-16.5-.3-24.7 0-3.6.2-5.7 2-5.7 5.6-1 34.2 15.9 59.4 53.7 59.5 28.5 0 49.8-17.7 49.9-45.7 0-43.2-28.7-53-45.1-67.1-17.2-14.4-20.6-17.8-20.5-30.9 0-6.4 3.6-12.8 10.5-12.8 12 0 13.9 9.8 13.9 20.3 0 3.6 1.7 5.6 5.3 6 8.3.2 16.2.2 24.5 0 3.8-.3 5.6-2.4 5.6-6-1-33.1-15-52.1-45.4-52.2-33.1 0-49.9 17.4-50 50.3ZM268.4 9.5c-10-.3-19.8-.3-29.6 0-3.6.2-5.6 2-5.6 5.6.7 38.5.6 126.4-.3 169 0 3.7 2 5.5 5.7 5.8 9.7.2 19.5.2 29.5 0 3.6-.2 5.7-2 5.7-5.9-.7-42.4-.6-130.3.2-168.8 0-3.6-2-5.4-5.6-5.7ZM360.4 190.6c6.4 0 14.4-.3 23.4-.5 5.1-.3 7.7-2 7.7-5.7-.5-42.6-.3-130.5.2-169 0-3.7-1.7-5.7-5.3-5.7-7.5-.3-16.7-.3-24.2 0-3.9.2-5.7 2-5.7 5.6.3 17.5.5 44.7.2 73.5 0 2.8-2.6 3.3-3.4.5-7.4-26.2-15.8-52.7-23.7-79v-.2l-5.7-.5c-8 0-16.4-.3-25.2 0-3.6.2-5.6 2-5.6 5.6.4 38.5.3 126.4-.3 169 0 3.7 1.8 5.7 5.4 5.7 8 .3 18 .3 25.4 0 3.9-.2 5.7-2 5.7-5.6-.2-21-.4-53.2-.1-85 0-2.3 3-2.8 3.6-.8 8.1 29 15.8 57.9 21.7 87 .7 3.3 2.5 4.8 5.9 5ZM512.5 66.2c-4-42.5-27.7-61-50.6-61-29 0-54.8 22.8-54.9 98 0 67.1 25.3 91 53.3 91.1 29.3 0 53.8-16.9 53.4-97.8 0-4.1-2-6.2-5.6-6-14.2.3-27.8.3-41.7 0-3.6-.3-5.6 1.8-5.9 5.4a204 204 0 0 0 0 17.7c.2 3.9 2.3 5.7 5.9 5.7h10.3c1.8 0 3 1 3 3 0 18-3.9 35.8-16.7 35.8-12.4 0-19.8-17-19.7-54.8 0-42.9 6.5-60.6 19.3-60.6 8.5 0 13.1 10.8 14.4 24 .2 3.5 2 5.3 5.6 5.6 8.3.3 16.5.3 24.7 0 3.6-.2 5.7-2.3 5.2-6.1Z"/>
  <path style="fill: #fff; opacity: 80%" d="M532.3 190.3c9.8.3 18.5.3 28.3 0 3.6-.2 5.6-2.2 5.6-5.8-.2-10.6-.2-30.1-.4-51.7 0-2 1-3 3.1-3h2c2.1 0 3.1.7 3.4 2.8 4.8 41.3 31.8 56.3 59 58.1 20.6 1.4 71 .2 87.9 0 3.6-.3 5.4-2.1 5.7-5.7.2-8 .8-15.4.3-23.2-.3-3.5-2.3-5.4-6-5.4-39-.5-59.3 3.8-84-.6-19.8-3.6-26.7-21.6-29-34.5-.2-1.8.6-3 1.8-4.1a56.2 56.2 0 0 0 21.7-47c0-41.6-22.3-60.7-72.6-60-9 .3-17.8 0-26.5 0-3.6 0-5.7 2-5.4 5.6.7 35 .5 139-.3 168.6-.2 3.6 1.8 5.7 5.4 6ZM566 91.4c0-19.5.3-37 .3-47 0-1 1-1.5 3-1.5 17.3 0 26.8 7.2 26.8 27 0 21.3-13.7 24.1-27 24.6-2.1 0-3.1-1-3.1-3Zm77.4-22.2c0 23.9.6 55.8.1 73 0 2.6 2 3.6 6 3.6 6-.3 13.3-.2 19.4 0 3.9 0 6-1.8 5.7-5.6-.2-8.8 0-19.8.6-31.4 0-2 1-3 2.8-3 4.1-.3 8-.3 12 0 2.1 0 3.2 1 3.2 3 0 11.6.2 22.7 0 31.4-.4 3.9 1.7 5.7 5.6 5.7a288 288 0 0 1 21 0c3.9 0 5.7-1.8 5.7-5.6-.8-16.2-.7-41.4-.7-71-.4-45.7-12-60.9-40-61-29.5 0-41.4 15.7-41.4 60.9Zm32 6.5c-.4-19.6-3-36.3 8.4-36.3 10 0 9.2 17 9.2 36.3 0 2-1.3 3-3.1 3h-11.3c-1.8 0-3.1-1-3.1-3ZM775.5 10.3c-10-.3-19.8-.3-29.6 0-3.6.2-5.7 2-5.7 5.6.8 38.5.6 126.4-.2 169.1 0 3.6 2 5.4 5.6 5.7 9.8.2 19.5.3 29.6 0 3.6-.2 5.6-2 5.6-5.9-.7-42.4-.5-130.3.3-168.8 0-3.6-2-5.4-5.6-5.7ZM835.3 10.4c-10-.3-19.7-.3-29.5 0-3.6.2-5.7 2-5.7 5.6.7 37.8.6 129.5-.2 168.8 0 3.6 2 5.7 5.6 5.7 22.9-.5 45.5-.4 68.4.1 3.6 0 5.6-2 5.9-5.6.2-7.5.3-15 0-22.7-.2-3.8-2.3-5.6-5.9-5.4-10.3.8-20.3 1-30.3.8-2 0-3.1-1-3-3.1-1-35.2-.4-102.8.4-138.3 0-3.6-2-5.6-5.7-6ZM892.6 56.2c0 22.1 11.2 37.3 26.1 49.2 18.2 14.4 39.6 23.7 39.5 39.3 0 11.3-6.2 17.8-16 17.7-12 0-16.4-13.6-16.3-27.2 0-3.6-1.8-5.7-5.4-6-8.2-.2-16.5-.2-24.7 0-3.6.3-5.7 2-5.7 5.7-1 34.1 15.9 59.4 53.7 59.4 28.5 0 49.8-17.6 49.9-45.6 0-43.2-28.7-53-45.1-67.2C931.4 67.1 928 63.7 928 50.6c0-6.4 3.6-12.8 10.5-12.8 12 0 13.9 9.8 13.9 20.3 0 3.6 1.7 5.7 5.3 6 8.3.2 16.2.2 24.5 0 3.8-.3 5.6-2.3 5.6-6-1-33-15-52.1-45.4-52.2-33.1 0-49.9 17.4-50 50.3Z"/>
</svg>
