<svg viewBox="0 0 1330 200"
  xmlns="http://www.w3.org/2000/svg">
  <path d="M100.833811,195.522654 L121.018744,195.522654 C124.564746,195.522654,126.746901,193.886037,127.565209,190.067266 C133.293366,155.971095,148.841220,43.862886,152.659991,10.585023 C153.205530,6.766252,151.296144,4.584097,146.931834,4.311328 C140.658139,4.038558,138.203215,4.038558,131.656750,4.311328 C127.837979,4.584097,125.655824,6.220713,125.110285,10.039485 L115.017818,85.869368 C114.745049,88.869831,111.744586,88.869831,111.471817,85.869368 C107.107507,58.865201,103.015966,32.406573,100.288273,10.039485 C99.742734,6.493483,97.287810,4.584097,93.741808,4.584097 L89.104729,4.584097 C81.194417,4.584097,79.012262,4.311328,73.556875,4.584097 C69.738104,4.584097,67.555949,6.493483,67.283179,10.312254 C65.373794,32.679342,62.100561,60.229048,57.736252,89.960909 C57.463482,92.688603,54.735788,92.961372,54.190250,89.960909 L41.915628,10.039485 C41.370090,6.220713,39.187935,4.584097,35.641933,4.311328 C26.095005,4.038558,17.093616,4.038558,7.546688,4.311328 C3.455148,4.584097,1.545762,6.766252,2.091301,10.857793 C8.910535,47.408888,24.731158,156.243865,29.368237,190.067266 C29.913776,193.613268,32.368700,195.522654,35.914702,195.522654 L55.826866,195.522654 C59.372868,195.522654,61.555023,193.886037,62.100561,190.067266 L76.284568,95.416296 C76.830107,92.688603,79.557801,92.688603,80.103340,95.416296 L94.560116,190.067266 C95.105655,193.886037,97.287810,195.522654,100.833811,195.522654 Z " style="fill: rgba(51, 65, 85, 1.000000); " fill="#334155" stroke="none" />
  <path d="M199.030783,4.311328 C189.211086,4.038558,180.482466,4.038558,170.662769,4.311328 C166.571229,4.584097,164.389074,6.493483,164.389074,10.312254 C165.207382,46.863349,165.207382,154.607249,164.389074,189.794497 C164.389074,193.613268,166.571229,195.522654,170.390000,195.795423 C180.482466,196.068192,189.211086,196.068192,199.030783,195.795423 C202.849554,195.522654,205.031709,193.613268,205.031709,189.794497 C204.758940,173.973874,204.486171,144.242013,204.486171,112.327997 C204.486171,110.145842,205.577248,109.054764,207.759403,109.054764 C214.305868,108.781995,220.852333,108.781995,227.398797,109.054764 C229.580952,109.054764,230.672030,110.145842,230.672030,112.327997 C230.672030,144.242013,230.399260,174.246643,230.126491,189.794497 C230.126491,193.613268,232.308646,195.522654,236.127417,195.795423 C245.947114,196.068192,254.948503,196.068192,264.768201,195.795423 C268.586972,195.522654,270.769127,193.340499,270.496357,189.521728 C269.950818,154.607249,269.950818,46.863349,270.769127,10.312254 C270.769127,6.493483,268.586972,4.584097,264.768201,4.311328 C254.675734,4.038558,245.947114,4.038558,236.127417,4.311328 C232.308646,4.584097,230.126491,6.493483,230.126491,10.312254 C230.399260,25.041800,230.672030,50.682120,230.672030,78.777365 C230.672030,80.959520,229.580952,82.050597,227.398797,82.050597 C220.852333,82.050597,214.305868,82.050597,207.759403,81.777828 C205.577248,81.777828,204.486171,80.686750,204.486171,78.504595 C204.486171,50.954889,204.758940,25.041800,205.031709,10.312254 C205.031709,6.493483,202.849554,4.584097,199.030783,4.311328 Z " style="fill: rgba(51, 65, 85, 1.000000); " fill="#334155" stroke="none" />
  <path d="M373.603178,195.522654 C383.695644,195.795423,394.333650,195.795423,404.426116,195.522654 C408.517657,195.522654,410.427042,193.067729,409.335965,188.976189 C398.970729,145.605860,377.149179,43.862886,370.875484,10.039485 C370.057176,6.220713,367.875021,4.584097,364.329019,4.584097 L328.323463,4.584097 C324.777461,4.584097,322.595306,6.220713,321.776998,9.766715 C315.230533,44.135655,293.408984,145.605860,283.316517,189.248958 C282.225440,193.067729,284.134826,195.522654,288.499135,195.795423 C297.227755,196.068192,304.865297,196.068192,313.593917,195.795423 C317.139919,195.522654,319.322074,193.613268,319.867613,190.067266 C320.958690,182.429724,322.322537,174.246643,323.686384,166.609101 C323.959153,164.699715,325.323000,163.608638,327.232385,163.608638 C338.143160,163.335868,349.326704,163.063099,359.964709,163.335868 C361.874095,163.335868,363.237942,164.426946,363.510711,166.336331 C364.874558,174.246643,366.238405,182.156955,367.329482,190.067266 C367.875021,193.613268,370.057176,195.522654,373.603178,195.522654 Z M330.232848,128.421390 C334.051620,109.054764,337.870391,89.688139,341.689162,70.321514 C342.234701,67.048282,344.962394,67.048282,345.507933,70.321514 C349.326704,89.960909,353.145475,109.054764,356.964246,128.694159 C357.237016,130.876314,356.145938,132.240161,353.963783,132.240161 C346.871780,132.240161,340.325315,132.240161,333.233311,131.967391 C331.051157,131.967391,329.960079,130.603544,330.232848,128.421390 Z " style="fill: rgba(51, 65, 85, 1.000000); " fill="#334155" stroke="none" />
  <path d="M432.521361,195.522654 C443.159366,195.795423,453.251833,195.795423,463.889838,195.522654 C467.708609,195.522654,469.890764,193.340499,469.617995,189.521728 C468.526917,156.516634,469.617995,72.503669,469.617995,43.862886 C469.617995,41.680731,470.709072,40.589654,472.891227,40.589654 C479.983231,40.316884,487.620773,40.589654,494.712776,41.135192 C498.804317,41.680731,500.986472,39.771345,501.259241,35.679805 C501.532010,26.951185,501.532010,18.768104,501.259241,10.312254 C500.986472,6.493483,499.077086,4.584097,495.258315,4.584097 C463.617069,4.038558,431.975822,4.038558,400.334576,4.584097 C396.515804,4.584097,394.606419,6.493483,394.333650,10.312254 C394.060880,18.768104,394.060880,27.769493,394.333650,35.679805 C394.606419,39.771345,396.788574,41.680731,400.880114,41.407962 C408.517657,40.589654,416.155199,40.316884,423.792741,40.589654 C425.974896,40.589654,427.065973,41.680731,427.065973,43.862886 C427.338743,72.503669,427.611512,156.516634,426.793204,189.521728 C426.520435,193.340499,428.702590,195.522654,432.521361,195.522654 Z " style="fill: rgba(51, 65, 85, 1.000000); " fill="#334155" stroke="none" />
  <path d="M504.877246,193.300962 C512.563995,192.885462,520.666243,192.885462,528.352992,193.300962 C531.469242,193.300962,533.131242,191.846712,533.131242,188.730463 C532.507992,158.814467,532.300242,102.514225,532.715742,86.309728 C532.715742,82.985728,532.923492,80.700479,532.923492,77.999729 C532.923492,76.337729,533.754491,75.506729,535.208741,75.298979 C576.135485,71.974980,655.288223,72.598230,677.932970,74.883480 C681.049220,75.091230,682.711219,73.636980,682.503469,70.520730 C682.295719,64.288231,682.295719,58.471232,682.711219,52.238733 C682.711219,49.537983,681.672470,47.668234,678.971720,47.252734 C644.692975,41.227985,513.394994,52.446483,480.778249,48.914733 C477.662000,48.499233,476.000000,49.953483,476.207750,53.069733 C476.415500,59.509982,476.415500,65.950231,476.000000,72.182730 C476.000000,75.091230,477.246500,76.960979,480.154999,77.168729 C486.802998,77.999729,493.658747,77.584229,497.813747,76.960979 C499.475747,76.753229,500.514496,77.584229,500.514496,79.246229 C500.722246,115.186974,500.514496,164.839216,500.098996,188.938213 C500.098996,191.846712,501.760996,193.300962,504.877246,193.300962 Z M547.881489,193.716462 C553.906238,193.924212,560.761987,193.924212,566.786737,193.716462 C569.487486,193.508712,570.941736,192.054462,570.941736,189.145963 C570.733986,180.420464,570.733986,165.462466,570.733986,149.257969 C570.733986,147.595969,571.564986,146.764969,573.226986,146.764969 C576.550985,146.557219,579.874985,146.557219,583.198984,146.764969 C584.860984,146.764969,585.691984,147.595969,585.691984,149.257969 C585.691984,165.462466,585.484234,180.420464,585.276484,189.145963 C585.276484,192.054462,586.938484,193.716462,589.846983,193.716462 C595.663982,193.924212,602.311981,193.924212,608.336730,193.716462 C611.245230,193.508712,612.907230,192.054462,612.907230,189.145963 C612.491730,168.163216,612.491730,109.785474,612.907230,88.179478 C612.907230,85.270978,611.245230,83.608978,608.336730,83.608978 C602.519731,83.401228,595.663982,83.401228,589.846983,83.608978 C586.938484,83.608978,585.276484,85.270978,585.484234,88.179478 C585.484234,96.073976,585.691984,108.954474,585.691984,122.873722 C585.691984,124.535722,584.860984,125.366722,583.198984,125.366722 C579.874985,125.574472,576.550985,125.574472,573.226986,125.366722 C571.564986,125.366722,570.733986,124.535722,570.733986,122.873722 C570.733986,108.954474,570.733986,96.073976,570.941736,88.179478 C570.941736,85.270978,569.279736,83.608978,566.371237,83.608978 C560.554237,83.401228,553.698488,83.401228,547.881489,83.608978 C544.972990,83.608978,543.310990,85.270978,543.310990,88.179478 C543.726490,109.785474,543.726490,168.370966,543.310990,189.145963 C543.310990,192.054462,544.972990,193.508712,547.881489,193.716462 Z M627.241978,193.508712 C642.615475,193.093212,659.027723,193.093212,674.401221,193.508712 C677.309720,193.508712,679.179470,192.054462,679.179470,188.938213 C679.387220,183.952213,679.387220,177.719714,679.179470,172.525965 C679.179470,169.617466,677.309720,167.955466,674.401221,168.163216 C667.545472,168.370966,661.312973,168.578716,654.249474,168.163216 C652.587474,167.955466,651.756474,166.916716,651.756474,165.462466 L651.756474,149.673468 C651.756474,148.219219,652.587474,147.180469,654.249474,147.180469 C658.196723,146.972719,662.351722,146.764969,666.506722,147.180469 C669.415221,147.180469,671.284971,145.726219,671.284971,142.609970 C671.492721,138.454970,671.492721,135.546471,671.284971,131.391471 C671.077221,128.275222,669.415221,126.820972,666.506722,127.028722 C662.143972,127.236472,657.988973,127.236472,654.041724,127.028722 C652.379724,126.820972,651.548724,125.782222,651.548724,124.327972 L651.548724,111.862974 C651.548724,110.408724,652.379724,109.369974,654.041724,109.162224 C661.728472,108.746725,669.415221,108.746725,676.894220,109.162224 C679.802720,109.162224,681.672470,107.707975,681.672470,104.799475 C681.880219,99.605726,681.880219,93.373227,681.672470,88.179478 C681.672470,85.270978,679.802720,83.608978,676.894220,83.608978 C661.105223,84.024478,643.030975,84.024478,627.034228,83.608978 C624.125728,83.608978,622.463728,85.270978,622.671478,88.179478 C623.086978,114.355974,623.294728,167.539966,622.671478,188.938213 C622.463728,191.846712,624.125728,193.508712,627.241978,193.508712 Z " style="fill: rgba(51, 65, 85, 1.000000); " fill="#334155" stroke="none" />
  <path d="M695.935685,55.498126 C695.935685,78.094242,707.496488,93.596229,722.735730,105.682524 C741.390663,120.396275,763.198543,129.855114,763.198543,145.882592 C763.198543,157.443396,756.892650,164.012034,746.908319,164.012034 C734.559279,164.012034,730.092605,150.086521,730.092605,136.161007 C730.092605,132.482569,728.253386,130.380605,724.574949,130.117860 C716.167091,129.855114,707.759234,129.855114,699.351377,130.117860 C695.672939,130.380605,693.570975,132.219824,693.570975,135.898261 C692.519993,170.843418,709.861198,196.592481,748.484793,196.592481 C777.649548,196.592481,799.457428,178.463039,799.457428,149.823775 C799.457428,105.682524,770.029927,95.698194,753.214212,81.247189 C735.610261,66.533439,732.194569,63.117747,732.194569,49.717724 C732.194569,43.149086,735.873007,36.580447,742.967136,36.580447 C755.316177,36.580447,757.155396,46.564778,757.155396,57.337345 C757.155396,61.015782,758.994614,63.117747,762.673052,63.380492 C771.080909,63.643238,779.226021,63.643238,787.633878,63.380492 C791.575061,63.117747,793.414280,61.015782,793.414280,57.337345 C792.363298,23.443170,777.912293,4.000000,746.908319,4.000000 C713.014145,4.000000,695.935685,21.866697,695.935685,55.498126 Z " style="fill: rgba(31, 41, 55, 1.000000); " fill="#1f2937" stroke="none" />
  <path d="M830.986893,192.651298 C840.708478,192.125807,850.955554,192.125807,860.677139,192.651298 C864.618322,192.651298,866.720286,190.812079,866.720286,186.870896 C865.932049,149.035538,865.669304,77.831497,866.194795,57.337345 C866.194795,53.133416,866.457541,50.243215,866.457541,46.564778 C866.457541,44.725559,867.508523,43.674577,869.610487,43.411831 C916.379193,39.207902,943.704730,39.996139,959.732207,42.360849 C963.673391,43.149086,965.775355,41.309867,965.512609,37.105938 C965.249864,29.486317,965.249864,22.129442,965.775355,14.247076 C965.775355,10.831384,964.461627,8.466674,961.045935,7.678438 C923.998814,0.584308,833.877093,14.247076,800.508410,10.043147 C796.567227,9.780402,794.465262,11.356875,794.728008,15.560804 C794.990753,23.443170,794.990753,31.588282,794.465262,39.470648 C794.465262,43.149086,796.041736,45.513795,799.720173,45.776541 C808.128030,46.827523,816.798633,46.302032,822.053544,45.513795 C824.155508,45.251050,825.469236,46.302032,825.469236,48.403996 C825.731982,93.858975,825.469236,156.655159,824.943745,187.133642 C824.943745,190.812079,827.045709,192.651298,830.986893,192.651298 Z M881.959527,114.353127 C881.959527,138.788462,882.747764,171.368909,882.222273,188.972861 C882.222273,191.600316,884.324237,192.651298,888.265420,192.651298 C894.571313,192.388553,901.928189,192.388553,908.234082,192.651298 C912.175265,192.651298,914.277229,190.812079,914.014483,186.870896 C913.751738,177.937548,914.014483,166.639490,914.539974,154.815940 C914.539974,152.713976,915.590957,151.662994,917.430175,151.662994 C921.634104,151.400248,925.575287,151.400248,929.779216,151.662994 C931.881180,151.662994,932.932162,152.713976,932.932162,154.815940 C932.932162,166.639490,933.194908,177.937548,932.932162,186.870896 C932.669417,190.812079,934.771381,192.651298,938.712564,192.651298 C945.281203,192.388553,953.426315,192.388553,960.257699,192.651298 C964.198882,192.651298,966.038100,190.812079,966.038100,186.870896 C965.249864,170.317927,965.249864,144.568864,965.249864,114.353127 C964.724373,67.584421,952.900823,52.082434,924.261559,52.082434 C894.045822,52.082434,881.959527,68.109912,881.959527,114.353127 Z M914.802720,120.921766 C914.277229,100.953105,911.649774,83.874644,923.210577,83.874644 C933.457653,83.874644,932.669417,101.215850,932.669417,120.921766 C932.669417,123.023730,931.355689,124.074712,929.516470,124.074712 L917.955667,124.074712 C916.116448,124.074712,914.802720,123.023730,914.802720,120.921766 Z " style="fill: rgba(31, 41, 55, 1.000000); " fill="#1f2937" stroke="none" />
  <path d="M1031.461740,197.380718 C1053.006874,197.380718,1081.383393,182.141477,1085.587321,131.431587 C1086.375558,122.235493,1084.010848,117.243328,1080.069665,117.506074 C1071.924553,117.768819,1063.516696,117.768819,1055.371584,117.506074 C1051.693147,117.243328,1049.591182,119.345292,1049.328437,123.023730 C1047.751964,140.102190,1041.971562,160.333597,1031.198995,160.333597 C1020.951918,160.333597,1013.857789,142.992391,1013.857789,104.368797 C1013.857789,60.490291,1022.002901,42.360849,1033.563704,42.360849 C1045.124508,42.360849,1048.802946,68.635403,1049.591182,84.925627 C1049.591182,88.604064,1051.430401,90.443283,1055.108839,90.706028 C1063.516696,90.968774,1071.924553,90.968774,1080.332411,90.706028 C1084.010848,90.443283,1086.112813,88.341319,1086.112813,84.400135 C1084.010848,25.019643,1059.575513,4.000000,1032.775468,4.000000 C1003.085222,4.000000,976.810668,26.333371,976.810668,104.368797 C976.810668,179.251276,1002.822476,197.380718,1031.461740,197.380718 Z " style="fill: rgba(31, 41, 55, 1.000000); " fill="#1f2937" stroke="none" />
  <path d="M1136.297211,8.729420 C1126.050135,8.466674,1116.065804,8.466674,1106.081474,8.729420 C1102.403036,8.992165,1100.301072,10.831384,1100.301072,14.509822 C1101.089308,53.921653,1101.089308,143.780628,1100.301072,187.396387 C1100.301072,191.074825,1102.403036,192.914044,1106.081474,193.176789 C1116.065804,193.439535,1126.050135,193.439535,1136.297211,193.176789 C1139.975648,192.914044,1142.077613,190.812079,1142.077613,187.133642 C1141.814867,173.470874,1141.552122,154.815940,1141.552122,134.584534 C1141.552122,132.745315,1142.603104,131.431587,1144.442323,131.168842 C1144.967814,131.168842,1145.756050,130.906096,1146.281541,130.906096 C1148.383506,130.643351,1149.434488,131.694333,1149.697233,133.796297 C1154.689399,176.623820,1182.014935,193.702280,1205.662034,194.227771 C1209.077726,194.490517,1211.179690,192.651298,1211.967927,189.235606 C1214.332636,180.039512,1216.171855,170.580673,1217.748328,161.121833 C1218.273820,157.443396,1216.434601,155.604177,1212.493418,155.078686 C1187.795337,150.874757,1183.328663,116.980583,1183.065917,109.623707 C1183.065917,109.623707,1183.328663,109.098216,1184.116899,107.784489 C1199.881632,86.502100,1204.348306,52.870671,1203.297324,14.772567 C1203.034578,11.094130,1200.932614,8.992165,1197.254176,8.992165 L1169.665895,8.729420 C1165.987457,8.729420,1163.622747,10.831384,1163.885493,15.035313 C1165.199220,61.015782,1157.316854,80.721698,1145.230559,88.604064 C1143.128595,89.917792,1141.552122,88.866810,1141.552122,86.239354 C1141.552122,58.125581,1141.814867,31.851027,1142.077613,14.509822 C1142.077613,10.831384,1139.975648,8.992165,1136.297211,8.729420 Z " style="fill: rgba(31, 41, 55, 1.000000); " fill="#1f2937" stroke="none" />
  <path d="M1252.167994,132.219824 C1253.744468,83.874644,1289.215116,73.890314,1289.215116,52.082434 C1289.215116,43.149086,1285.273932,36.580447,1278.179803,36.580447 C1264.779780,36.580447,1262.677816,48.141251,1262.940561,59.964800 C1262.940561,62.066765,1261.889579,63.117747,1259.787615,63.380492 C1249.803284,63.643238,1239.556208,63.643238,1229.571878,63.117747 C1227.469913,63.117747,1226.418931,62.066765,1226.418931,59.964800 C1226.681677,24.231407,1241.132682,4.000000,1278.179803,4.000000 C1306.819067,4.000000,1325.474000,21.603951,1325.474000,47.090269 C1325.474000,97.537413,1282.909223,96.486430,1280.544513,132.219824 C1280.544513,134.321788,1279.493531,135.372770,1277.391566,135.635516 C1267.932727,136.161007,1264.779780,136.161007,1255.320941,135.635516 C1253.218976,135.372770,1252.167994,134.321788,1252.167994,132.219824 Z M1245.073865,174.784601 C1245.073865,163.486543,1253.218976,154.027704,1265.830762,154.027704 C1278.442548,154.027704,1286.587660,163.486543,1286.587660,174.784601 C1286.587660,186.082660,1278.442548,195.541499,1265.830762,195.541499 C1253.218976,195.541499,1245.073865,186.082660,1245.073865,174.784601 Z " style="fill: rgba(31, 41, 55, 1.000000); " fill="#1f2937" stroke="none" />
</svg>